<?xml version="1.0" standalone="no"?>
<!DOCTYPE svg PUBLIC "-//W3C//DTD SVG 1.1//EN" "http://www.w3.org/Graphics/SVG/1.1/DTD/svg11.dtd" >
<svg>
<metadata>
Created by FontForge 20090622 at Tue May 21 09:45:37 2019
 By deploy user
Copyright (c) Luc[as] de Groot, 2012. All rights reserved. Published by LucasFonts &#60;www.LucasFonts.com&#62;
</metadata>
<defs>
<font id="DWTheAntiquaB-W6SemiBoldItalic" horiz-adv-x="0" >
  <font-face 
    font-family="DW TheAntiquaB W6 SemiBold"
    font-weight="390"
    font-style="italic"
    font-stretch="normal"
    units-per-em="1000"
    panose-1="2 10 6 3 7 3 2 9 2 4"
    ascent="740"
    descent="-260"
    x-height="500"
    cap-height="675"
    bbox="-802 -320 2877 980"
    underline-thickness="76"
    underline-position="-139"
    slope="-11"
    unicode-range="U+000D-U+FB06"
  />
<missing-glyph horiz-adv-x="550" 
d="M300 150h-150v250h50v-200h100v-50zM500 50h-450v450h450v-450zM350 350h-100v50h150v-250h-50v100h-100v50h100v50zM100 100h350v350h-350v-350z" />
    <glyph glyph-name="ellipsis" unicode="&#x2e;&#x2e;&#x2e;" horiz-adv-x="706" 
d="M606 63q0 -31 -21 -52t-51 -21t-48.5 19t-18.5 49q0 31 21 52t51 21t48.5 -19t18.5 -49zM377 63q0 -31 -21 -52t-51 -21t-48.5 19t-18.5 49q0 31 21 52t51 21t48.5 -19t18.5 -49zM148 63q0 -31 -21 -52t-51 -21t-48.5 19t-18.5 49q0 31 21 52t51 21t48.5 -19t18.5 -49z
" />
    <glyph glyph-name="arrowboth" unicode="&#x2190;&#x2192;" horiz-adv-x="1400" 
d="M1236 297l-538 -33l-522 33l164 -273l-49 -33l-279 342l406 335l43 -40l-273 -269l526 33l534 -33l-164 273l49 33l279 -342l-406 -335l-43 40z" />
    <glyph glyph-name="f_f_i" unicode="ffi" horiz-adv-x="905" 
d="M900 656q0 -31 -20 -51t-51 -20q-35 0 -52.5 27.5t-5.5 58.5q-22 23 -77 23q-101 0 -130 -148l-9 -46h302l-81 -429q24 -11 64 -20l-7 -40q-8 -2 -23.5 -5t-62.5 -7t-94 -3l84 444h-194l-89 -468q-41 -210 -260 -210q-81 0 -142 20q-50 -33 -129 -33q-26 0 -51 3t-38 6
l-12 3l26 136h44q2 -5 4 -13t5.5 -31t3.5 -43q15 -5 32 -5q40 0 61.5 27.5t31.5 83.5l100 524h-85l12 60h85l6 32q39 201 258 201q86 0 158 -24q64 41 157 41q82 0 130.5 -26t48.5 -68zM506 653q-52 24 -114 24q-57 0 -88.5 -33t-46.5 -110l-7 -34h196l6 27q14 71 54 126z
M435 440h-196l-98 -513q-10 -52 -37 -88q46 -21 104 -21t89.5 34t46.5 114z" />
    <glyph glyph-name="f_f_l" unicode="ffl" horiz-adv-x="918" 
d="M912 727l-125 -656q27 -12 64 -19l-7 -41q-9 -2 -24.5 -5t-63 -7t-92.5 -2l128 676q-43 14 -86 14q-63 0 -95.5 -33t-46.5 -108l-9 -46h108l-12 -60h-108l-89 -468q-41 -210 -260 -210q-81 0 -142 20q-50 -33 -129 -33q-26 0 -51 3t-38 6l-12 3l26 136h44q2 -5 4 -13
t5.5 -31t3.5 -43q15 -5 32 -5q40 0 61.5 27.5t31.5 83.5l100 524h-85l12 60h85l6 32q39 201 258 201q92 0 153 -25q61 37 164 37q43 0 90 -4.5t73 -8.5zM502 653q-44 24 -110 24q-57 0 -88.5 -33t-46.5 -110l-7 -34h196l8 40q13 66 48 113zM435 440h-196l-98 -513
q-10 -52 -37 -88q46 -21 104 -21t89.5 34t46.5 114z" />
    <glyph glyph-name="f_b" unicode="fb" horiz-adv-x="891" 
d="M859 350q0 -65 -18.5 -126t-55.5 -115t-102 -86.5t-150 -32.5q-39 0 -81.5 6.5t-65.5 13.5l-23 6l124 657q-43 14 -85 14q-63 0 -96 -33t-47 -108l-9 -46h109l-12 -60h-108l-99 -514q-33 -177 -217 -177q-26 0 -51 3t-38 6l-12 3l26 136h44q2 -5 4 -13t5.5 -31t3.5 -43
q15 -5 32 -5q40 0 61.5 27.5t31.5 83.5l100 524h-85l12 60h85l7 39q21 105 85 155.5t184 50.5q43 0 90 -4.5t73 -8.5l26 -5l-43 -232q-14 -71 -56 -187h2q34 83 94.5 142t130.5 59q57 0 90.5 -42.5t33.5 -116.5zM743 332q0 99 -56 99q-57 0 -113.5 -91.5t-75.5 -190.5
l-15 -74q31 -23 80 -23q44 0 80 27.5t57 71t32 90.5t11 91z" />
    <glyph glyph-name="f_f_b" unicode="ffb" horiz-adv-x="1196" 
d="M1164 350q0 -51 -11 -100.5t-36 -97t-62 -83t-93.5 -57.5t-124.5 -22q-39 0 -81.5 6.5t-65.5 13.5l-23 6l125 657q-43 14 -86 14q-63 0 -95.5 -33t-46.5 -108l-9 -46h108l-12 -60h-108l-89 -468q-41 -210 -260 -210q-81 0 -142 20q-50 -33 -129 -33q-26 0 -51 3t-38 6
l-12 3l26 136h44q2 -5 4 -13t5.5 -31t3.5 -43q15 -5 32 -5q40 0 61.5 27.5t31.5 83.5l100 524h-85l12 60h85l6 32q39 201 258 201q92 0 153 -25q61 37 164 37q43 0 90 -4.5t73 -8.5l26 -5l-44 -232q-15 -77 -55 -187h2q34 83 94.5 142t130.5 59q57 0 90.5 -42.5t33.5 -116.5
zM435 440h-196l-98 -513q-10 -52 -37 -88q46 -21 104 -21t89.5 34t46.5 114zM1047 332q0 99 -56 99t-112.5 -91.5t-76.5 -190.5l-14 -74q31 -23 80 -23q58 0 101 48t60.5 109.5t17.5 122.5zM502 653q-44 24 -110 24q-57 0 -88.5 -33t-46.5 -110l-7 -34h196l8 40
q12 64 48 113z" />
    <glyph glyph-name="f_f_f" unicode="fff" horiz-adv-x="978" 
d="M555 500h230l13 69q35 177 217 177q26 0 51.5 -3t37.5 -6l12 -3l-26 -136h-44q-2 5 -4 13t-5.5 31t-3.5 43q-14 5 -32 5q-40 0 -61 -27t-32 -83l-15 -80h124l-11 -60h-124l-99 -514q-33 -177 -217 -177q-26 0 -51 3t-37 6l-13 3l26 136h44q2 -5 4 -13t5.5 -31t3.5 -43
q15 -5 32 -5q40 0 61.5 27.5t31.5 83.5l100 524h-230l-89 -468q-41 -210 -260 -210q-81 0 -142 20q-50 -33 -129 -33q-26 0 -51 3t-38 6l-12 3l26 136h44q2 -5 4 -13t5.5 -31t3.5 -43q15 -5 32 -5q40 0 61.5 27.5t31.5 83.5l100 524h-85l12 60h85l6 32q39 201 258 201
q86 0 148 -22q49 29 122 29q26 0 51.5 -3t37.5 -6l12 -3l-26 -137h-44q-2 5 -4 13t-5.5 31t-3.5 43q-14 5 -32 5q-39 0 -60 -27t-32 -83zM498 655q-46 22 -106 22q-57 0 -88.5 -33t-46.5 -110l-7 -34h196l13 63q12 56 39 92zM435 440h-196l-98 -513q-10 -52 -37 -88
q46 -21 104 -21t89.5 34t46.5 114z" />
    <glyph glyph-name="f_h" unicode="fh" horiz-adv-x="917" 
d="M851 52l-8 -41q-9 -2 -24.5 -5t-63 -7t-93.5 -2q68 277 68 355q0 42 -10.5 60.5t-34.5 18.5q-55 0 -112 -92t-77 -193l-28 -146h-109l128 673q-43 14 -85 14q-63 0 -96 -33t-47 -108l-9 -46h109l-12 -60h-108l-99 -514q-33 -177 -217 -177q-26 0 -51 3t-38 6l-12 3
l26 136h44q2 -5 4 -13t5.5 -31t3.5 -43q15 -5 32 -5q40 0 61.5 27.5t31.5 83.5l100 524h-85l12 60h85l7 39q21 105 85 155.5t184 50.5q43 0 90 -4.5t73 -8.5l26 -5l-41 -221q-13 -71 -58 -198h2q34 82 94.5 141.5t128.5 59.5q57 0 83 -37t26 -98q0 -83 -55 -303
q25 -12 64 -19z" />
    <glyph glyph-name="f_f_h" unicode="ffh" horiz-adv-x="1221" 
d="M1155 52l-7 -41q-9 -2 -24.5 -5t-63 -7t-94.5 -2q69 272 69 355q0 42 -10.5 60.5t-34.5 18.5q-55 0 -112.5 -92t-76.5 -193l-28 -146h-109l128 673q-43 14 -86 14q-63 0 -95.5 -33t-46.5 -108l-9 -46h108l-12 -60h-108l-89 -468q-41 -210 -260 -210q-81 0 -142 20
q-50 -33 -129 -33q-26 0 -51 3t-38 6l-12 3l26 136h44q2 -5 4 -13t5.5 -31t3.5 -43q15 -5 32 -5q40 0 61.5 27.5t31.5 83.5l100 524h-85l12 60h85l6 32q39 201 258 201q92 0 153 -25q61 37 164 37q43 0 90 -4.5t73 -8.5l26 -5l-42 -221q-10 -59 -57 -198h2q34 82 94.5 141.5
t128.5 59.5q57 0 83 -37t26 -98q0 -90 -56 -303q19 -13 64 -19zM435 440h-196l-98 -513q-10 -52 -37 -88q46 -21 104 -21t89.5 34t46.5 114zM502 653q-44 24 -110 24q-57 0 -88.5 -33t-46.5 -110l-7 -34h196l8 40q12 64 48 113z" />
    <glyph glyph-name="f_igrave" unicode="f&#xec;" horiz-adv-x="604" 
d="M556 500l-82 -429q24 -11 65 -20l-8 -40q-8 -2 -23.5 -5t-62.5 -7t-94 -3l84 444h-196l-99 -514q-33 -177 -217 -177q-26 0 -51 3t-38 6l-12 3l26 136h44q2 -5 4 -13t5.5 -31t3.5 -43q15 -5 32 -5q40 0 61.5 27.5t31.5 83.5l100 524h-85l12 60h85l7 35q19 101 65.5 151
t138.5 50q54 0 96 -14l-25 -132h-42q-14 40 -14 84q-12 8 -34 8q-33 0 -47 -31.5t-29 -110.5q-1 -5 -1 -7l-7 -33h306zM580 567l-50 -11l-67 172l99 24z" />
    <glyph glyph-name="f_iacute" unicode="f&#xed;" horiz-adv-x="604" 
d="M556 500l-82 -429q24 -11 65 -20l-8 -40q-8 -2 -23.5 -5t-62.5 -7t-94 -3l84 444h-196l-99 -514q-33 -177 -217 -177q-26 0 -51 3t-38 6l-12 3l26 136h44q2 -5 4 -13t5.5 -31t3.5 -43q15 -5 32 -5q40 0 61.5 27.5t31.5 83.5l100 524h-85l12 60h85l10 52q36 184 216 184
q27 0 52.5 -3t37.5 -6l11 -3l-26 -136h-43q-14 41 -14 86q-13 5 -31 5q-39 0 -59.5 -25.5t-31.5 -81.5l-14 -72h306zM674 703l-145 -152l-45 28l108 177z" />
    <glyph glyph-name="f_icircumflex" unicode="f&#xee;" horiz-adv-x="614" 
d="M566 500l-82 -429q24 -11 65 -20l-8 -40q-8 -2 -23.5 -5t-62.5 -7t-94 -3l84 444h-206l-99 -514q-33 -177 -217 -177q-26 0 -51 3t-38 6l-12 3l26 136h44q2 -5 4 -13t5.5 -31t3.5 -43q15 -5 32 -5q40 0 61.5 27.5t31.5 83.5l100 524h-85l12 60h85l8 40q21 100 62.5 148
t132.5 48q26 0 49 -3t33 -7l10 -3l-25 -132h-41q-15 42 -13 84q-11 7 -30 7q-16 0 -26.5 -8t-17.5 -25t-11.5 -37t-10.5 -51q-3 -15 -4 -22l-8 -39h316zM656 611l-42 -36l-64 70l-90 -68l-26 38l136 135z" />
    <glyph glyph-name="f_itilde" unicode="f&#x129;" horiz-adv-x="624" 
d="M576 500l-82 -429q24 -11 65 -20l-8 -40q-8 -2 -23.5 -5t-62.5 -7t-94 -3l84 444h-216l-99 -514q-33 -177 -217 -177q-26 0 -51 3t-38 6l-12 3l26 136h44q2 -5 4 -13t5.5 -31t3.5 -43q15 -5 32 -5q40 0 61.5 27.5t31.5 83.5l100 524h-85l12 60h85l8 40q21 100 62.5 148
t132.5 48q27 0 50.5 -3t34.5 -7l10 -3l-25 -131h-42q-14 43 -13 83q-12 7 -32 7q-16 0 -26.5 -8t-17.5 -25t-11.5 -37t-10.5 -51q-3 -15 -4 -22l-8 -39h326zM594 600q-21 0 -48 15.5t-43 15.5q-22 0 -42 -22l-17 39q38 55 91 55q19 0 47.5 -16t42.5 -16q24 0 47 25l18 -40
q-41 -56 -96 -56z" />
    <glyph glyph-name="f_idieresis" unicode="f&#xef;" horiz-adv-x="614" 
d="M515 659q0 -27 -18 -45.5t-45 -18.5q-33 0 -48.5 25t-2.5 53q-15 22 -57 22q-38 0 -53.5 -32.5t-29.5 -108.5q-3 -14 -4 -21l-6 -33h315l-81 -429q24 -11 64 -20l-7 -40q-9 -2 -24.5 -5t-62.5 -7t-94 -3l84 444h-206l-99 -514q-33 -177 -217 -177q-26 0 -51 3t-38 6
l-12 3l26 136h44q2 -5 4 -13t5.5 -31t3.5 -43q15 -5 32 -5q40 0 61.5 27.5t31.5 83.5l100 524h-85l12 60h85l7 32q22 113 73 164t148 51q64 0 104.5 -25.5t40.5 -62.5zM695 658q0 -26 -18 -44.5t-45 -18.5q-26 0 -42.5 16.5t-16.5 42.5t18.5 44t45.5 18q26 0 42 -16.5
t16 -41.5z" />
    <glyph glyph-name="f_imacron" unicode="f&#x12b;" horiz-adv-x="617" 
d="M569 500l-81 -429q24 -11 64 -20l-7 -40q-8 -2 -23.5 -5t-62.5 -7t-94 -3l84 444h-210l-99 -514q-33 -177 -217 -177q-26 0 -51 3t-38 6l-12 3l26 136h44q2 -5 4 -13t5.5 -31t3.5 -43q15 -5 32 -5q40 0 61.5 27.5t31.5 83.5l100 524h-85l12 60h85l8 40q21 100 62.5 148
t132.5 48q27 0 50.5 -3t34.5 -7l10 -3l-25 -131h-42q-14 43 -13 83q-12 7 -32 7q-16 0 -26.5 -8t-17.5 -25t-11.5 -37t-10.5 -51q-3 -15 -4 -22l-8 -39h319zM654 607h-210l12 68h211z" />
    <glyph glyph-name="f_ibreve" unicode="f&#x12d;" horiz-adv-x="627" 
d="M579 500l-81 -429q24 -11 64 -20l-7 -40q-8 -2 -23.5 -5t-62.5 -7t-94 -3l84 444h-220l-99 -514q-33 -177 -217 -177q-26 0 -51 3t-38 6l-12 3l26 136h44q2 -5 4 -13t5.5 -31t3.5 -43q15 -5 32 -5q40 0 61.5 27.5t31.5 83.5l100 524h-85l12 60h85l8 40q21 100 62.5 148
t132.5 48q26 0 49 -3t33 -6l10 -3l-25 -131h-41q-14 42 -13 83q-12 6 -30 6q-16 0 -26.5 -8t-17.5 -25t-11.5 -37t-10.5 -51q-3 -15 -4 -22l-8 -39h329zM681 717q-12 -59 -46.5 -96.5t-94.5 -37.5q-109 0 -83 134h51q-5 -28 7.5 -46t42.5 -18q60 0 72 64h51z" />
    <glyph glyph-name="f_iogonek" unicode="f&#x12f;" horiz-adv-x="601" 
d="M536 51l-8 -40q-53 -8 -101 -59t-48 -98q0 -30 31 -30q33 0 72 30l23 -40q-70 -64 -137 -64q-89 0 -89 75q0 44 33.5 89.5t93.5 82.5q-25 -1 -58 -1l84 444h-193l-99 -514q-33 -177 -217 -177q-26 0 -51 3t-38 6l-12 3l26 136h44q2 -5 4 -13t5.5 -31t3.5 -43q15 -5 32 -5
q40 0 61.5 27.5t31.5 83.5l100 524h-85l12 60h85l6 27q22 110 91 166.5t178 56.5q81 0 130 -26t49 -68q0 -31 -20 -51t-52 -20q-34 0 -52 27.5t-6 58.5q-21 23 -76 23q-101 0 -130 -148l-9 -46h301l-81 -429q24 -11 65 -20z" />
    <glyph glyph-name="f_dotlessi" unicode="f&#x131;" horiz-adv-x="609" 
d="M561 500l-81 -429q24 -11 64 -20l-7 -40q-8 -2 -23.5 -5t-62.5 -7t-94 -3l84 444h-202l-99 -514q-33 -177 -217 -177q-26 0 -51 3t-38 6l-12 3l26 136h44q2 -5 4 -13t5.5 -31t3.5 -43q15 -5 32 -5q40 0 61.5 27.5t31.5 83.5l100 524h-85l12 60h85l11 58q35 178 218 178
q26 0 51.5 -3t37.5 -5l12 -3l-26 -137h-44q-2 5 -4 13t-5.5 31t-3.5 42q-14 5 -32 5q-40 0 -61.5 -27t-31.5 -84l-14 -68h311z" />
    <glyph glyph-name="f_f_igrave" unicode="ff&#xec;" horiz-adv-x="909" 
d="M754 722l-26 -132h-41q-15 44 -14 84q-12 8 -34 8q-34 0 -48 -31.5t-29 -110.5q-1 -5 -1 -7l-6 -33h305l-81 -429q24 -11 65 -20l-8 -40q-8 -2 -23.5 -5t-62.5 -7t-94 -3l84 444h-197l-89 -468q-41 -210 -260 -210q-81 0 -142 20q-50 -33 -129 -33q-26 0 -51 3t-38 6
l-12 3l26 136h44q2 -5 4 -13t5.5 -31t3.5 -43q15 -5 32 -5q40 0 61.5 27.5t31.5 83.5l100 524h-85l12 60h85l6 32q39 201 258 201q84 0 148 -21q40 24 103 24q53 0 97 -14zM435 440h-196l-98 -513q-10 -52 -37 -88q46 -21 104 -21t89.5 34t46.5 113zM497 656q-44 21 -105 21
q-57 0 -88.5 -33t-46.5 -110l-7 -34h196l7 35q15 77 44 121zM885 567l-51 -11l-66 172l98 24z" />
    <glyph glyph-name="f_f_iacute" unicode="ff&#xed;" horiz-adv-x="909" 
d="M978 703l-145 -152l-44 28l107 177zM774 724l-27 -136h-43q-2 5 -4 13t-5.5 30.5t-3.5 42.5q-14 5 -32 5q-38 0 -58.5 -25.5t-31.5 -81.5l-14 -72h305l-81 -429q24 -11 65 -20l-8 -40q-8 -2 -23.5 -5t-62.5 -7t-94 -3l84 444h-197l-89 -468q-41 -210 -260 -210
q-81 0 -142 20q-50 -33 -129 -33q-26 0 -51 3t-38 6l-12 3l26 136h44q2 -5 4 -13t5.5 -31t3.5 -43q15 -5 32 -5q40 0 61.5 27.5t31.5 83.5l100 524h-85l12 60h85l6 32q39 201 258 201q82 0 153 -23q47 26 113 26q28 0 53.5 -3t36.5 -6zM435 440h-196l-98 -513
q-10 -52 -37 -88q46 -21 104 -21t89.5 34t46.5 113zM500 654q-50 23 -108 23q-57 0 -88.5 -33t-46.5 -109l-7 -35h196l11 52q12 62 43 102z" />
    <glyph glyph-name="f_f_icircumflex" unicode="ff&#xee;" horiz-adv-x="919" 
d="M742 723l-25 -132h-42q-15 42 -13 84q-10 7 -29 7q-35 0 -49 -47q-5 -15 -21 -96l-8 -39h315l-81 -429q24 -11 65 -20l-8 -40q-8 -2 -23.5 -5t-62.5 -7t-94 -3l84 444h-207l-89 -468q-41 -210 -260 -210q-81 0 -142 20q-50 -33 -129 -33q-26 0 -51 3t-38 6l-12 3l26 136
h44q2 -5 4 -13t5.5 -31t3.5 -43q15 -5 32 -5q40 0 61.5 27.5t31.5 83.5l100 524h-85l12 60h85l6 32q39 201 258 201q81 0 144 -21q37 24 99 24q26 0 49.5 -3t33.5 -7zM435 440h-196l-98 -513q-10 -52 -37 -88q46 -21 104 -21t89.5 34t46.5 113zM496 656q-44 21 -104 21
q-57 0 -88.5 -33t-46.5 -110l-7 -34h196l7 34q15 81 43 122zM961 611l-42 -36l-65 70l-89 -68l-27 38l136 135z" />
    <glyph glyph-name="f_f_itilde" unicode="ff&#x129;" horiz-adv-x="929" 
d="M744 723l-25 -131h-41q-14 43 -13 83q-13 7 -32 7q-35 0 -49 -47q-5 -15 -21 -96l-8 -39h325l-81 -429q24 -11 65 -20l-8 -40q-8 -2 -23.5 -5t-62.5 -7t-94 -3l84 444h-217l-89 -468q-41 -210 -260 -210q-81 0 -142 20q-50 -33 -129 -33q-26 0 -51 3t-38 6l-12 3l26 136
h44q2 -5 4 -13t5.5 -31t3.5 -43q15 -5 32 -5q40 0 61.5 27.5t31.5 83.5l100 524h-85l12 60h85l6 32q39 201 258 201q80 0 144 -20q38 23 99 23q27 0 51 -3t34 -7zM435 440h-196l-98 -513q-10 -52 -37 -88q46 -21 104 -21t89.5 34t46.5 113zM496 656q-44 21 -104 21
q-57 0 -88.5 -33t-46.5 -110l-7 -34h196l8 37q16 79 42 119zM899 600q-21 0 -48 15.5t-43 15.5q-23 0 -42 -22l-17 39q37 55 90 55q19 0 47.5 -16t43.5 -16q24 0 47 25l18 -40q-43 -56 -96 -56z" />
    <glyph glyph-name="f_f_idieresis" unicode="ff&#xef;" horiz-adv-x="919" 
d="M820 659q0 -27 -18 -45.5t-46 -18.5q-32 0 -47.5 25t-2.5 53q-16 22 -58 22q-38 0 -53.5 -32.5t-29.5 -108.5q-3 -14 -4 -21l-6 -33h316l-82 -429q24 -11 65 -20l-8 -40q-8 -2 -23.5 -5t-62.5 -7t-94 -3l84 444h-207l-89 -468q-41 -210 -260 -210q-81 0 -142 20
q-50 -33 -129 -33q-26 0 -51 3t-38 6l-12 3l26 136h44q2 -5 4 -13t5.5 -31t3.5 -43q15 -5 32 -5q40 0 61.5 27.5t31.5 83.5l100 524h-85l12 60h85l6 32q39 201 258 201q82 0 141 -20q47 34 128 34q64 0 104.5 -25.5t40.5 -62.5zM435 440h-196l-98 -513q-10 -52 -37 -88
q46 -21 104 -21t89.5 34t46.5 113zM497 656q-44 21 -105 21q-57 0 -88.5 -33t-46.5 -110l-7 -34h196l7 35q15 77 44 121zM1000 658q0 -26 -18.5 -44.5t-44.5 -18.5t-42.5 16.5t-16.5 42.5t18.5 44t45.5 18q26 0 42 -16.5t16 -41.5z" />
    <glyph glyph-name="f_f_imacron" unicode="ff&#x12b;" horiz-adv-x="922" 
d="M744 723l-25 -131h-41q-14 43 -13 83q-13 7 -32 7q-35 0 -49 -47q-5 -15 -21 -96l-8 -39h319l-81 -429q24 -11 64 -20l-7 -40q-9 -2 -24.5 -5t-62.5 -7t-94 -3l85 444h-211l-89 -468q-41 -210 -260 -210q-81 0 -142 20q-50 -33 -129 -33q-26 0 -51 3t-38 6l-12 3l26 136
h44q1 0 4 -12t6 -33.5t3 -41.5q15 -5 32 -5q40 0 61.5 27.5t31.5 83.5l100 524h-85l12 60h85l6 32q39 201 258 201q80 0 144 -20q40 23 99 23q56 0 95 -13zM435 440h-196l-98 -513q-10 -52 -37 -88q46 -21 104 -21t89.5 34t46.5 113zM496 656q-44 21 -104 21
q-57 0 -88.5 -33t-46.5 -110l-7 -34h196l7 35q15 79 43 121zM959 607h-211l13 68h210z" />
    <glyph glyph-name="f_f_ibreve" unicode="ff&#x12d;" horiz-adv-x="932" 
d="M742 724l-25 -131h-42q-14 42 -13 83q-11 6 -29 6q-35 0 -49 -47q-5 -15 -21 -96l-8 -39h329l-81 -429q23 -11 64 -20l-8 -40q-8 -2 -23.5 -5t-62.5 -7t-94 -3l84 444h-220l-89 -468q-41 -210 -260 -210q-81 0 -142 20q-50 -33 -129 -33q-26 0 -51 3t-38 6l-12 3l26 136
h44q2 -5 4 -13t5.5 -31t3.5 -43q15 -5 32 -5q40 0 61.5 27.5t31.5 83.5l100 524h-85l12 60h85l6 32q39 201 258 201q80 0 144 -20q41 23 99 23q26 0 49.5 -3t33.5 -6zM435 440h-196l-98 -513q-10 -52 -37 -88q46 -21 104 -21t89.5 34t46.5 113zM496 656q-44 21 -104 21
q-57 0 -88.5 -33t-46.5 -110l-7 -34h196l7 35q15 77 43 121zM985 717q-11 -59 -45.5 -96.5t-95.5 -37.5q-110 0 -82 134h51q-5 -28 7.5 -46t42.5 -18q59 0 71 64h51z" />
    <glyph glyph-name="f_f_iogonek" unicode="ff&#x12f;" horiz-adv-x="905" 
d="M506 653q-52 24 -114 24q-57 0 -88.5 -33t-46.5 -110l-7 -34h196l6 27q14 71 54 126zM435 440h-196l-98 -513q-10 -52 -37 -88q46 -21 103 -21q58 0 90 34t47 114zM710 -3q-15 -1 -57 -1l84 444h-194l-89 -468q-41 -210 -260 -210q-81 0 -142 20q-50 -33 -129 -33
q-26 0 -51 3t-38 6l-12 3l26 136h44q2 -5 4 -13t5.5 -31t3.5 -43q15 -5 32 -5q40 0 61.5 27.5t31.5 83.5l100 524h-85l12 60h85l6 32q39 201 258 201q86 0 158 -24q64 41 157 41q82 0 130.5 -26t48.5 -68q0 -31 -20 -51t-51 -20q-35 0 -52.5 27t-5.5 58q-22 23 -77 23
q-101 0 -130 -148l-9 -45h302l-81 -429q24 -11 64 -20l-7 -40q-53 -8 -101.5 -59t-48.5 -98q0 -30 32 -30t71 30l23 -40q-69 -64 -137 -64q-46 0 -67.5 21t-21.5 54q0 44 34 89.5t93 82.5z" />
    <glyph glyph-name="f_f_dotlessi" unicode="ff&#x131;" horiz-adv-x="914" 
d="M776 725l-25 -137h-44q-2 5 -4 13t-5.5 31t-3.5 42q-15 5 -32 5q-40 0 -61.5 -27t-32.5 -84l-13 -68h311l-81 -429q24 -11 64 -20l-7 -40q-9 -2 -24.5 -5t-62.5 -7t-94 -3l85 444h-203l-89 -468q-41 -210 -260 -210q-81 0 -142 20q-50 -33 -129 -33q-26 0 -51 3t-38 6
l-12 3l26 136h44q2 -5 4 -13t5.5 -31t3.5 -43l5 -1l12 -2.5t15 -1.5q40 0 61.5 27.5t31.5 83.5l100 524h-85l12 60h85l6 32q39 201 258 201q88 0 155 -23q45 26 114 26q26 0 51.5 -3t37.5 -5zM435 440h-196l-98 -513q-10 -52 -37 -88q46 -21 104 -21t89.5 34t46.5 114z
M499 655q-46 22 -107 22q-57 0 -88.5 -33t-46.5 -110l-7 -34h196l12 58q11 59 41 97z" />
    <glyph glyph-name="f_j" unicode="fj" horiz-adv-x="590" 
d="M599 656q0 -31 -20 -51t-51 -20q-35 0 -53 27.5t-5 57.5q-22 24 -80 24q-101 0 -130 -149l-9 -45h305l-104 -546q-17 -89 -70 -137t-139 -67l-9 49q52 17 73 47.5t37 111.5l91 482h-196l-99 -514q-33 -177 -217 -177q-26 0 -51 3t-38 6l-12 3l26 136h44q2 -5 4 -13
t5.5 -31t3.5 -43q15 -5 32 -5q40 0 61.5 27.5t31.5 83.5l100 524h-85l12 60h85l6 27q22 110 91 166.5t178 56.5q83 0 132.5 -26t49.5 -68z" />
    <glyph glyph-name="f_jcircumflex" unicode="f&#x135;" horiz-adv-x="600" 
d="M437 723l-25 -132h-41q-15 42 -13 84q-11 7 -30 7q-16 0 -26.5 -8t-17.5 -25t-11.5 -37t-10.5 -51q-3 -15 -4 -22l-8 -39h316l-104 -546q-17 -89 -70 -137t-139 -67l-9 49q52 17 73 47.5t37 111.5l91 482h-206l-99 -514q-33 -177 -217 -177q-26 0 -51 3t-38 6l-12 3
l26 136h44q2 -5 4 -13t5.5 -31t3.5 -43q15 -5 32 -5q40 0 61.5 27.5t31.5 83.5l100 524h-85l12 60h85l8 40q21 100 62.5 148t132.5 48q26 0 49 -3t33 -7zM656 611l-42 -36l-64 70l-90 -68l-26 38l136 135z" />
    <glyph glyph-name="f_f_j" unicode="ffj" horiz-adv-x="895" 
d="M555 500h306l-104 -546q-17 -89 -70 -137t-139 -67l-9 49q52 17 73.5 48t36.5 111l92 482h-198l-89 -468q-41 -210 -260 -210q-81 0 -142 20q-50 -33 -129 -33q-26 0 -51 3t-38 6l-12 3l26 136h44q2 -5 4 -13t5.5 -31t3.5 -43q15 -5 32 -5q40 0 61.5 27.5t31.5 83.5
l100 524h-85l12 60h85l6 32q39 201 258 201q86 0 158 -24q64 41 157 41q84 0 133 -26t49 -68q0 -31 -20 -51t-51 -20q-34 0 -52 27.5t-6 57.5q-22 24 -80 24q-101 0 -130 -149zM435 440h-196l-98 -513q-10 -52 -37 -88q46 -21 104 -21t89.5 34t46.5 114zM506 653
q-52 24 -114 24q-57 0 -88.5 -33t-46.5 -110l-7 -34h196l6 27q14 71 54 126z" />
    <glyph glyph-name="f_f_jcircumflex" unicode="ff&#x135;" horiz-adv-x="905" 
d="M555 500h315l-103 -546q-17 -89 -70 -137t-140 -67l-9 49q52 17 73.5 48t36.5 111l92 482h-207l-89 -468q-41 -210 -260 -210q-81 0 -142 20q-50 -33 -129 -33q-26 0 -51 3t-38 6l-12 3l26 136h44q2 -5 4 -13t5.5 -31t3.5 -43q15 -5 32 -5q40 0 61.5 27.5t31.5 83.5
l100 524h-85l12 60h85l6 32q39 201 258 201q81 0 144 -21q37 24 99 24q26 0 49.5 -3t33.5 -7l10 -3l-25 -132h-42q-15 42 -13 84q-10 7 -29 7q-35 0 -49 -47q-5 -15 -21 -96zM435 440h-196l-98 -513q-10 -52 -37 -88q46 -21 104 -21t89.5 34t46.5 113zM496 656
q-44 21 -104 21q-57 0 -88.5 -33t-46.5 -110l-7 -34h196l7 34q15 81 43 122zM961 611l-42 -36l-65 70l-89 -68l-27 38l136 135z" />
    <glyph glyph-name="f_k" unicode="fk" horiz-adv-x="874" 
d="M855 402q0 -64 -56.5 -105t-161.5 -57l93 -171q33 -9 66 -30l-9 -39h-148l-124 238l-45 -238h-110l128 673q-43 14 -86 14q-63 0 -96 -33t-47 -108l-9 -46h109l-12 -60h-108l-99 -514q-33 -177 -217 -177q-26 0 -51 3t-38 6l-12 3l26 136h44q2 -5 4 -13t5.5 -31t3.5 -43
q15 -5 32 -5q40 0 61.5 27.5t31.5 83.5l100 524h-85l12 60h85l7 39q21 105 85 155.5t184 50.5q43 0 91 -4.5t74 -8.5l26 -5l-29 -149q-18 -89 -56 -199l2 -1q64 131 188 131q63 0 102 -29.5t39 -77.5zM738 388q0 25 -15 40.5t-44 15.5q-49 0 -92 -52.5t-63 -120.5
q214 28 214 117z" />
    <glyph glyph-name="f_f_k" unicode="ffk" horiz-adv-x="1178" 
d="M1159 402q0 -64 -57 -105t-161 -57l93 -171q33 -9 66 -30l-9 -39h-148l-124 238l-45 -238h-110l128 673q-43 14 -86 14q-63 0 -95.5 -33t-46.5 -108l-9 -46h108l-12 -60h-108l-89 -468q-41 -210 -260 -210q-81 0 -142 20q-50 -33 -129 -33q-26 0 -51 3t-38 6l-12 3
l26 136h44q2 -5 4 -13t5.5 -31t3.5 -43q15 -5 32 -5q40 0 61.5 27.5t31.5 83.5l100 524h-85l12 60h85l6 32q39 201 258 201q92 0 153 -25q61 37 164 37q43 0 90 -4.5t73 -8.5l26 -5l-28 -149q-18 -89 -56 -199l2 -1q64 131 188 131q63 0 102 -29.5t39 -77.5zM435 440h-196
l-98 -513q-10 -52 -37 -88q46 -21 104 -21t89.5 34t46.5 114zM502 653q-44 24 -110 24q-57 0 -88.5 -33t-46.5 -110l-7 -34h196l8 40q12 64 48 113zM1042 388q0 25 -15 40.5t-44 15.5q-49 0 -92 -52.5t-63 -120.5q214 28 214 117z" />
    <glyph glyph-name="f_t" unicode="ft" horiz-adv-x="685" 
d="M436 599h-45q-1 5 -3 12.5t-5 28.5t-2 37q-15 5 -31 5q-35 0 -55 -27.5t-31 -82.5l-14 -72h205l71 146h64l-27 -146h130l-12 -60h-130l-54 -286q-10 -45 -4 -65t32 -20q41 0 80 24l11 -50q-72 -52 -138 -52q-64 0 -85.5 39.5t-6.5 117.5l56 292h-203l-99 -514
q-33 -177 -217 -177q-26 0 -51 3t-38 6l-12 3l26 136h44q2 -5 4 -13t5.5 -31t3.5 -43q15 -5 32 -5q40 0 61.5 27.5t31.5 83.5l100 524h-85l12 60h85l12 61q35 177 210 177q24 0 48 -3t36 -6l12 -3z" />
    <glyph glyph-name="f_f_t" unicode="fft" horiz-adv-x="988" 
d="M744 440h-201l-88 -460q-42 -218 -261 -218q-81 0 -142 20q-50 -33 -129 -33q-26 0 -51 3t-38 6l-12 3l26 136h44q2 -5 4 -13t5.5 -31t3.5 -43q15 -5 32 -5q40 0 61.5 27.5t31.5 83.5l100 524h-85l12 60h85l6 32q39 201 258 201q92 0 153 -25q61 37 164 37q105 0 181 -36
l-39 -209h130l-11 -60h-131l-54 -286q-9 -45 -3.5 -65t31.5 -20q40 0 81 24l11 -50q-74 -52 -139 -52q-64 0 -85.5 39.5t-6.5 118.5zM555 500h200l33 167q-32 20 -82 20q-63 0 -95.5 -33t-46.5 -108zM502 653q-44 24 -110 24q-57 0 -88.5 -33t-46.5 -110l-7 -34h196l8 40
q12 64 48 113zM435 440h-196l-98 -513q-10 -52 -37 -88q46 -21 104 -21t90 35t48 121z" />
    <glyph glyph-name="f_f" unicode="ff" horiz-adv-x="639" 
d="M778 734l-26 -136h-44q-2 5 -4 13t-5.5 31t-3.5 43q-15 5 -32 5q-40 0 -61 -27.5t-32 -83.5l-15 -79h123l-11 -60h-124l-89 -468q-41 -210 -260 -210q-81 0 -142 20q-50 -33 -129 -33q-26 0 -51 3t-38 6l-12 3l26 136h44q2 -5 4 -13t5.5 -31t3.5 -43q15 -5 32 -5
q40 0 61.5 27.5t31.5 83.5l100 524h-85l12 60h85l6 32q39 201 258 201q80 0 142 -19q51 32 129 32q26 0 51 -3t38 -6zM250 500h196l14 68q8 51 36 88q-44 21 -104 21q-57 0 -88.5 -33t-46.5 -110zM435 440h-196l-98 -513q-10 -52 -37 -88q46 -21 104 -21t89.5 34t46.5 114z
" />
    <glyph glyph-name="f_i" unicode="fi" horiz-adv-x="601" 
d="M251 500h301l-81 -429q24 -11 65 -20l-8 -40q-8 -2 -23.5 -5t-62.5 -7t-94 -3l84 444h-193l-99 -514q-33 -177 -217 -177q-26 0 -51 3t-38 6l-12 3l26 136h44q2 -5 4 -13t5.5 -31t3.5 -43q15 -5 32 -5q40 0 61.5 27.5t31.5 83.5l100 524h-85l12 60h85l6 27
q22 110 91 166.5t178 56.5q81 0 130 -26t49 -68q0 -31 -20 -51t-52 -20q-34 0 -52 27.5t-6 58.5q-21 23 -76 23q-101 0 -130 -148z" />
    <glyph glyph-name="f_l" unicode="fl" horiz-adv-x="613" 
d="M607 727l-125 -656q28 -12 64 -19l-7 -41q-9 -2 -24.5 -5t-63 -7t-92.5 -2l128 676q-43 14 -85 14q-63 0 -96 -33t-47 -108l-9 -46h109l-12 -60h-108l-99 -514q-33 -177 -217 -177q-26 0 -51 3t-38 6l-12 3l26 136h44q2 -5 4 -13t5.5 -31t3.5 -43q15 -5 32 -5
q40 0 61.5 27.5t31.5 83.5l100 524h-85l12 60h85l7 39q21 105 85 155.5t184 50.5q43 0 90 -4.5t73 -8.5z" />
    <glyph glyph-name="f_lacute" unicode="f&#x13a;" horiz-adv-x="613" 
d="M607 727l-125 -656q28 -12 64 -19l-7 -41q-9 -2 -24.5 -5t-63 -7t-92.5 -2l128 676q-43 14 -85 14q-63 0 -96 -33t-47 -108l-9 -46h109l-12 -60h-108l-99 -514q-33 -177 -217 -177q-26 0 -51 3t-38 6l-12 3l26 136h44q2 -5 4 -13t5.5 -31t3.5 -43q15 -5 32 -5
q40 0 61.5 27.5t31.5 83.5l100 524h-85l12 60h85l7 39q21 105 85 155.5t184 50.5q43 0 90 -4.5t73 -8.5zM712 844l-204 -63l-16 44l188 102z" />
    <glyph glyph-name="f_lcaron" unicode="f&#x13e;" horiz-adv-x="648" 
d="M607 727l-125 -656q28 -12 64 -19l-7 -41q-9 -2 -24.5 -5t-63 -7t-92.5 -2l128 676q-43 14 -85 14q-63 0 -96 -33t-47 -108l-9 -46h109l-12 -60h-108l-99 -514q-33 -177 -217 -177q-26 0 -51 3t-38 6l-12 3l26 136h44q2 -5 4 -13t5.5 -31t3.5 -43q15 -5 32 -5
q40 0 61.5 27.5t31.5 83.5l100 524h-85l12 60h85l7 39q21 105 85 155.5t184 50.5q43 0 90 -4.5t73 -8.5zM777 774l-121 -196l-41 14l82 208z" />
    <glyph glyph-name="f_lcommaaccent" unicode="f&#x13c;" horiz-adv-x="613" 
d="M607 727l-125 -656q28 -12 64 -19l-7 -41q-9 -2 -24.5 -5t-63 -7t-92.5 -2l128 676q-43 14 -85 14q-63 0 -96 -33t-47 -108l-9 -46h109l-12 -60h-108l-99 -514q-33 -177 -217 -177q-26 0 -51 3t-38 6l-12 3l26 136h44q2 -5 4 -13t5.5 -31t3.5 -43q15 -5 32 -5
q40 0 61.5 27.5t31.5 83.5l100 524h-85l12 60h85l7 39q21 105 85 155.5t184 50.5q43 0 90 -4.5t73 -8.5zM448 -100q0 -47 -44 -88.5t-126 -67.5l-13 42q89 45 78 112q-5 23 9.5 40.5t39.5 17.5q26 0 41 -15.5t15 -40.5z" />
    <glyph glyph-name="f_tcommaaccent" unicode="f&#x21b;" horiz-adv-x="685" 
d="M436 599h-45q-1 5 -3 12.5t-5 28.5t-2 37q-15 5 -31 5q-35 0 -55 -27.5t-31 -82.5l-14 -72h205l71 146h64l-27 -146h130l-12 -60h-130l-54 -286q-10 -45 -4 -65t32 -20q41 0 80 24l11 -50q-72 -52 -138 -52q-64 0 -85.5 39.5t-6.5 117.5l56 292h-203l-99 -514
q-33 -177 -217 -177q-26 0 -51 3t-38 6l-12 3l26 136h44q2 -5 4 -13t5.5 -31t3.5 -43q15 -5 32 -5q40 0 61.5 27.5t31.5 83.5l100 524h-85l12 60h85l12 61q35 177 210 177q24 0 48 -3t36 -6l12 -3zM501 -100q0 -47 -44 -88.5t-126 -67.5l-13 42q89 45 78 112q-5 23 9.5 40.5
t39.5 17.5q26 0 41 -15.5t15 -40.5z" />
    <glyph glyph-name="f_tcaron" unicode="f&#x165;" horiz-adv-x="698" 
d="M790 774l-121 -196l-41 14l82 208zM436 599h-45q-1 5 -3 12.5t-5 28.5t-2 37q-15 5 -31 5q-35 0 -55 -27.5t-31 -82.5l-14 -72h205l71 146h64l-27 -146h130l-12 -60h-130l-54 -286q-10 -45 -4 -65t32 -20q41 0 80 24l11 -50q-72 -52 -138 -52q-64 0 -85.5 39.5
t-6.5 117.5l56 292h-203l-99 -514q-33 -177 -217 -177q-26 0 -51 3t-38 6l-12 3l26 136h44q2 -5 4 -13t5.5 -31t3.5 -43q15 -5 32 -5q40 0 61.5 27.5t31.5 83.5l100 524h-85l12 60h85l12 61q35 177 210 177q24 0 48 -3t36 -6l12 -3z" />
    <glyph glyph-name=".notdef" horiz-adv-x="550" 
d="M300 150h-150v250h50v-200h100v-50zM500 50h-450v450h450v-450zM350 350h-100v50h150v-250h-50v100h-100v50h100v50zM100 100h350v350h-350v-350z" />
    <glyph glyph-name=".null" 
 />
    <glyph glyph-name=".null" 
 />
    <glyph glyph-name="nonmarkingreturn" horiz-adv-x="333" 
 />
    <glyph glyph-name="CR" unicode="&#xd;" horiz-adv-x="490" 
 />
    <glyph glyph-name="space" unicode=" " horiz-adv-x="218" 
 />
    <glyph glyph-name="exclam" unicode="!" horiz-adv-x="302" 
d="M296 708l-132 -517h-65l73 517h124zM179 63q0 -32 -21 -52t-52 -20q-30 0 -47.5 18t-17.5 46q0 31 20.5 52t51.5 21q30 0 48 -18.5t18 -46.5z" />
    <glyph glyph-name="quotedbl" unicode="&#x22;" horiz-adv-x="363" 
d="M402 741l-68 -233h-49l21 233h96zM236 741l-68 -233h-50l21 233h97z" />
    <glyph glyph-name="numbersign" unicode="#" horiz-adv-x="677" 
d="M681 449h-140l-61 -204h135l-10 -56h-141l-56 -189h-87l55 189h-140l-55 -189h-87l56 189h-137l10 56h143l60 204h-137l12 56h142l50 170h87l-50 -170h140l49 170h88l-50 -170h135zM453 449h-140l-60 -204h140z" />
    <glyph glyph-name="dollar" unicode="$" horiz-adv-x="558" 
d="M415 765l-23 -98q73 -1 135 -17l-30 -156h-44q-16 46 -16 97q-22 7 -60 10l-48 -212q80 -30 120.5 -63.5t40.5 -94.5q0 -90 -73 -148t-175 -70l-28 -124h-60l27 121q-99 0 -156 18l33 169h44q12 -54 15 -99q24 -15 79 -20l52 224q-75 28 -112 62.5t-37 94.5
q0 90 65.5 143t166.5 63l23 100h61zM387 199q0 29 -20.5 48.5t-61.5 36.5l-47 -203q65 5 97 38.5t32 79.5zM199 494q0 -49 74 -84l43 190q-55 -4 -86 -33.5t-31 -72.5z" />
    <glyph glyph-name="percent" unicode="%" horiz-adv-x="803" 
d="M206 327q-55 0 -88 32t-33 92q0 92 54.5 162t145.5 70q55 0 87.5 -32t32.5 -92q0 -92 -54 -162t-145 -70zM265 626q-32 0 -54.5 -30t-31.5 -66.5t-9 -71.5q0 -74 55 -74q32 0 54.5 30t31.5 66.5t9 71.5q0 74 -55 74zM761 665l-651 -692l-39 37l650 692zM543 -8
q-55 0 -88 32t-33 92q0 92 54.5 162t145.5 70q55 0 87.5 -32t32.5 -92q0 -92 -54 -162t-145 -70zM602 291q-32 0 -54.5 -30t-31.5 -66.5t-9 -71.5q0 -74 55 -74q32 0 54.5 30t31.5 66.5t9 71.5q0 74 -55 74z" />
    <glyph glyph-name="ampersand" unicode="&#x26;" horiz-adv-x="776" 
d="M746 451l-7 -36q-28 -21 -64 -29q-32 -139 -122 -240l76 -77q33 -12 57 -28l-6 -41h-142l-72 72q-114 -82 -246 -82q-92 0 -141.5 43.5t-49.5 117.5q0 76 45.5 127.5t130.5 105.5q-59 97 -59 167q0 68 56 127t160 59q68 0 109.5 -32t41.5 -83q0 -35 -14 -66t-44 -60.5
t-54.5 -48l-68.5 -49.5q54 -78 174 -207q62 78 79 195q-21 4 -56 29l8 36h209zM409 614q0 26 -16 45.5t-51 19.5q-34 0 -61.5 -30t-27.5 -73q0 -56 46 -132q52 38 81 78t29 92zM419 118q-105 112 -179 216q-101 -79 -101 -160q0 -53 37.5 -80.5t90.5 -27.5q81 0 152 52z" />
    <glyph glyph-name="quotesingle" unicode="'" horiz-adv-x="197" 
d="M236 741l-68 -233h-50l21 233h97z" />
    <glyph glyph-name="parenleft" unicode="(" horiz-adv-x="303" 
d="M367 748q-108 -139 -165 -314t-57 -339q0 -150 48 -271l-61 -30q-85 162 -85 335q0 171 69.5 336.5t201.5 311.5z" />
    <glyph glyph-name="parenright" unicode=")" horiz-adv-x="303" 
d="M263 443q0 -173 -71 -339t-201 -310l-48 29q105 135 163.5 312.5t58.5 338.5q0 149 -48 273l61 30q85 -163 85 -334z" />
    <glyph glyph-name="asterisk" unicode="*" horiz-adv-x="368" 
d="M394 629l-125 -45l108 -45l-46 -61l-80 80l-5 -125h-69l44 125l-111 -80l-22 60l125 45l-108 45l46 61l80 -80l4 125h69l-43 -125l111 80z" />
    <glyph glyph-name="plus" unicode="+" horiz-adv-x="550" 
d="M511 235h-200l-41 -213h-86l41 213h-200l15 75h200l39 212h87l-40 -212h200z" />
    <glyph glyph-name="comma" unicode="," horiz-adv-x="236" 
d="M77 130q30 0 48 -19t18 -52q0 -106 -165 -212l-29 35q78 58 78 115q0 12 -8 29.5t-8 33.5q0 30 18.5 50t47.5 20z" />
    <glyph glyph-name="hyphen" unicode="-" horiz-adv-x="311" 
d="M280 326l-15 -79h-230l16 79h229z" />
    <glyph glyph-name="hyphen" unicode="&#xad;" horiz-adv-x="311" 
d="M280 326l-15 -79h-230l16 79h229z" />
    <glyph glyph-name="period" unicode="." horiz-adv-x="239" 
d="M149 65q0 -33 -20.5 -54t-52.5 -21q-30 0 -49 20t-19 50q0 31 21 52.5t52 21.5q30 0 49 -19.5t19 -49.5z" />
    <glyph glyph-name="slash" unicode="/" horiz-adv-x="441" 
d="M516 743l-519 -921l-76 31l520 922z" />
    <glyph glyph-name="zero" unicode="0" horiz-adv-x="639" 
d="M261 -10q-101 0 -156.5 59.5t-55.5 173.5q0 123 44.5 228t126.5 169.5t184 64.5q100 0 155.5 -59.5t55.5 -173.5q0 -122 -44 -227.5t-126 -170t-184 -64.5zM506 441q0 77 -31.5 120.5t-95.5 43.5q-56 0 -100.5 -39.5t-69.5 -99t-37.5 -120t-12.5 -112.5
q0 -77 31.5 -120.5t95.5 -43.5q56 0 100.5 39.5t69.5 99t37.5 120t12.5 112.5z" />
    <glyph glyph-name="one" unicode="1" horiz-adv-x="375" 
d="M288 0h-297l8 41q66 27 113 34l98 516l-113 -44l-10 47l173 87h77l-115 -606q39 -13 73 -34z" />
    <glyph glyph-name="two" unicode="2" horiz-adv-x="490" 
d="M99 83h225q26 53 56 93h49l-40 -176h-410l12 67l193 195q100 101 136.5 163.5t36.5 110.5q0 83 -83 83q-16 0 -33.5 -4.5t-26.5 -8.5l-10 -5q-10 -24 -24.5 -47.5t-23.5 -35.5l-10 -12h-48l34 144q81 35 171 35q87 0 130.5 -36.5t43.5 -99.5q0 -62 -44.5 -127.5
t-167.5 -179.5l-165 -158z" />
    <glyph glyph-name="three" unicode="3" horiz-adv-x="474" 
d="M287 685q84 0 126.5 -34.5t42.5 -93.5q0 -63 -43.5 -113t-119.5 -74v-1q59 -7 91.5 -42.5t32.5 -91.5q0 -102 -87.5 -173t-221.5 -71q-80 0 -135 20l34 81q60 -33 128 -33q76 0 117 44.5t41 111.5q0 56 -51.5 84t-151.5 16l11 60q108 0 174.5 45t66.5 129q0 72 -81 72
q-30 0 -58 -14q-22 -51 -55 -90h-47l31 138q76 30 155 30z" />
    <glyph glyph-name="four" unicode="4" horiz-adv-x="532" 
d="M494 168h-111l-19 -96q39 -13 70 -33l-7 -39h-263l8 39q42 23 84 33l18 96h-266v74l343 433h129l-81 -425h112zM291 250l64 337h-1l-265 -337h202z" />
    <glyph glyph-name="five" unicode="5" horiz-adv-x="451" 
d="M97 -9q-71 0 -122 16l32 82q46 -28 111 -28q74 0 121.5 48.5t47.5 120.5q0 52 -39.5 83t-117.5 31l-54 -3l89 334h287l-18 -93h-220l-42 -151q113 0 172.5 -50t59.5 -128q0 -108 -91.5 -185t-215.5 -77z" />
    <glyph glyph-name="six" unicode="6" horiz-adv-x="557" 
d="M227 -10q-89 0 -137 51t-48 148q0 55 11.5 116t42 130.5t76.5 123.5t123 90t173 36q49 0 83 -7l-20 -67q-35 10 -78 10q-91 0 -158 -61t-103 -166q-15 -38 -18 -44l1 -1q64 86 170 86q79 0 124 -43.5t45 -118.5q0 -115 -81 -199t-206 -84zM400 257q0 51 -25.5 80
t-72.5 29q-64 0 -108 -62t-44 -131q0 -53 25 -86t75 -33t86 34.5t50 79t14 89.5z" />
    <glyph glyph-name="seven" unicode="7" horiz-adv-x="458" 
d="M513 675l-15 -77q-141 -221 -322 -598h-119q138 265 351 584h-241q-22 -48 -51 -84h-49l41 175h405z" />
    <glyph glyph-name="eight" unicode="8" horiz-adv-x="540" 
d="M531 552q0 -36 -13 -66t-39.5 -53.5t-51 -39.5t-62.5 -35q53 -32 82.5 -67.5t29.5 -86.5q0 -70 -43.5 -121t-102 -72.5t-119.5 -21.5q-94 0 -141 38.5t-47 100.5q0 74 46.5 121.5t127.5 89.5q-97 60 -97 141q0 83 66.5 144.5t184.5 61.5q87 0 133 -38t46 -96zM424 544
q0 35 -24 57t-68 22q-54 0 -88 -36t-34 -83q0 -36 24.5 -60t71.5 -50q56 31 87 65t31 85zM364 182q0 20 -7.5 37t-25 32.5t-32 25.5t-41.5 25q-60 -36 -92 -73.5t-32 -90.5q0 -38 25.5 -61t75.5 -23t89.5 35.5t39.5 92.5z" />
    <glyph glyph-name="nine" unicode="9" horiz-adv-x="557" 
d="M136 -10q-68 0 -120 13l25 77q64 -22 119 -22q79 0 138 58t92 166l17 42l-1 1q-65 -88 -171 -88q-80 0 -124 43t-44 118q0 49 18 98.5t52 92t91 69.5t126 27q91 0 139 -51.5t48 -148.5q0 -54 -11.5 -115.5t-41.5 -130t-74 -123t-116.5 -90.5t-161.5 -36zM431 503
q0 52 -25 84.5t-75 32.5t-86 -35.5t-50.5 -80.5t-14.5 -90q0 -50 26 -78t72 -28q70 0 111.5 60t41.5 135z" />
    <glyph glyph-name="colon" unicode=":" horiz-adv-x="295" 
d="M250 361q0 -32 -21 -53t-52 -21q-30 0 -49 19.5t-19 49.5q0 31 21 52.5t52 21.5q30 0 49 -19.5t19 -49.5zM192 65q0 -33 -21 -54t-52 -21q-30 0 -49 20t-19 50q0 31 21 52.5t52 21.5q30 0 49 -19.5t19 -49.5z" />
    <glyph glyph-name="semicolon" unicode=";" horiz-adv-x="295" 
d="M250 361q0 -32 -21 -53t-52 -21q-30 0 -49 19.5t-19 49.5q0 31 21 52.5t52 21.5q30 0 49 -19.5t19 -49.5zM118 130q30 0 48 -19t18 -52q0 -53 -43.5 -107.5t-120.5 -104.5l-30 35q78 58 78 115q0 12 -8 29.5t-8 33.5q0 30 18.5 50t47.5 20z" />
    <glyph glyph-name="less" unicode="&#x3c;" horiz-adv-x="550" 
d="M408 50l-72 -63l-263 285l372 289l49 -63l-300 -229z" />
    <glyph glyph-name="equal" unicode="=" horiz-adv-x="550" 
d="M508 327h-446l15 77h447zM473 139h-446l14 77h447z" />
    <glyph glyph-name="greater" unicode="&#x3e;" horiz-adv-x="550" 
d="M478 277l-371 -289l-52 63l301 229l-212 218l72 64z" />
    <glyph glyph-name="question" unicode="?" horiz-adv-x="415" 
d="M409 545q0 -40 -17.5 -71.5t-43.5 -50.5l-55.5 -42t-53 -45t-36.5 -59.5t-6 -85.5h-94q-9 54 8.5 96.5t48.5 69.5t63.5 50.5t56 53t23.5 64.5q0 40 -46.5 67t-118.5 32l31 93q98 -5 169 -52t71 -120zM205 63q0 -32 -20.5 -52t-52.5 -20q-30 0 -47.5 18t-17.5 46
q0 31 21 52t52 21q29 0 47 -18.5t18 -46.5z" />
    <glyph glyph-name="at" unicode="@" horiz-adv-x="975" 
d="M919 428q0 -148 -82.5 -241.5t-190.5 -93.5q-54 0 -81 32t-15 88q-23 -45 -72.5 -82.5t-98.5 -37.5q-44 0 -68 29t-24 83q0 127 72 217.5t194 90.5q67 0 126 -13l-53 -215q-15 -56 -3 -93t52 -37q55 0 102 67.5t47 181.5q0 109 -66 179t-202 70q-111 0 -203.5 -63.5
t-142.5 -163t-50 -208.5q0 -130 75 -205.5t214 -75.5q97 0 180 30l15 -55q-119 -50 -240 -50q-159 0 -250.5 88.5t-91.5 240.5q0 138 70.5 260.5t193.5 197t265 74.5q160 0 244 -82.5t84 -212.5zM579 448q-26 7 -58 7q-57 0 -99 -69t-42 -146q0 -76 39 -76q38 0 79 60.5
t64 153.5z" />
    <glyph glyph-name="A" unicode="A" horiz-adv-x="658" 
d="M595 0h-243l7 38q33 21 77 34l-17 104h-241l-52 -104q29 -11 57 -34l-7 -38h-215l7 39q23 18 60 33l333 608h91l101 -609q32 -16 49 -33zM410 235l-50 316h-1l-155 -316h206z" />
    <glyph glyph-name="B" unicode="B" horiz-adv-x="605" 
d="M594 551q0 -68 -46 -119.5t-109 -64.5v-1q56 -8 88.5 -43t32.5 -90q0 -98 -85.5 -167t-224.5 -69q-19 0 -86 1.5t-103 1.5h-79l6 39q44 22 84 34l101 529q-41 15 -70 35l8 38h77q21 0 88 2t110 2q208 0 208 -128zM474 535q0 40 -25.5 62t-90.5 22q-40 0 -71 -5l-44 -234
q14 -1 63 -1q77 0 122.5 43.5t45.5 112.5zM440 225q0 50 -39 74t-107 24q-49 0 -63 -1l-47 -250q44 -13 79 -13q87 0 132 50t45 116z" />
    <glyph glyph-name="C" unicode="C" horiz-adv-x="593" 
d="M497 114l12 -57q-93 -67 -211 -67q-135 0 -197 66t-62 177q0 85 26.5 164.5t75.5 143.5t126.5 103t171.5 39q91 0 168 -20l-34 -174h-51q-13 46 -13 102q-38 19 -96 19q-63 0 -113 -35.5t-78.5 -91.5t-43 -116t-14.5 -117q0 -82 42.5 -129.5t129.5 -47.5q85 0 161 41z
" />
    <glyph glyph-name="D" unicode="D" horiz-adv-x="709" 
d="M696 444q0 -66 -16 -128.5t-51.5 -121t-86.5 -102.5t-126 -70t-165 -26q-45 0 -108 2t-83 2h-78l6 39q48 24 84 34l101 529q-36 11 -71 35l8 38h78q23 0 97 2t113 2q298 0 298 -235zM577 438q0 87 -50.5 134t-151.5 47q-31 0 -88 -5l-102 -537q44 -14 105 -14
q126 0 206.5 111.5t80.5 263.5z" />
    <glyph glyph-name="E" unicode="E" horiz-adv-x="533" 
d="M421 0h-439l6 39q46 24 84 34l101 529q-32 10 -71 35l8 38h437l-30 -155h-50q-15 56 -15 94h-165l-46 -238h133q19 36 42 64h43l-35 -184h-43q-14 27 -17 63h-133l-49 -256h167q17 46 52 99h50z" />
    <glyph glyph-name="F" unicode="F" horiz-adv-x="504" 
d="M512 519h-50q-15 66 -15 95h-160l-47 -246h131q20 37 43 65h43l-35 -187h-44q-14 36 -17 65h-132l-46 -238q37 -12 75 -34l-7 -39h-269l6 39q46 24 84 34l101 529q-32 10 -71 35l8 38h432z" />
    <glyph glyph-name="G" unicode="G" horiz-adv-x="692" 
d="M676 344l-7 -41q-33 -23 -64 -34l-41 -220q-128 -59 -254 -59q-131 0 -200 64.5t-69 191.5q0 59 13.5 117.5t46 117t80.5 103.5t122 73t164 28q109 0 200 -25l-33 -171h-51q-13 46 -15 99q-55 26 -131 26q-72 0 -127 -34t-85.5 -89t-45.5 -115t-15 -121q0 -92 47.5 -140
t140.5 -48q57 0 106 17l35 184q-36 12 -67 36l7 40h243z" />
    <glyph glyph-name="H" unicode="H" horiz-adv-x="764" 
d="M681 0h-261l8 39q43 24 76 34l47 243h-321l-47 -243q26 -8 66 -34l-8 -39h-259l6 39q54 26 84 34l101 529q-26 8 -71 35l8 38h260l-8 -38q-48 -26 -77 -35l-42 -218h321l42 218q-23 8 -65 35l8 38h260l-8 -38q-56 -27 -83 -35l-102 -529q29 -9 72 -34z" />
    <glyph glyph-name="I" unicode="I" horiz-adv-x="332" 
d="M248 0h-266l6 39q41 22 84 34l101 529q-17 6 -34.5 14.5t-26.5 14.5l-10 6l8 38h266l-8 -38q-40 -22 -83 -35l-102 -529q17 -5 35 -13.5t28 -14.5l9 -6z" />
    <glyph glyph-name="J" unicode="J" horiz-adv-x="314" 
d="M358 675l-8 -38q-38 -25 -71 -35l-98 -515q-18 -98 -64.5 -150.5t-138.5 -97.5l-30 55q54 31 79.5 70t43.5 134l96 504q-29 9 -70 35l8 38h253z" />
    <glyph glyph-name="K" unicode="K" horiz-adv-x="675" 
d="M710 675l-8 -39q-37 -22 -70 -35l-287 -231l212 -296q35 -16 58 -35l-7 -39h-265l7 39q44 26 66 34l-182 262l-50 -262q27 -9 62 -34l-7 -39h-257l6 39q57 27 84 34l101 529q-26 8 -71 35l8 38h253l-8 -38q-27 -19 -70 -35l-46 -239l269 239q-26 13 -48 35l8 38h242z" />
    <glyph glyph-name="L" unicode="L" horiz-adv-x="509" 
d="M432 0h-450l6 39q54 26 84 34l101 529q-26 8 -71 35l8 38h266l-7 -38q-51 -26 -84 -35l-103 -539l179 8q12 34 54 109h50z" />
    <glyph glyph-name="M" unicode="M" horiz-adv-x="919" 
d="M843 0h-242l7 38q43 27 76 37l37 470h-1l-295 -545h-75l-96 540h-1l-123 -467q35 -12 61 -35l-7 -38h-209l7 39q34 23 58 34l167 527q-32 13 -67 37l8 38h197l90 -507l280 507h208l-8 -38q-48 -27 -81 -37l-30 -526q27 -16 46 -35z" />
    <glyph glyph-name="N" unicode="N" horiz-adv-x="711" 
d="M559 -6h-79l-253 556l-71 -474q34 -14 65 -37l-7 -39h-232l7 39q58 30 81 37l106 526q-34 9 -73 35l8 38h188l228 -496l65 420q-24 10 -60 38l8 38h210l-8 -38q-50 -31 -68 -38z" />
    <glyph glyph-name="O" unicode="O" horiz-adv-x="724" 
d="M710 435q0 -87 -28.5 -167t-80.5 -142t-130.5 -99t-171.5 -37q-127 0 -193.5 68t-66.5 182q0 87 28.5 167t80.5 142t130.5 99t171.5 37q128 0 194 -68t66 -182zM586 419q0 91 -44.5 143t-125.5 52q-64 0 -114.5 -35t-79 -90.5t-43.5 -115.5t-15 -117q0 -90 44.5 -142
t125.5 -52q64 0 114.5 35t79 90t43.5 115t15 117z" />
    <glyph glyph-name="P" unicode="P" horiz-adv-x="580" 
d="M593 521q0 -86 -48.5 -150.5t-118 -94.5t-144.5 -30l-65 2l-34 -175q19 -6 37.5 -14.5t27.5 -14.5l9 -5l-7 -39h-269l7 39q41 22 84 34l101 529q-16 5 -34 14t-27 15l-10 6l8 38h68q16 0 88 2t114 2q106 0 159.5 -41.5t53.5 -116.5zM476 514q0 48 -31 76.5t-90 28.5
q-32 0 -68 -6l-55 -289q35 -13 72 -13q82 0 127 61t45 142z" />
    <glyph glyph-name="Q" unicode="Q" horiz-adv-x="724" 
d="M710 435q0 -162 -84.5 -273.5t-197.5 -139.5q53 2 97 -11.5t68 -30.5t53.5 -31.5t55.5 -14.5q13 0 29 4l8 -43q-51 -30 -107 -30q-47 0 -90 19.5t-72 43t-75 43t-99 19.5q-125 0 -191 68.5t-66 181.5q0 87 28.5 167t80.5 142t130.5 99t171.5 37q128 0 194 -68t66 -182z
M586 419q0 91 -44.5 143t-125.5 52q-64 0 -114.5 -35t-79 -90.5t-43.5 -115.5t-15 -117q0 -90 44.5 -142t125.5 -52q64 0 114.5 35t79 90t43.5 115t15 117z" />
    <glyph glyph-name="R" unicode="R" horiz-adv-x="614" 
d="M559 52l-1 -47q-49 -16 -93 -16q-34 0 -53.5 32t-27.5 78.5l-16 92.5t-27.5 78t-53.5 32h-60l-44 -229q15 -6 30.5 -14.5t22.5 -14.5l8 -5l-7 -39h-255l6 39q41 22 84 34l101 529q-17 6 -34.5 14.5t-26.5 14.5l-10 6l8 38h70q14 0 86 2t121 2q100 0 151.5 -37t51.5 -104
q0 -84 -51 -136t-134 -73q32 -6 50.5 -39.5t24.5 -75t12.5 -81.5t22 -63.5t44.5 -17.5zM471 527q0 45 -29.5 68.5t-85.5 23.5l-69 -6l-48 -251h67q80 0 122.5 49.5t42.5 115.5z" />
    <glyph glyph-name="S" unicode="S" horiz-adv-x="495" 
d="M485 670l-31 -166h-50q-18 51 -16 98q-33 10 -69 10q-56 0 -83 -32t-27 -77q0 -33 23.5 -61t56.5 -49.5l66 -45t56.5 -59.5t23.5 -81q0 -96 -83.5 -156.5t-192.5 -60.5q-80 0 -153 19l35 183h51q13 -54 15 -103q38 -19 85 -19q61 0 92 32t31 79q0 34 -23.5 63t-56.5 50.5
l-66 45t-56.5 59t-23.5 79.5q0 93 76 150t184 57q68 0 136 -15z" />
    <glyph glyph-name="T" unicode="T" horiz-adv-x="567" 
d="M595 505h-46q-17 52 -19 109h-126l-102 -541q19 -6 38.5 -14.5t29.5 -14.5l9 -5l-7 -39h-279l7 39q42 22 90 35l103 540h-125q-10 -25 -25 -52t-25 -42l-10 -15h-46l32 170h534z" />
    <glyph glyph-name="U" unicode="U" horiz-adv-x="710" 
d="M756 675l-8 -38q-38 -27 -69 -37l-67 -341q-24 -129 -106 -199.5t-207 -70.5q-135 0 -184 71t-28 183l68 359q-32 12 -53 35l8 38h244l-8 -38q-44 -25 -79 -35l-68 -357q-34 -182 128 -182q85 0 136 51t67 146l61 340q-28 8 -65 37l8 38h222z" />
    <glyph glyph-name="V" unicode="V" horiz-adv-x="654" 
d="M320 -5h-91l-101 609q-26 12 -47 33l8 38h242l-8 -38q-39 -23 -77 -34l75 -477h2l231 477q-26 9 -58 34l8 38h215l-7 -38q-30 -22 -60 -34z" />
    <glyph glyph-name="W" unicode="W" horiz-adv-x="930" 
d="M998 675l-8 -38q-26 -23 -59 -36l-271 -606h-97l-54 520h-1l-231 -520h-104l-46 607q-21 10 -46 35l8 38h238l-8 -38q-31 -21 -76 -35l30 -456h1l235 532h94l57 -532h1l174 455q-35 12 -62 36l8 38h217z" />
    <glyph glyph-name="X" unicode="X" horiz-adv-x="662" 
d="M598 0h-264l7 39q35 22 72 36l-95 210l-173 -210q18 -7 56 -36l-7 -39h-233l7 39q27 20 67 36l246 261l-130 265q-27 11 -56 36l8 38h265l-8 -38q-34 -23 -74 -37l89 -191l155 191q-28 13 -56 37l8 38h230l-8 -38q-28 -19 -66 -35l-228 -244l139 -284q23 -10 56 -35z" />
    <glyph glyph-name="Y" unicode="Y" horiz-adv-x="584" 
d="M384 39l-7 -39h-267l8 39q50 25 83 34l40 205l-121 326q-24 12 -42 33l8 38h232l-8 -38q-30 -22 -67 -33l89 -251h1l161 249q-30 12 -55 35l8 38h205l-7 -38q-24 -21 -54 -35l-239 -324l-39 -205q27 -8 71 -34z" />
    <glyph glyph-name="Z" unicode="Z" horiz-adv-x="542" 
d="M579 675l-12 -61l-437 -551l253 8q24 55 59 105h49l-32 -176h-473l11 61l437 551l-235 -6q-26 -59 -60 -102h-48l38 171h450z" />
    <glyph glyph-name="bracketleft" unicode="[" horiz-adv-x="327" 
d="M206 -199h-218l185 971h218l-7 -38q-58 -22 -128 -32l-158 -832q63 -7 115 -31z" />
    <glyph glyph-name="backslash" unicode="\" horiz-adv-x="411" 
d="M348 -160l-84 -18l-171 935l83 18z" />
    <glyph glyph-name="bracketright" unicode="]" horiz-adv-x="327" 
d="M159 -199h-217l7 38q62 24 127 31l159 832q-64 9 -116 32l7 38h219z" />
    <glyph glyph-name="asciicircum" unicode="^" horiz-adv-x="550" 
d="M497 378l-74 -36l-89 263l-184 -263l-58 34l219 299h75z" />
    <glyph glyph-name="underscore" unicode="_" horiz-adv-x="550" 
d="M465 -177l-14 -75h-549l14 75h549z" />
    <glyph glyph-name="grave" unicode="`" horiz-adv-x="350" 
d="M342 608l-31 -37l-163 121l68 78z" />
    <glyph glyph-name="a" unicode="a" horiz-adv-x="572" 
d="M521 483l-80 -412q28 -12 65 -19l-7 -41q-9 -2 -24.5 -5t-61.5 -7t-89 -3q20 102 51 195l-2 1q-34 -83 -94.5 -142.5t-130.5 -59.5q-57 0 -90.5 42.5t-33.5 117.5q0 65 18.5 126t55.5 114.5t102.5 86t150.5 32.5q39 0 81.5 -6.5t65.5 -12.5zM385 350l15 75q-31 22 -80 22
q-58 0 -101 -47.5t-61 -109.5t-18 -123q0 -99 56 -99q57 0 113.5 91.5t75.5 190.5z" />
    <glyph glyph-name="b" unicode="b" horiz-adv-x="557" 
d="M525 350q0 -51 -11 -100.5t-36 -97t-62 -83t-93.5 -57.5t-124.5 -22q-39 0 -81 6.5t-65 13.5l-23 6l122 644q-26 12 -67 20l8 41q9 2 25 4.5t64 6.5t94 3l-45 -240q-14 -71 -56 -187h3q34 83 94 142t130 59q57 0 90.5 -42.5t33.5 -116.5zM164 149l-15 -74q31 -23 80 -23
q44 0 80 27.5t57 71t32 90.5t11 91q0 99 -56 99t-112.5 -91t-76.5 -191z" />
    <glyph glyph-name="c" unicode="c" horiz-adv-x="451" 
d="M454 492l-29 -152h-46q-15 47 -15 91q-22 15 -63 15q-48 0 -85.5 -45t-54 -101.5t-16.5 -107.5q0 -124 114 -124q60 0 119 28l9 -50q-82 -54 -171 -54q-86 0 -137.5 43.5t-51.5 132.5q0 40 8 82.5t29.5 90t53.5 84t85.5 60.5t120.5 24q70 0 130 -17z" />
    <glyph glyph-name="d" unicode="d" horiz-adv-x="572" 
d="M569 735l-128 -664q28 -12 65 -19l-7 -41q-9 -2 -24.5 -5t-61.5 -7t-89 -3q20 102 51 195l-2 1q-34 -83 -94.5 -142.5t-130.5 -59.5q-57 0 -90.5 42.5t-33.5 117.5q0 93 33.5 172t108 132.5t178.5 53.5q17 0 34.5 -2t26.5 -4l9 -1l31 159q-27 12 -71 20l8 41
q9 2 24.5 4.5t64.5 6.5t98 3zM385 350l15 75q-31 22 -80 22q-58 0 -101 -47.5t-61 -109.5t-18 -123q0 -99 56 -99q57 0 113.5 91.5t75.5 190.5z" />
    <glyph glyph-name="e" unicode="e" horiz-adv-x="489" 
d="M470 400q0 -167 -324 -170q-4 -22 -4 -54q0 -108 102 -108q73 0 153 41l11 -54q-101 -64 -201 -64q-180 0 -180 168q0 48 9 95.5t31 94t53.5 82t81.5 57.5t111 22q82 0 119.5 -32t37.5 -78zM358 388q0 27 -15.5 44.5t-46.5 17.5q-56 0 -91 -49t-50 -116q203 0 203 103z
" />
    <glyph glyph-name="f" unicode="f" horiz-adv-x="335" 
d="M472 726l-26 -136h-44q-2 5 -4 13t-5.5 31t-3.5 43q-15 5 -32 5q-40 0 -61 -27t-32 -83l-14 -72h124l-11 -60h-124l-99 -514q-33 -177 -217 -177q-26 0 -51 3t-38 6l-12 3l26 136h44q2 -5 4 -13t5.5 -31t3.5 -43q15 -5 32 -5q40 0 61.5 27.5t31.5 83.5l100 524h-85l12 60
h85l12 61q35 177 217 177q26 0 51.5 -3t37.5 -6z" />
    <glyph glyph-name="g" unicode="g" horiz-adv-x="557" 
d="M521 483l-93 -479q-22 -118 -108 -186.5t-205 -68.5q-31 0 -63.5 4t-49.5 8l-17 4l32 93q62 -23 130 -23q80 0 116 31t51 104q23 118 61 221l-2 1q-34 -83 -94.5 -142.5t-130.5 -59.5q-57 0 -90.5 42.5t-33.5 117.5q0 65 18.5 126t55.5 114.5t102.5 86t150.5 32.5
q39 0 81.5 -6.5t65.5 -12.5zM385 350l15 75q-31 22 -80 22q-58 0 -101 -47.5t-61 -109.5t-18 -123q0 -99 56 -99q57 0 113.5 91.5t75.5 190.5z" />
    <glyph glyph-name="h" unicode="h" horiz-adv-x="583" 
d="M517 52l-7 -41q-9 -2 -24.5 -5t-63 -7t-94.5 -2q68 268 68 355q0 42 -10 60.5t-35 18.5q-55 0 -112 -92t-76 -193l-28 -146h-109l125 660q-26 12 -67 20l8 41q9 2 25 4.5t64.5 6.5t94.5 3l-44 -229q-12 -66 -57 -198h2q34 82 94.5 141.5t127.5 59.5q110 0 110 -135
q0 -90 -56 -303q25 -12 64 -19z" />
    <glyph glyph-name="i" unicode="i" horiz-adv-x="293" 
d="M293 658q0 -32 -21.5 -52.5t-53.5 -20.5q-30 0 -49.5 19t-19.5 48q0 33 21.5 53.5t53.5 20.5q30 0 49.5 -19.5t19.5 -48.5zM246 503l-82 -432q24 -11 64 -20l-7 -40q-8 -2 -23.5 -5t-62.5 -7t-94 -3l82 432q-24 12 -65 20l8 40q8 2 23.5 5t62.5 7t94 3z" />
    <glyph glyph-name="j" unicode="j" horiz-adv-x="280" 
d="M246 503l-105 -549q-17 -89 -70 -137t-139 -67l-9 49q52 17 73.5 48t36.5 111l90 470q-24 12 -65 20l8 40q8 2 23.5 5t62.5 7t94 3zM293 658q0 -32 -21.5 -52.5t-53.5 -20.5q-30 0 -49.5 19t-19.5 48q0 33 21.5 53.5t53.5 20.5q30 0 49.5 -19.5t19.5 -48.5z" />
    <glyph glyph-name="k" unicode="k" horiz-adv-x="540" 
d="M520 402q0 -64 -56.5 -105t-161.5 -57l94 -171q31 -9 65 -30l-9 -39h-147l-125 238l-45 -238h-109l125 660q-26 12 -67 20l8 41q9 2 25 4.5t64.5 6.5t94.5 3l-31 -157q-14 -76 -55 -199l2 -1q62 131 188 131q63 0 101.5 -29.5t38.5 -77.5zM404 388q0 25 -15 40.5
t-44 15.5q-49 0 -92 -52.5t-63 -120.5q214 28 214 117z" />
    <glyph glyph-name="l" unicode="l" horiz-adv-x="279" 
d="M275 735l-127 -664q28 -12 65 -19l-8 -41q-9 -2 -24.5 -5t-62.5 -7t-93 -2l126 663q-26 12 -67 20l8 41q8 2 23.5 4.5t63.5 6.5t96 3z" />
    <glyph glyph-name="m" unicode="m" horiz-adv-x="904" 
d="M838 52l-7 -41q-9 -2 -24.5 -5t-63 -7t-94.5 -2q68 268 68 355q0 42 -10 60.5t-35 18.5q-55 0 -112 -92t-76 -193l-28 -146h-109l56 288q28 143 -36 143q-55 0 -112 -92t-77 -193l-28 -146h-109l82 428q-24 12 -65 20l8 40q8 2 23.5 5t61.5 7t90 3q-13 -77 -51 -195h2
q34 82 94.5 141.5t127.5 59.5q53 0 76.5 -30t23.5 -74q0 -45 -15 -90l2 -1q34 79 93 137t126 58q110 0 110 -135q0 -90 -56 -303q25 -12 64 -19z" />
    <glyph glyph-name="n" unicode="n" horiz-adv-x="599" 
d="M533 52l-8 -41q-9 -2 -24.5 -5t-63 -7t-93.5 -2q68 277 68 355q0 42 -10.5 60.5t-34.5 18.5q-55 0 -112 -92t-77 -193l-28 -146h-109l82 428q-24 12 -65 20l8 40q8 2 23.5 5t61.5 7t90 3q-13 -77 -51 -195h2q34 82 94.5 141.5t127.5 59.5q110 0 110 -135q0 -90 -56 -303
q26 -12 65 -19z" />
    <glyph glyph-name="o" unicode="o" horiz-adv-x="577" 
d="M541 322q0 -137 -86 -234.5t-230 -97.5q-98 0 -147.5 53t-49.5 135q0 136 86.5 233.5t230.5 97.5q98 0 147 -52.5t49 -134.5zM424 310q0 62 -28 98t-84 36q-48 0 -83 -30t-52 -74.5t-24.5 -82.5t-7.5 -68q0 -61 28 -97t84 -36q48 0 83 30t52 74.5t24.5 82.5t7.5 67z" />
    <glyph glyph-name="p" unicode="p" horiz-adv-x="573" 
d="M424 332q0 99 -56 99t-112.5 -91.5t-76.5 -190.5l-14 -74q31 -23 80 -23q58 0 101 48t60.5 109.5t17.5 122.5zM188 -193l-8 -41q-9 -2 -24.5 -4.5t-64 -6.5t-97.5 -3l129 676q-24 12 -65 20l8 40q8 2 23.5 5t61.5 7t90 3q-20 -102 -51 -195h2q34 82 94.5 141.5
t129.5 59.5q58 0 91.5 -42.5t33.5 -116.5q0 -68 -20 -131t-58 -114.5t-100.5 -82.5t-141.5 -31q-16 0 -33.5 2t-27.5 4l-9 2l-33 -172q20 -7 70 -20z" />
    <glyph glyph-name="q" unicode="q" horiz-adv-x="558" 
d="M24 150q0 65 18.5 126t55.5 114.5t102.5 86t150.5 32.5q39 0 81.5 -6.5t65.5 -12.5l23 -7l-125 -656q26 -11 67 -20l-8 -40q-9 -2 -25 -5t-64 -7t-94 -3l48 252q12 71 55 187l-2 1q-34 -83 -94.5 -142.5t-130.5 -59.5q-57 0 -90.5 42.5t-33.5 117.5zM385 350l15 75
q-31 22 -80 22q-58 0 -101 -47.5t-61 -109.5t-18 -123q0 -99 56 -99q57 0 113.5 91.5t75.5 190.5z" />
    <glyph glyph-name="r" unicode="r" horiz-adv-x="396" 
d="M433 502l-31 -108q-26 15 -46 15q-36 0 -74 -50.5t-64 -115t-37 -122.5l-23 -121h-109l82 428q-32 14 -70 20l7 40q111 18 181 15q-19 -97 -51 -195h2q90 202 191 202q20 0 42 -8z" />
    <glyph glyph-name="s" unicode="s" horiz-adv-x="428" 
d="M390 496l-26 -138h-47q-13 38 -13 79q-24 13 -54 13q-33 0 -52 -19.5t-19 -50.5q0 -23 18.5 -43t44.5 -36l52.5 -33.5t45 -45t18.5 -62.5q0 -74 -64.5 -121t-156.5 -47q-31 0 -63.5 4t-49.5 8l-17 3l28 147h47q11 -40 13 -79q35 -18 70 -18q38 0 60.5 19.5t22.5 53.5
q0 25 -18 45.5t-44 36.5l-52.5 33.5t-44.5 44.5t-18 62q0 71 58.5 114t145.5 43q28 0 57 -3.5t44 -6.5z" />
    <glyph glyph-name="t" unicode="t" horiz-adv-x="365" 
d="M373 500l-12 -60h-130l-54 -286q-10 -45 -4 -65t32 -20q41 0 80 24l11 -50q-72 -52 -138 -52q-123 0 -92 157l56 292h-77l12 60h77l71 146h65l-27 -146h130z" />
    <glyph glyph-name="u" unicode="u" horiz-adv-x="598" 
d="M551 503l-83 -432q24 -11 64 -20l-7 -40q-9 -2 -24 -5t-61 -7t-90 -3q13 79 51 195l-2 1q-34 -82 -94.5 -142t-127.5 -60q-58 0 -84 37.5t-26 98.5q0 96 55 302q-25 12 -64 20l8 41q9 2 24.5 4.5t62.5 6.5t94 3q-68 -272 -68 -355q0 -43 10.5 -61.5t34.5 -18.5
q55 0 112 92t77 194l14 75q-24 11 -62 19l8 40q8 2 23 5t61.5 7t93.5 3z" />
    <glyph glyph-name="v" unicode="v" horiz-adv-x="524" 
d="M532 491l-258 -496h-110l-63 433q-22 12 -58 20l8 40q7 2 20.5 4.5t54 7t79.5 3.5l52 -412h1l169 428z" />
    <glyph glyph-name="w" unicode="w" horiz-adv-x="785" 
d="M793 489l-248 -492h-108l-30 304l-151 -304h-106l-49 431q-22 12 -58 20l8 40q8 2 21.5 4.5t54 7t79.5 3.5l37 -399h2l144 298l-2 26q-25 12 -62 21l8 39q8 2 22 4.5t56 7t82 3.5l34 -399h1l163 415z" />
    <glyph glyph-name="x" unicode="x" horiz-adv-x="543" 
d="M554 485l-228 -229l89 -188q34 -8 69 -29l-7 -39h-155l-80 190l-176 -220l-84 45l234 227l-88 189q-29 7 -66 29l7 40h151l79 -191l173 220z" />
    <glyph glyph-name="y" unicode="y" horiz-adv-x="529" 
d="M530 490q-89 -208 -194 -391.5t-190 -267.5q-81 -82 -175 -82l-41 3l25 86q24 -8 55 -8q51 0 96.5 63.5t45.5 147.5q0 152 -53 387q-20 12 -56 20l8 40q7 2 20.5 4.5t54 7t79.5 3.5q50 -248 50 -385v-35h1q88 182 167 436z" />
    <glyph glyph-name="z" unicode="z" horiz-adv-x="464" 
d="M455 500l-12 -63l-313 -378h173q23 47 49 86h43l-26 -145h-376l11 63l316 380h-160q-21 -45 -51 -82h-45l32 139h359z" />
    <glyph glyph-name="braceleft" unicode="{" horiz-adv-x="337" 
d="M401 772l-10 -49q-48 -1 -71 -31.5t-36 -102.5l-24 -124q-26 -132 -134 -149v-1q50 -7 69.5 -46t6.5 -106l-34 -178q-15 -69 -3 -101t61 -33l-10 -50h-19q-84 0 -114 43.5t-12 136.5l34 178q14 68 -1.5 97.5t-71.5 33.5l10 49q57 4 83 30t37 88l23 121q36 194 198 194h18
z" />
    <glyph glyph-name="bar" unicode="|" horiz-adv-x="273" 
d="M271 788l-191 -1000h-74l192 1000h73z" />
    <glyph glyph-name="braceright" unicode="}" horiz-adv-x="334" 
d="M328 339l-10 -49q-55 -4 -81.5 -30.5t-38.5 -86.5l-34 -178q-19 -101 -66 -147.5t-132 -46.5h-18l10 50q49 1 72 31t36 102l34 181q27 136 133 150v1q-49 6 -68.5 44t-7.5 104l24 124q15 69 3 101.5t-61 33.5l10 49h18q160 0 127 -181l-22 -117q-15 -70 -0.5 -100
t72.5 -35z" />
    <glyph glyph-name="asciitilde" unicode="~" horiz-adv-x="550" 
d="M490 422l55 -12q-21 -112 -60.5 -162.5t-100.5 -50.5q-33 0 -61.5 17t-48.5 41.5t-37 49.5t-36 42t-38 17q-28 0 -47 -28.5t-36 -108.5l-57 10q20 113 59.5 162.5t103.5 49.5q36 0 69.5 -26t54 -57t45.5 -57t46 -26q28 0 49.5 29.5t39.5 109.5z" />
    <glyph glyph-name="uni00A0" unicode="&#xa0;" horiz-adv-x="218" 
 />
    <glyph glyph-name="exclamdown" unicode="&#xa1;" horiz-adv-x="302" 
d="M254 459q0 -32 -20.5 -52.5t-51.5 -20.5q-30 0 -47.5 18t-17.5 46q0 33 20.5 53t51.5 20q30 0 47.5 -18t17.5 -46zM197 322l-74 -517h-123l132 517h65z" />
    <glyph glyph-name="cent" unicode="&#xa2;" horiz-adv-x="506" 
d="M438 138l6 -53q-87 -49 -177 -52l-27 -121h-62l28 122q-81 10 -124 57t-43 119q0 35 7 71t27 77t49.5 73.5t80 56.5t114.5 29l26 110h60l-25 -108q62 -3 130 -15l-27 -141h-46q-13 40 -14 81q-21 10 -56 13l-81 -348q6 -1 18 -1q62 0 136 30zM148 227q0 -87 78 -109
l77 334q-41 -6 -73 -32t-49 -60.5t-25 -68.5t-8 -64z" />
    <glyph glyph-name="sterling" unicode="&#xa3;" horiz-adv-x="550" 
d="M448 117l27 -39q-34 -46 -67 -67t-77 -21q-30 0 -87.5 12.5t-90.5 12.5q-88 0 -143 -25l-19 50q139 91 142 261h-83l11 60h72q-4 76 -4 79q0 117 71.5 181t190.5 64q67 0 117 -16l-28 -148h-48q-13 50 -13 85q-28 15 -64 15q-58 0 -84 -45t-26 -118q0 -20 1.5 -52.5
t1.5 -44.5h134l-11 -60h-124q-4 -69 -36 -121.5t-83 -81.5l1 -1q36 12 79 12q29 0 82 -12t86 -12q32 0 72 32z" />
    <glyph glyph-name="currency" unicode="&#xa4;" horiz-adv-x="550" 
d="M453 75l-77 -44l-45 108q-44 -22 -97 -22q-44 0 -73 15l-82 -101l-60 44l94 85q-31 36 -31 91q0 129 98 203l-68 94l78 45l45 -110q45 21 94 21q44 0 74 -15l82 104l61 -45l-96 -86q33 -33 33 -92q0 -129 -97 -202zM383 349q0 92 -81 92q-57 0 -88.5 -50.5t-31.5 -116.5
q0 -44 21 -68.5t61 -24.5q55 0 87 51t32 117z" />
    <glyph glyph-name="yen" unicode="&#xa5;" horiz-adv-x="601" 
d="M651 639q-24 -21 -53 -33l-219 -287h142l-9 -49h-156l-15 -85h154l-8 -48h-155l-15 -71q32 -9 72 -31l-6 -35h-266l6 35q45 21 83 31l14 71h-155l9 48h155l16 85h-155l9 49h141l-113 289q-24 10 -43 31l8 36h235l-8 -36q-22 -16 -66 -32l86 -247h2l163 246q-31 11 -56 33
l8 36h202z" />
    <glyph glyph-name="brokenbar" unicode="&#xa6;" horiz-adv-x="276" 
d="M277 788l-74 -383h-79l74 383h79zM161 185l-76 -397h-79l77 397h78z" />
    <glyph glyph-name="section" unicode="&#xa7;" horiz-adv-x="486" 
d="M471 725l-36 -79q-52 27 -94 27q-33 0 -59 -20.5t-26 -62.5q0 -30 27 -70t59 -74.5t59 -82.5t27 -92q0 -86 -105 -163q30 -53 30 -96q0 -73 -63 -127.5t-159 -54.5q-68 0 -105 17l37 79q52 -29 99 -29q37 0 61 23.5t24 59.5q0 31 -27 71.5t-59 74.5t-59 82t-27 92
q0 87 106 162q-31 49 -31 96q0 68 59.5 125t162.5 57q67 0 99 -15zM328 232q1 23 -11 50t-22 41.5t-40.5 52t-37.5 45.5q-43 -40 -43 -88q0 -21 12 -47t24 -42t39.5 -50l36.5 -45q16 13 28.5 36.5t13.5 46.5z" />
    <glyph glyph-name="dieresis" unicode="&#xa8;" horiz-adv-x="440" 
d="M451 658q0 -27 -18.5 -45t-44.5 -18t-42.5 16t-16.5 42q0 27 18.5 45t45.5 18q26 0 42 -16t16 -42zM258 658q0 -27 -18.5 -45t-45.5 -18q-26 0 -42 16t-16 42q0 27 18.5 45t45.5 18q26 0 42 -16t16 -42z" />
    <glyph glyph-name="copyright" unicode="&#xa9;" horiz-adv-x="741" 
d="M519 518l-25 -125h-38q-10 40 -10 71q-14 9 -37 9q-36 0 -62 -30t-36.5 -67t-10.5 -72q0 -85 96 -85q34 0 70 13l8 -45q-57 -33 -127 -33t-108.5 34.5t-38.5 98.5q0 95 61.5 167t170.5 72q47 0 87 -8zM720 388q0 -169 -106.5 -281.5t-273.5 -112.5q-139 0 -219 76
t-80 219q0 160 112 275t269 115q139 0 218.5 -81.5t79.5 -209.5zM348 54q135 0 219.5 91t84.5 233q0 105 -64.5 173t-173.5 68q-130 0 -217 -96t-87 -228q0 -114 64.5 -177.5t173.5 -63.5z" />
    <glyph glyph-name="ordfeminine" unicode="&#xaa;" horiz-adv-x="422" 
d="M425 396l-6 -38q-80 -18 -142 -17q7 34 36 114h-1q-26 -60 -71.5 -90t-89.5 -30q-32 0 -51.5 27t-19.5 77q0 102 59.5 172t167.5 70q56 0 109 -9l-50 -265q33 -8 59 -11zM367 266l-11 -56h-301l10 56h302zM329 618q-22 6 -57 6q-48 0 -79 -52.5t-31 -117.5q0 -53 29 -53
q34 0 76 54t57 137z" />
    <glyph glyph-name="guillemotleft" unicode="&#xab;" horiz-adv-x="532" 
d="M487 442l-122 -177l55 -173l-58 -28l-108 207l187 201zM302 457l-134 -192l60 -187l-58 -28l-113 221l197 215z" />
    <glyph glyph-name="logicalnot" unicode="&#xac;" horiz-adv-x="550" 
d="M456 78h-83l30 156h-378l15 78h460z" />
    <glyph glyph-name="registered" unicode="&#xae;" horiz-adv-x="552" 
d="M544 548q0 -99 -71.5 -168t-162.5 -69q-88 0 -146 58t-58 145q0 97 70.5 167t164.5 70q85 0 144 -57t59 -146zM488 541q0 69 -44.5 115.5t-106.5 46.5q-71 0 -122.5 -54t-51.5 -130q0 -65 43.5 -112.5t107.5 -47.5q68 0 121 53t53 129zM430 608q0 -58 -62 -71
q13 -2 19 -17t7 -31.5t6 -29t16 -11.5l-1 -22q-23 -9 -46 -9q-18 0 -24 26.5t-10 52.5t-17 26h-13l-13 -67q13 -6 18 -14l-3 -19h-96l3 19q12 9 27 14l32 168q-12 4 -22 12l4 21h23q12 0 41 1t42 1q69 0 69 -50zM373 602q0 26 -26 26h-22l-15 -80h15q21 0 34.5 14.5
t13.5 39.5z" />
    <glyph glyph-name="macron" unicode="&#xaf;" horiz-adv-x="410" 
d="M415 675l-13 -68h-265l12 68h266z" />
    <glyph glyph-name="macron" unicode="&#x2c9;" horiz-adv-x="410" 
d="M415 675l-13 -68h-265l12 68h266z" />
    <glyph glyph-name="degree" unicode="&#xb0;" horiz-adv-x="370" 
d="M381 620q0 -62 -42 -101t-102 -39q-58 0 -91 32.5t-33 85.5q0 65 43 102.5t100 37.5q62 0 93.5 -33.5t31.5 -84.5zM308 614q0 26 -13.5 46.5t-43.5 20.5q-26 0 -45 -21.5t-19 -55.5q0 -29 15.5 -47.5t41.5 -18.5q30 0 47 21.5t17 54.5z" />
    <glyph glyph-name="plusminus" unicode="&#xb1;" horiz-adv-x="550" 
d="M526 338h-195l-39 -201h-86l39 201h-196l16 77h195l37 200h86l-37 -200h195zM450 0h-453l12 65h453z" />
    <glyph glyph-name="twosuperior" unicode="&#xb2;" horiz-adv-x="376" 
d="M140 413h162q18 34 37 58h41l-29 -122h-312l10 52l126 113q34 29 56 50.5t45.5 58.5t23.5 68q0 26 -15.5 40.5t-44.5 14.5q-27 0 -46 -12q-27 -51 -42 -69h-39l25 108q66 24 131 24q63 0 96.5 -26t33.5 -70q0 -18 -5 -35t-16.5 -34.5t-20.5 -29.5t-28.5 -30l-26.5 -24.5
t-29 -24t-23 -18.5z" />
    <glyph glyph-name="threesuperior" unicode="&#xb3;" horiz-adv-x="354" 
d="M259 797q62 0 93.5 -24t31.5 -63q0 -43 -31 -75t-80 -45v-1q38 -5 62.5 -29.5t24.5 -60.5q0 -70 -64 -114t-152 -44q-65 0 -103 15l24 64q44 -27 93 -27q45 0 74.5 25.5t29.5 68.5q0 64 -105 64q-26 0 -38 -2l9 47q79 0 122 28.5t43 76.5q0 47 -55 47q-23 0 -38 -8
q-15 -32 -37 -57h-38l21 95q52 19 113 19z" />
    <glyph glyph-name="acute" unicode="&#xb4;" horiz-adv-x="351" 
d="M354 678l-190 -105l-24 42l163 146z" />
    <glyph glyph-name="mu1" unicode="&#xb5;" horiz-adv-x="618" 
d="M563 501l-61 -326q-15 -67 -8 -94.5t52 -27.5h4l-8 -42q-50 -19 -92 -19q-29 0 -47.5 14.5t-18.5 41.5q0 49 26 140l-2 1q-33 -75 -87 -136t-119 -61q-50 0 -62 36l-39 -273h-105l129 672q-44 20 -70 25l7 40q68 13 187 9l-54 -254q-38 -181 38 -181q40 0 82 49.5
t69.5 112.5t38.5 118l16 84q-36 16 -66 22l7 40q96 15 183 9z" />
    <glyph glyph-name="paragraph" unicode="&#xb6;" horiz-adv-x="586" 
d="M397 675l-99 -522q-122 -1 -177 58.5t-55 151.5q0 128 92 220t239 92zM628 675l-7 -38q-39 -24 -79 -34l-105 -545q-42 -223 -235 -223q-57 0 -93 11l25 135h44q14 -51 14 -83q16 -6 39 -6q46 0 70 36t38 110l121 637h168z" />
    <glyph glyph-name="periodcentered" unicode="&#xb7;" horiz-adv-x="245" 
d="M197 297q0 -32 -20.5 -53t-51.5 -21q-30 0 -49 19.5t-19 48.5q0 31 21 52.5t52 21.5q30 0 48.5 -19.5t18.5 -48.5z" />
    <glyph glyph-name="periodcentered" unicode="&#x22c5;" horiz-adv-x="245" 
d="M197 297q0 -32 -20.5 -53t-51.5 -21q-30 0 -49 19.5t-19 48.5q0 31 21 52.5t52 21.5q30 0 48.5 -19.5t18.5 -48.5z" />
    <glyph glyph-name="periodcentered" unicode="&#x2219;" horiz-adv-x="245" 
d="M197 297q0 -32 -20.5 -53t-51.5 -21q-30 0 -49 19.5t-19 48.5q0 31 21 52.5t52 21.5q30 0 48.5 -19.5t18.5 -48.5z" />
    <glyph glyph-name="cedilla" unicode="&#xb8;" horiz-adv-x="280" 
d="M158 0l-49 -54q62 -37 33.5 -93t-129.5 -104l-37 29q129 76 31 126l88 96h63z" />
    <glyph glyph-name="onesuperior" unicode="&#xb9;" horiz-adv-x="292" 
d="M273 349h-221l6 31q45 19 78 23l61 316l-76 -26l-10 39l125 59h66l-74 -388q13 -3 51 -23z" />
    <glyph glyph-name="ordmasculine" unicode="&#xba;" horiz-adv-x="428" 
d="M431 563q0 -97 -62.5 -163t-149.5 -66q-134 0 -134 119q0 94 59 162.5t150 68.5q137 0 137 -121zM355 266l-10 -56h-286l11 56h285zM343 550q0 34 -15 56.5t-46 22.5q-47 0 -78 -48t-31 -113q0 -78 59 -78q46 0 78.5 48t32.5 112z" />
    <glyph glyph-name="guillemotright" unicode="&#xbb;" horiz-adv-x="532" 
d="M475 267l-197 -217l-49 30l134 192l-60 187l58 27zM278 267l-188 -203l-46 30l121 178l-54 172l58 28z" />
    <glyph glyph-name="onequarter" unicode="&#xbc;" horiz-adv-x="776" 
d="M681 -12h-81l-11 -58q30 -9 48 -22l-5 -30h-203l6 30q36 17 66 22l10 58h-199l1 61l247 268h103l-51 -267h81zM524 50l38 198l-180 -198h142zM293 349h-221l6 31q45 19 78 23l61 316l-76 -26l-10 39l125 59h66l-74 -388q13 -3 51 -23zM813 772l-794 -908l-43 34l794 908z
" />
    <glyph glyph-name="onehalf" unicode="&#xbd;" horiz-adv-x="829" 
d="M813 772l-794 -908l-43 34l794 908zM293 349h-221l6 31q45 19 78 23l61 316l-76 -26l-10 39l125 59h66l-74 -388q13 -3 51 -23zM483 -58h162q18 34 37 58h41l-29 -122h-312l10 52l126 113q34 29 56 50.5t45.5 58.5t23.5 68q0 26 -15.5 40.5t-44.5 14.5q-27 0 -46 -12
q-27 -51 -42 -69h-39l25 108q66 24 131 24q63 0 96.5 -26t33.5 -70q0 -18 -5 -35t-16.5 -34.5t-20.5 -29.5t-28.5 -30l-26.5 -24.5t-29 -24t-23 -18.5z" />
    <glyph glyph-name="threequarters" unicode="&#xbe;" horiz-adv-x="788" 
d="M692 -12h-81l-11 -58q30 -9 48 -22l-5 -30h-203l6 30q36 17 66 22l10 58h-199l1 61l247 268h103l-51 -267h81zM535 50l38 198l-180 -198h142zM824 772l-794 -908l-43 34l794 908zM279 797q62 0 93.5 -24t31.5 -63q0 -43 -31 -75t-80 -45v-1q38 -5 62.5 -29.5t24.5 -60.5
q0 -70 -64 -114t-152 -44q-65 0 -103 15l24 64q44 -27 93 -27q45 0 74.5 25.5t29.5 68.5q0 64 -105 64q-26 0 -38 -2l9 47q79 0 122 28.5t43 76.5q0 47 -55 47q-23 0 -38 -8q-15 -32 -37 -57h-38l21 95q52 19 113 19z" />
    <glyph glyph-name="questiondown" unicode="&#xbf;" horiz-adv-x="415" 
d="M270 -110l-30 -93q-99 5 -169.5 51.5t-70.5 120.5q0 34 13 62t34 47t45.5 36.5t48 36.5t42 41t27 55.5t2.5 74.5h93q7 -46 -4 -83.5t-34 -61.5t-50.5 -47.5t-52.5 -41.5t-42 -44t-17 -56q0 -40 46.5 -66.5t118.5 -31.5zM341 459q0 -32 -20.5 -52.5t-51.5 -20.5
q-30 0 -47.5 18t-17.5 46q0 33 20.5 53t51.5 20q30 0 47.5 -18t17.5 -46z" />
    <glyph glyph-name="Agrave" unicode="&#xc0;" horiz-adv-x="658" 
d="M595 0h-243l7 38q33 21 77 34l-17 104h-241l-52 -104q29 -11 57 -34l-7 -38h-215l7 39q23 18 60 33l333 608h91l101 -609q32 -16 49 -33zM410 235l-50 316h-1l-155 -316h206zM481 777l-21 -44l-196 70l44 86z" />
    <glyph glyph-name="Aacute" unicode="&#xc1;" horiz-adv-x="658" 
d="M595 0h-243l7 38q33 21 77 34l-17 104h-241l-52 -104q29 -11 57 -34l-7 -38h-215l7 39q23 18 60 33l333 608h91l101 -609q32 -16 49 -33zM410 235l-50 316h-1l-155 -316h206zM589 796l-204 -63l-16 44l188 102z" />
    <glyph glyph-name="Acircumflex" unicode="&#xc2;" horiz-adv-x="658" 
d="M595 0h-243l7 38q33 21 77 34l-17 104h-241l-52 -104q29 -11 57 -34l-7 -38h-215l7 39q23 18 60 33l333 608h91l101 -609q32 -16 49 -33zM410 235l-50 316h-1l-155 -316h206zM571 774l-31 -40l-115 64l-134 -64l-22 42l167 113z" />
    <glyph glyph-name="Atilde" unicode="&#xc3;" horiz-adv-x="658" 
d="M595 0h-243l7 38q33 21 77 34l-17 104h-241l-52 -104q29 -11 57 -34l-7 -38h-215l7 39q23 18 60 33l333 608h91l101 -609q32 -16 49 -33zM410 235l-50 316h-1l-155 -316h206zM573 847l22 -39q-50 -63 -118 -63q-31 0 -68.5 21t-60.5 21q-33 0 -67 -30l-23 38
q54 64 118 64q31 0 68.5 -21t61.5 -21q37 0 67 30z" />
    <glyph glyph-name="Adieresis" unicode="&#xc4;" horiz-adv-x="658" 
d="M595 0h-243l7 38q33 21 77 34l-17 104h-241l-52 -104q29 -11 57 -34l-7 -38h-215l7 39q23 18 60 33l333 608h91l101 -609q32 -16 49 -33zM410 235l-50 316h-1l-155 -316h206zM583 793q0 -26 -18 -44t-43 -18q-26 0 -41.5 15.5t-15.5 41.5q0 25 18 43t44 18
q25 0 40.5 -15.5t15.5 -40.5zM381 793q0 -26 -18 -44t-43 -18q-26 0 -41.5 15.5t-15.5 41.5q0 25 18 43t44 18q25 0 40.5 -15.5t15.5 -40.5z" />
    <glyph glyph-name="Aring" unicode="&#xc5;" horiz-adv-x="658" 
d="M595 0h-243l7 38q33 21 77 34l-17 104h-241l-52 -104q29 -11 57 -34l-7 -38h-215l7 39q23 18 60 33l333 608h91l101 -609q32 -16 49 -33zM410 235l-50 316h-1l-155 -316h206zM540 829q0 -57 -38.5 -91t-97.5 -34q-45 0 -70 22.5t-25 57.5q0 54 37 89t98 35
q45 0 70.5 -22.5t25.5 -56.5zM479 818q0 21 -12.5 34.5t-34.5 13.5q-27 0 -45 -20t-18 -52q0 -21 12.5 -34.5t34.5 -13.5q27 0 45 21t18 51z" />
    <glyph glyph-name="AE" unicode="&#xc6;" horiz-adv-x="820" 
d="M832 675l-31 -155h-49q-13 43 -15 94h-164l-45 -238h133q8 15 18 31t17 25l6 8h43l-35 -184h-42q-14 29 -18 63h-133l-49 -256h169q9 21 22 46t21 39l9 14h51l-31 -162h-433l7 38q3 1 30 14t46 19l20 105h-205l-71 -104q13 -6 26 -14t19 -14l7 -5l-8 -39h-208l8 39
q26 21 54 34l389 533q-17 5 -34.5 13t-26.5 13l-9 6l7 37h505zM390 235l70 369h-1l-247 -369h178z" />
    <glyph glyph-name="Ccedilla" unicode="&#xc7;" horiz-adv-x="593" 
d="M497 114l12 -57q-85 -61 -197 -66l-41 -45q62 -37 34 -93t-129 -104l-38 29q129 76 31 126l82 89q-110 11 -161 75t-51 165q0 85 26.5 164.5t75.5 143.5t126.5 103t171.5 39q91 0 168 -20l-34 -174h-51q-13 46 -13 102q-38 19 -96 19q-63 0 -113 -35.5t-78.5 -91.5
t-43 -116t-14.5 -117q0 -82 42.5 -129.5t129.5 -47.5q85 0 161 41z" />
    <glyph glyph-name="Egrave" unicode="&#xc8;" horiz-adv-x="533" 
d="M421 0h-439l6 39q46 24 84 34l101 529q-32 10 -71 35l8 38h437l-30 -155h-50q-15 56 -15 94h-165l-46 -238h133q19 36 42 64h43l-35 -184h-43q-14 27 -17 63h-133l-49 -256h167q17 46 52 99h50zM415 777l-21 -44l-196 70l44 86z" />
    <glyph glyph-name="Eacute" unicode="&#xc9;" horiz-adv-x="533" 
d="M421 0h-439l6 39q46 24 84 34l101 529q-32 10 -71 35l8 38h437l-30 -155h-50q-15 56 -15 94h-165l-46 -238h133q19 36 42 64h43l-35 -184h-43q-14 27 -17 63h-133l-49 -256h167q17 46 52 99h50zM525 796l-204 -63l-16 44l188 102z" />
    <glyph glyph-name="Ecircumflex" unicode="&#xca;" horiz-adv-x="533" 
d="M421 0h-439l6 39q46 24 84 34l101 529q-32 10 -71 35l8 38h437l-30 -155h-50q-15 56 -15 94h-165l-46 -238h133q19 36 42 64h43l-35 -184h-43q-14 27 -17 63h-133l-49 -256h167q17 46 52 99h50zM514 774l-31 -40l-115 64l-134 -64l-22 42l167 113z" />
    <glyph glyph-name="Edieresis" unicode="&#xcb;" horiz-adv-x="533" 
d="M421 0h-439l6 39q46 24 84 34l101 529q-32 10 -71 35l8 38h437l-30 -155h-50q-15 56 -15 94h-165l-46 -238h133q19 36 42 64h43l-35 -184h-43q-14 27 -17 63h-133l-49 -256h167q17 46 52 99h50zM525 793q0 -26 -18 -44t-43 -18q-26 0 -41.5 15.5t-15.5 41.5q0 25 18 43
t44 18q25 0 40.5 -15.5t15.5 -40.5zM323 793q0 -26 -18 -44t-43 -18q-26 0 -41.5 15.5t-15.5 41.5q0 25 18 43t44 18q25 0 40.5 -15.5t15.5 -40.5z" />
    <glyph glyph-name="Igrave" unicode="&#xcc;" horiz-adv-x="332" 
d="M248 0h-266l6 39q41 22 84 34l101 529q-17 6 -34.5 14.5t-26.5 14.5l-10 6l8 38h266l-8 -38q-40 -22 -83 -35l-102 -529q17 -5 35 -13.5t28 -14.5l9 -6zM327 777l-21 -44l-196 70l44 86z" />
    <glyph glyph-name="Iacute" unicode="&#xcd;" horiz-adv-x="332" 
d="M248 0h-266l6 39q41 22 84 34l101 529q-17 6 -34.5 14.5t-26.5 14.5l-10 6l8 38h266l-8 -38q-40 -22 -83 -35l-102 -529q17 -5 35 -13.5t28 -14.5l9 -6zM410 796l-204 -63l-16 44l188 102z" />
    <glyph glyph-name="Icircumflex" unicode="&#xce;" horiz-adv-x="332" 
d="M248 0h-266l6 39q41 22 84 34l101 529q-17 6 -34.5 14.5t-26.5 14.5l-10 6l8 38h266l-8 -38q-40 -22 -83 -35l-102 -529q17 -5 35 -13.5t28 -14.5l9 -6zM408 774l-31 -40l-115 64l-134 -64l-22 42l167 113z" />
    <glyph glyph-name="Idieresis" unicode="&#xcf;" horiz-adv-x="332" 
d="M248 0h-266l6 39q41 22 84 34l101 529q-17 6 -34.5 14.5t-26.5 14.5l-10 6l8 38h266l-8 -38q-40 -22 -83 -35l-102 -529q17 -5 35 -13.5t28 -14.5l9 -6zM425 793q0 -26 -18 -44t-43 -18q-26 0 -41.5 15.5t-15.5 41.5q0 25 18 43t44 18q25 0 40.5 -15.5t15.5 -40.5z
M223 793q0 -26 -18 -44t-43 -18q-26 0 -41.5 15.5t-15.5 41.5q0 25 18 43t44 18q25 0 40.5 -15.5t15.5 -40.5z" />
    <glyph glyph-name="Eth" unicode="&#xd0;" horiz-adv-x="726" 
d="M714 444q0 -83 -27 -160.5t-79 -143t-140 -105t-199 -39.5q-45 0 -107.5 2t-83.5 2h-79l7 39q48 24 84 34l46 246h-107l12 60h107l43 223q-34 11 -71 35l7 38h79q23 0 97 2t113 2q298 0 298 -235zM594 438q0 87 -50 134t-152 47q-30 0 -87 -5l-45 -235h158l-12 -60h-158
l-46 -242q45 -14 106 -14q126 0 206 111.5t80 263.5z" />
    <glyph glyph-name="Ntilde" unicode="&#xd1;" horiz-adv-x="711" 
d="M559 -6h-79l-253 556l-71 -474q34 -14 65 -37l-7 -39h-232l7 39q58 30 81 37l106 526q-34 9 -73 35l8 38h188l228 -496l65 420q-24 10 -60 38l8 38h210l-8 -38q-50 -31 -68 -38zM608 847l22 -39q-50 -63 -118 -63q-31 0 -68.5 21t-60.5 21q-33 0 -67 -30l-23 38
q54 64 118 64q31 0 68.5 -21t61.5 -21q37 0 67 30z" />
    <glyph glyph-name="Ograve" unicode="&#xd2;" horiz-adv-x="724" 
d="M710 435q0 -87 -28.5 -167t-80.5 -142t-130.5 -99t-171.5 -37q-127 0 -193.5 68t-66.5 182q0 87 28.5 167t80.5 142t130.5 99t171.5 37q128 0 194 -68t66 -182zM586 419q0 91 -44.5 143t-125.5 52q-64 0 -114.5 -35t-79 -90.5t-43.5 -115.5t-15 -117q0 -90 44.5 -142
t125.5 -52q64 0 114.5 35t79 90t43.5 115t15 117zM509 777l-21 -44l-196 70l44 86z" />
    <glyph glyph-name="Oacute" unicode="&#xd3;" horiz-adv-x="724" 
d="M710 435q0 -87 -28.5 -167t-80.5 -142t-130.5 -99t-171.5 -37q-127 0 -193.5 68t-66.5 182q0 87 28.5 167t80.5 142t130.5 99t171.5 37q128 0 194 -68t66 -182zM586 419q0 91 -44.5 143t-125.5 52q-64 0 -114.5 -35t-79 -90.5t-43.5 -115.5t-15 -117q0 -90 44.5 -142
t125.5 -52q64 0 114.5 35t79 90t43.5 115t15 117zM611 796l-204 -63l-16 44l188 102z" />
    <glyph glyph-name="Ocircumflex" unicode="&#xd4;" horiz-adv-x="724" 
d="M710 435q0 -87 -28.5 -167t-80.5 -142t-130.5 -99t-171.5 -37q-127 0 -193.5 68t-66.5 182q0 87 28.5 167t80.5 142t130.5 99t171.5 37q128 0 194 -68t66 -182zM586 419q0 91 -44.5 143t-125.5 52q-64 0 -114.5 -35t-79 -90.5t-43.5 -115.5t-15 -117q0 -90 44.5 -142
t125.5 -52q64 0 114.5 35t79 90t43.5 115t15 117zM608 774l-31 -40l-115 64l-134 -64l-22 42l167 113z" />
    <glyph glyph-name="Otilde" unicode="&#xd5;" horiz-adv-x="724" 
d="M710 435q0 -87 -28.5 -167t-80.5 -142t-130.5 -99t-171.5 -37q-127 0 -193.5 68t-66.5 182q0 87 28.5 167t80.5 142t130.5 99t171.5 37q128 0 194 -68t66 -182zM586 419q0 91 -44.5 143t-125.5 52q-64 0 -114.5 -35t-79 -90.5t-43.5 -115.5t-15 -117q0 -90 44.5 -142
t125.5 -52q64 0 114.5 35t79 90t43.5 115t15 117zM614 847l22 -39q-50 -63 -118 -63q-31 0 -68.5 21t-60.5 21q-33 0 -67 -30l-23 38q54 64 118 64q31 0 68.5 -21t61.5 -21q37 0 67 30z" />
    <glyph glyph-name="Odieresis" unicode="&#xd6;" horiz-adv-x="724" 
d="M710 435q0 -87 -28.5 -167t-80.5 -142t-130.5 -99t-171.5 -37q-127 0 -193.5 68t-66.5 182q0 87 28.5 167t80.5 142t130.5 99t171.5 37q128 0 194 -68t66 -182zM586 419q0 91 -44.5 143t-125.5 52q-64 0 -114.5 -35t-79 -90.5t-43.5 -115.5t-15 -117q0 -90 44.5 -142
t125.5 -52q64 0 114.5 35t79 90t43.5 115t15 117zM622 793q0 -26 -18 -44t-43 -18t-41 15.5t-16 41.5q0 25 18 43t44 18q25 0 40.5 -15.5t15.5 -40.5zM420 793q0 -26 -18 -44t-43 -18t-41 15.5t-16 41.5q0 25 18 43t44 18q25 0 40.5 -15.5t15.5 -40.5z" />
    <glyph glyph-name="multiply" unicode="&#xd7;" horiz-adv-x="550" 
d="M460 109l-64 -52l-129 158l-188 -158l-50 60l189 159l-129 160l64 53l129 -159l189 159l50 -60l-190 -160z" />
    <glyph glyph-name="Oslash" unicode="&#xd8;" horiz-adv-x="724" 
d="M710 435q0 -69 -18 -134.5t-53.5 -121.5t-84 -98.5t-114 -66.5t-140.5 -24q-69 0 -120 22l-85 -116l-56 35l82 114q-82 65 -82 195q0 87 28.5 167t80.5 142t130.5 99t171.5 37q69 0 119 -22l85 116l56 -35l-82 -113q82 -66 82 -196zM589 420q0 68 -29 117l-327 -450
q41 -27 100 -27q52 0 96 23.5t73 61t49 85.5t29 96t9 94zM190 140l326 448q-40 28 -99 28q-65 0 -116.5 -35.5t-81 -91t-44.5 -116t-15 -118.5q0 -67 30 -115z" />
    <glyph glyph-name="Ugrave" unicode="&#xd9;" horiz-adv-x="710" 
d="M756 675l-8 -38q-38 -27 -69 -37l-67 -341q-24 -129 -106 -199.5t-207 -70.5q-135 0 -184 71t-28 183l68 359q-32 12 -53 35l8 38h244l-8 -38q-44 -25 -79 -35l-68 -357q-34 -182 128 -182q85 0 136 51t67 146l61 340q-28 8 -65 37l8 38h222zM494 777l-21 -44l-196 70
l44 86z" />
    <glyph glyph-name="Uacute" unicode="&#xda;" horiz-adv-x="710" 
d="M756 675l-8 -38q-38 -27 -69 -37l-67 -341q-24 -129 -106 -199.5t-207 -70.5q-135 0 -184 71t-28 183l68 359q-32 12 -53 35l8 38h244l-8 -38q-44 -25 -79 -35l-68 -357q-34 -182 128 -182q85 0 136 51t67 146l61 340q-28 8 -65 37l8 38h222zM629 796l-204 -63l-16 44
l188 102z" />
    <glyph glyph-name="Ucircumflex" unicode="&#xdb;" horiz-adv-x="710" 
d="M756 675l-8 -38q-38 -27 -69 -37l-67 -341q-24 -129 -106 -199.5t-207 -70.5q-135 0 -184 71t-28 183l68 359q-32 12 -53 35l8 38h244l-8 -38q-44 -25 -79 -35l-68 -357q-34 -182 128 -182q85 0 136 51t67 146l61 340q-28 8 -65 37l8 38h222zM604 774l-31 -40l-115 64
l-134 -64l-22 42l167 113z" />
    <glyph glyph-name="Udieresis" unicode="&#xdc;" horiz-adv-x="710" 
d="M756 675l-8 -38q-38 -27 -69 -37l-67 -341q-24 -129 -106 -199.5t-207 -70.5q-135 0 -184 71t-28 183l68 359q-32 12 -53 35l8 38h244l-8 -38q-44 -25 -79 -35l-68 -357q-34 -182 128 -182q85 0 136 51t67 146l61 340q-28 8 -65 37l8 38h222zM618 793q0 -26 -18 -44
t-43 -18t-41 15.5t-16 41.5q0 25 18 43t44 18q25 0 40.5 -15.5t15.5 -40.5zM416 793q0 -26 -18 -44t-43 -18t-41 15.5t-16 41.5q0 25 18 43t44 18q25 0 40.5 -15.5t15.5 -40.5z" />
    <glyph glyph-name="Yacute" unicode="&#xdd;" horiz-adv-x="584" 
d="M384 39l-7 -39h-267l8 39q50 25 83 34l40 205l-121 326q-24 12 -42 33l8 38h232l-8 -38q-30 -22 -67 -33l89 -251h1l161 249q-30 12 -55 35l8 38h205l-7 -38q-24 -21 -54 -35l-239 -324l-39 -205q27 -8 71 -34zM562 796l-204 -63l-16 44l188 102z" />
    <glyph glyph-name="Thorn" unicode="&#xde;" horiz-adv-x="584" 
d="M574 404q0 -115 -92.5 -191.5t-222.5 -76.5l-63 4l-14 -72q18 -5 36.5 -13t28.5 -13l10 -5l-7 -37h-268l6 39q42 23 84 34l101 529q-16 5 -34 14t-27 15l-10 6l8 38h265l-7 -37q-41 -20 -82 -31l-9 -48q50 4 96 4q201 0 201 -159zM456 390q0 113 -122 113q-16 0 -33.5 -2
t-26.5 -4l-10 -2l-53 -279q34 -16 76 -16q76 0 122.5 56.5t46.5 133.5z" />
    <glyph glyph-name="germandbls" unicode="&#xdf;" horiz-adv-x="607" 
d="M256 532l-115 -606q-33 -177 -218 -177q-26 0 -51 3t-38 6l-12 3l26 136h44q2 -5 4 -13t5.5 -31t3.5 -43q15 -5 32 -5q40 0 61.5 27.5t31.5 83.5l98 512q-31 13 -68 20l8 40q36 9 73 12l4 20q19 101 93 158.5t176 57.5q76 0 118.5 -33t42.5 -85q0 -39 -16.5 -67
t-40 -44.5l-46.5 -31.5t-39.5 -38t-16.5 -55q0 -22 15 -41t37 -35t44 -34t37 -45.5t15 -61.5q0 -70 -67 -121t-158 -51q-25 0 -50 2.5t-38 4.5l-13 3l27 139h41q13 -40 14 -76q20 -9 44 -9q44 0 66 22.5t22 61.5q0 28 -23 53.5t-51 43.5t-51 49.5t-23 69.5q0 39 16 67.5
t39 45.5l46 32.5t39 40t16 58.5q0 31 -19.5 50.5t-57.5 19.5q-101 0 -127 -139z" />
    <glyph glyph-name="agrave" unicode="&#xe0;" horiz-adv-x="572" 
d="M521 483l-80 -412q28 -12 65 -19l-7 -41q-9 -2 -24.5 -5t-61.5 -7t-89 -3q20 102 51 195l-2 1q-34 -83 -94.5 -142.5t-130.5 -59.5q-57 0 -90.5 42.5t-33.5 117.5q0 65 18.5 126t55.5 114.5t102.5 86t150.5 32.5q39 0 81.5 -6.5t65.5 -12.5zM385 350l15 75q-31 22 -80 22
q-58 0 -101 -47.5t-61 -109.5t-18 -123q0 -99 56 -99q57 0 113.5 91.5t75.5 190.5zM412 608l-31 -37l-163 121l68 78z" />
    <glyph glyph-name="aacute" unicode="&#xe1;" horiz-adv-x="572" 
d="M521 483l-80 -412q28 -12 65 -19l-7 -41q-9 -2 -24.5 -5t-61.5 -7t-89 -3q20 102 51 195l-2 1q-34 -83 -94.5 -142.5t-130.5 -59.5q-57 0 -90.5 42.5t-33.5 117.5q0 65 18.5 126t55.5 114.5t102.5 86t150.5 32.5q39 0 81.5 -6.5t65.5 -12.5zM385 350l15 75q-31 22 -80 22
q-58 0 -101 -47.5t-61 -109.5t-18 -123q0 -99 56 -99q57 0 113.5 91.5t75.5 190.5zM504 678l-190 -105l-24 42l163 146z" />
    <glyph glyph-name="acircumflex" unicode="&#xe2;" horiz-adv-x="572" 
d="M521 483l-80 -412q28 -12 65 -19l-7 -41q-9 -2 -24.5 -5t-61.5 -7t-89 -3q20 102 51 195l-2 1q-34 -83 -94.5 -142.5t-130.5 -59.5q-57 0 -90.5 42.5t-33.5 117.5q0 65 18.5 126t55.5 114.5t102.5 86t150.5 32.5q39 0 81.5 -6.5t65.5 -12.5zM385 350l15 75q-31 22 -80 22
q-58 0 -101 -47.5t-61 -109.5t-18 -123q0 -99 56 -99q57 0 113.5 91.5t75.5 190.5zM487 605l-36 -34l-99 87l-122 -87l-27 38l166 158z" />
    <glyph glyph-name="atilde" unicode="&#xe3;" horiz-adv-x="572" 
d="M521 483l-80 -412q28 -12 65 -19l-7 -41q-9 -2 -24.5 -5t-61.5 -7t-89 -3q20 102 51 195l-2 1q-34 -83 -94.5 -142.5t-130.5 -59.5q-57 0 -90.5 42.5t-33.5 117.5q0 65 18.5 126t55.5 114.5t102.5 86t150.5 32.5q39 0 81.5 -6.5t65.5 -12.5zM385 350l15 75q-31 22 -80 22
q-58 0 -101 -47.5t-61 -109.5t-18 -123q0 -99 56 -99q57 0 113.5 91.5t75.5 190.5zM499 696l23 -38q-55 -65 -119 -65q-33 0 -68 22t-55 22q-34 0 -68 -30l-23 38q55 64 119 64q32 0 67 -21.5t55 -21.5q34 0 69 30z" />
    <glyph glyph-name="adieresis" unicode="&#xe4;" horiz-adv-x="572" 
d="M521 483l-80 -412q28 -12 65 -19l-7 -41q-9 -2 -24.5 -5t-61.5 -7t-89 -3q20 102 51 195l-2 1q-34 -83 -94.5 -142.5t-130.5 -59.5q-57 0 -90.5 42.5t-33.5 117.5q0 65 18.5 126t55.5 114.5t102.5 86t150.5 32.5q39 0 81.5 -6.5t65.5 -12.5zM385 350l15 75q-31 22 -80 22
q-58 0 -101 -47.5t-61 -109.5t-18 -123q0 -99 56 -99q57 0 113.5 91.5t75.5 190.5zM511 658q0 -27 -18.5 -45t-44.5 -18t-42.5 16t-16.5 42q0 27 18.5 45t45.5 18q26 0 42 -16t16 -42zM318 658q0 -27 -18.5 -45t-45.5 -18q-26 0 -42 16t-16 42q0 27 18.5 45t45.5 18
q26 0 42 -16t16 -42z" />
    <glyph glyph-name="aring" unicode="&#xe5;" horiz-adv-x="572" 
d="M521 483l-80 -412q28 -12 65 -19l-7 -41q-9 -2 -24.5 -5t-61.5 -7t-89 -3q20 102 51 195l-2 1q-34 -83 -94.5 -142.5t-130.5 -59.5q-57 0 -90.5 42.5t-33.5 117.5q0 65 18.5 126t55.5 114.5t102.5 86t150.5 32.5q39 0 81.5 -6.5t65.5 -12.5zM385 350l15 75q-31 22 -80 22
q-58 0 -101 -47.5t-61 -109.5t-18 -123q0 -99 56 -99q57 0 113.5 91.5t75.5 190.5zM479 692q0 -60 -41 -97t-104 -37q-49 0 -76 24.5t-27 62.5q0 58 40 95.5t104 37.5q50 0 77 -24.5t27 -61.5zM412 681q0 22 -13 36t-36 14q-29 0 -47 -21t-18 -55q0 -22 12.5 -36t35.5 -14
q29 0 47.5 22t18.5 54z" />
    <glyph glyph-name="ae" unicode="&#xe6;" horiz-adv-x="749" 
d="M731 400q0 -167 -323 -170q-5 -22 -5 -54q0 -52 26 -80t77 -28q72 0 152 41l11 -54q-101 -64 -201 -64q-133 0 -160 101q-36 -47 -88 -74.5t-99 -27.5q-55 0 -85 33t-30 83q0 84 88.5 137t217.5 53l10 51q18 104 -70 104q-18 0 -36 -4.5t-26 -8.5l-9 -4q-10 -23 -23 -45
l-20 -33l-8 -10h-46l26 133q82 31 168 31q101 0 134 -60q57 60 163 60q81 0 118.5 -32t37.5 -78zM619 388q0 27 -15 44.5t-46 17.5q-56 0 -91 -49t-50 -116q202 0 202 103zM298 220l4 20q-182 3 -182 -115q0 -26 12.5 -42t33.5 -16q39 0 78.5 43t53.5 110z" />
    <glyph glyph-name="ccedilla" unicode="&#xe7;" horiz-adv-x="451" 
d="M454 492l-29 -152h-46q-15 47 -15 91q-23 15 -63 15q-48 0 -85.5 -45t-54 -101.5t-16.5 -107.5q0 -124 114 -124q60 0 119 28l9 -50q-72 -48 -154 -54l-42 -46q62 -37 33.5 -93t-129.5 -104l-37 29q129 76 31 126l84 91q-67 10 -106.5 52.5t-39.5 120.5q0 40 8 82.5
t29.5 90t53.5 84t85.5 60.5t120.5 24q70 0 130 -17z" />
    <glyph glyph-name="egrave" unicode="&#xe8;" horiz-adv-x="489" 
d="M470 400q0 -167 -324 -170q-4 -22 -4 -54q0 -108 102 -108q73 0 153 41l11 -54q-101 -64 -201 -64q-180 0 -180 168q0 48 9 95.5t31 94t53.5 82t81.5 57.5t111 22q82 0 119.5 -32t37.5 -78zM358 388q0 27 -15.5 44.5t-46.5 17.5q-56 0 -91 -49t-50 -116q203 0 203 103z
M367 608l-31 -37l-163 121l68 78z" />
    <glyph glyph-name="eacute" unicode="&#xe9;" horiz-adv-x="489" 
d="M470 400q0 -167 -324 -170q-4 -22 -4 -54q0 -108 102 -108q73 0 153 41l11 -54q-101 -64 -201 -64q-180 0 -180 168q0 48 9 95.5t31 94t53.5 82t81.5 57.5t111 22q82 0 119.5 -32t37.5 -78zM358 388q0 27 -15.5 44.5t-46.5 17.5q-56 0 -91 -49t-50 -116q203 0 203 103z
M471 678l-190 -105l-24 42l163 146z" />
    <glyph glyph-name="ecircumflex" unicode="&#xea;" horiz-adv-x="489" 
d="M470 400q0 -167 -324 -170q-4 -22 -4 -54q0 -108 102 -108q73 0 153 41l11 -54q-101 -64 -201 -64q-180 0 -180 168q0 48 9 95.5t31 94t53.5 82t81.5 57.5t111 22q82 0 119.5 -32t37.5 -78zM358 388q0 27 -15.5 44.5t-46.5 17.5q-56 0 -91 -49t-50 -116q203 0 203 103z
M454 605l-36 -34l-99 87l-122 -87l-27 38l166 158z" />
    <glyph glyph-name="edieresis" unicode="&#xeb;" horiz-adv-x="489" 
d="M470 400q0 -167 -324 -170q-4 -22 -4 -54q0 -108 102 -108q73 0 153 41l11 -54q-101 -64 -201 -64q-180 0 -180 168q0 48 9 95.5t31 94t53.5 82t81.5 57.5t111 22q82 0 119.5 -32t37.5 -78zM358 388q0 27 -15.5 44.5t-46.5 17.5q-56 0 -91 -49t-50 -116q203 0 203 103z
M482 658q0 -27 -18.5 -45t-44.5 -18t-42.5 16t-16.5 42q0 27 18.5 45t45.5 18q26 0 42 -16t16 -42zM289 658q0 -27 -18.5 -45t-45.5 -18q-26 0 -42 16t-16 42q0 27 18.5 45t45.5 18q25 0 41.5 -16t16.5 -42z" />
    <glyph glyph-name="igrave" unicode="&#xec;" horiz-adv-x="293" 
d="M246 503l-82 -432q24 -11 64 -20l-7 -40q-8 -2 -23.5 -5t-62.5 -7t-94 -3l82 432q-24 12 -65 20l8 40q8 2 23.5 5t62.5 7t94 3zM269 608l-31 -37l-163 121l68 78z" />
    <glyph glyph-name="iacute" unicode="&#xed;" horiz-adv-x="293" 
d="M246 503l-82 -432q24 -11 64 -20l-7 -40q-8 -2 -23.5 -5t-62.5 -7t-94 -3l82 432q-24 12 -65 20l8 40q8 2 23.5 5t62.5 7t94 3zM350 678l-190 -105l-24 42l163 146z" />
    <glyph glyph-name="icircumflex" unicode="&#xee;" horiz-adv-x="293" 
d="M246 503l-82 -432q24 -11 64 -20l-7 -40q-8 -2 -23.5 -5t-62.5 -7t-94 -3l82 432q-24 12 -65 20l8 40q8 2 23.5 5t62.5 7t94 3zM348 605l-36 -34l-99 87l-122 -87l-27 38l166 158z" />
    <glyph glyph-name="idieresis" unicode="&#xef;" horiz-adv-x="293" 
d="M246 503l-82 -432q24 -11 64 -20l-7 -40q-8 -2 -23.5 -5t-62.5 -7t-94 -3l82 432q-24 12 -65 20l8 40q8 2 23.5 5t62.5 7t94 3zM363 658q0 -27 -18.5 -45t-44.5 -18q-25 0 -41 16.5t-16 41.5q0 27 18.5 45t44.5 18q25 0 41 -16.5t16 -41.5zM186 658q0 -27 -18.5 -45
t-44.5 -18q-25 0 -41.5 16.5t-16.5 41.5q0 27 18.5 45t45.5 18q25 0 41 -16.5t16 -41.5z" />
    <glyph glyph-name="eth" unicode="&#xf0;" horiz-adv-x="533" 
d="M508 392q0 -170 -85 -286t-220 -116q-91 0 -137 45.5t-46 131.5q0 146 88 242t229 96q15 0 37 -2q-13 44 -54 92l-141 -63l-20 49l112 51q-31 29 -52 42q-19 6 -73 15l7 39q63 12 144 12q45 -27 82 -60l129 58l20 -49l-109 -50q89 -101 89 -247zM391 358q0 47 -6 72
q-27 13 -72 13q-46 0 -82 -28t-55.5 -70.5t-29.5 -85.5t-10 -80q0 -57 22 -89.5t64 -32.5q55 0 95 51t57 117.5t17 132.5z" />
    <glyph glyph-name="ntilde" unicode="&#xf1;" horiz-adv-x="599" 
d="M533 52l-8 -41q-9 -2 -24.5 -5t-63 -7t-93.5 -2q68 277 68 355q0 42 -10.5 60.5t-34.5 18.5q-55 0 -112 -92t-77 -193l-28 -146h-109l82 428q-24 12 -65 20l8 40q8 2 23.5 5t61.5 7t90 3q-13 -77 -51 -195h2q34 82 94.5 141.5t127.5 59.5q110 0 110 -135q0 -90 -56 -303
q26 -12 65 -19zM518 696l23 -38q-55 -65 -119 -65q-32 0 -67 22t-56 22q-34 0 -68 -30l-23 38q55 64 119 64q33 0 67 -21.5t55 -21.5q34 0 69 30z" />
    <glyph glyph-name="ograve" unicode="&#xf2;" horiz-adv-x="577" 
d="M541 322q0 -137 -86 -234.5t-230 -97.5q-98 0 -147.5 53t-49.5 135q0 136 86.5 233.5t230.5 97.5q98 0 147 -52.5t49 -134.5zM424 310q0 62 -28 98t-84 36q-48 0 -83 -30t-52 -74.5t-24.5 -82.5t-7.5 -68q0 -61 28 -97t84 -36q48 0 83 30t52 74.5t24.5 82.5t7.5 67z
M411 608l-31 -37l-163 121l68 78z" />
    <glyph glyph-name="oacute" unicode="&#xf3;" horiz-adv-x="577" 
d="M541 322q0 -137 -86 -234.5t-230 -97.5q-98 0 -147.5 53t-49.5 135q0 136 86.5 233.5t230.5 97.5q98 0 147 -52.5t49 -134.5zM424 310q0 62 -28 98t-84 36q-48 0 -83 -30t-52 -74.5t-24.5 -82.5t-7.5 -68q0 -61 28 -97t84 -36q48 0 83 30t52 74.5t24.5 82.5t7.5 67z
M507 678l-190 -105l-24 42l163 146z" />
    <glyph glyph-name="ocircumflex" unicode="&#xf4;" horiz-adv-x="577" 
d="M541 322q0 -137 -86 -234.5t-230 -97.5q-98 0 -147.5 53t-49.5 135q0 136 86.5 233.5t230.5 97.5q98 0 147 -52.5t49 -134.5zM424 310q0 62 -28 98t-84 36q-48 0 -83 -30t-52 -74.5t-24.5 -82.5t-7.5 -68q0 -61 28 -97t84 -36q48 0 83 30t52 74.5t24.5 82.5t7.5 67z
M491 605l-36 -34l-99 87l-122 -87l-27 38l166 158z" />
    <glyph glyph-name="otilde" unicode="&#xf5;" horiz-adv-x="577" 
d="M541 322q0 -137 -86 -234.5t-230 -97.5q-98 0 -147.5 53t-49.5 135q0 136 86.5 233.5t230.5 97.5q98 0 147 -52.5t49 -134.5zM424 310q0 62 -28 98t-84 36q-48 0 -83 -30t-52 -74.5t-24.5 -82.5t-7.5 -68q0 -61 28 -97t84 -36q48 0 83 30t52 74.5t24.5 82.5t7.5 67z
M506 696l23 -38q-55 -65 -119 -65q-32 0 -67 22t-56 22q-34 0 -68 -30l-23 38q55 64 119 64q33 0 67 -21.5t55 -21.5q34 0 69 30z" />
    <glyph glyph-name="odieresis" unicode="&#xf6;" horiz-adv-x="577" 
d="M541 322q0 -137 -86 -234.5t-230 -97.5q-98 0 -147.5 53t-49.5 135q0 136 86.5 233.5t230.5 97.5q98 0 147 -52.5t49 -134.5zM424 310q0 62 -28 98t-84 36q-48 0 -83 -30t-52 -74.5t-24.5 -82.5t-7.5 -68q0 -61 28 -97t84 -36q48 0 83 30t52 74.5t24.5 82.5t7.5 67z
M518 658q0 -27 -18.5 -45t-44.5 -18t-42.5 16t-16.5 42q0 27 18.5 45t45.5 18q26 0 42 -16t16 -42zM325 658q0 -27 -18.5 -45t-45.5 -18q-26 0 -42 16t-16 42q0 27 18.5 45t45.5 18q25 0 41.5 -16t16.5 -42z" />
    <glyph glyph-name="divide" unicode="&#xf7;" horiz-adv-x="550" 
d="M510 235h-484l15 75h483zM375 477q0 -27 -19.5 -46t-45.5 -19q-25 0 -42.5 17.5t-17.5 42.5q0 26 19.5 45.5t45.5 19.5q25 0 42.5 -17.5t17.5 -42.5zM299 73q0 -27 -19.5 -46.5t-45.5 -19.5q-25 0 -42.5 18t-17.5 42q0 26 19.5 46t44.5 20t43 -18t18 -42z" />
    <glyph glyph-name="oslash" unicode="&#xf8;" horiz-adv-x="577" 
d="M555 569l-74 -102q60 -52 60 -145q0 -137 -86 -234.5t-230 -97.5q-40 0 -79 13l-80 -110l-52 33l76 106q-62 49 -62 146q0 136 86.5 233.5t230.5 97.5q46 0 80 -14l77 108zM415 376l-220 -305q25 -18 62 -18q49 0 85 30t53 74.5t24.5 81.5t7.5 63q0 36 -12 74zM156 123
l221 305q-28 19 -65 19q-39 0 -70.5 -21t-49.5 -51t-30 -66.5t-16 -64t-4 -47.5q0 -43 14 -74z" />
    <glyph glyph-name="ugrave" unicode="&#xf9;" horiz-adv-x="598" 
d="M551 503l-83 -432q24 -11 64 -20l-7 -40q-9 -2 -24 -5t-61 -7t-90 -3q13 79 51 195l-2 1q-34 -82 -94.5 -142t-127.5 -60q-58 0 -84 37.5t-26 98.5q0 96 55 302q-25 12 -64 20l8 41q9 2 24.5 4.5t62.5 6.5t94 3q-68 -272 -68 -355q0 -43 10.5 -61.5t34.5 -18.5
q55 0 112 92t77 194l14 75q-24 11 -62 19l8 40q8 2 23 5t61.5 7t93.5 3zM385 608l-31 -37l-163 121l68 78z" />
    <glyph glyph-name="uacute" unicode="&#xfa;" horiz-adv-x="598" 
d="M551 503l-83 -432q24 -11 64 -20l-7 -40q-9 -2 -24 -5t-61 -7t-90 -3q13 79 51 195l-2 1q-34 -82 -94.5 -142t-127.5 -60q-58 0 -84 37.5t-26 98.5q0 96 55 302q-25 12 -64 20l8 41q9 2 24.5 4.5t62.5 6.5t94 3q-68 -272 -68 -355q0 -43 10.5 -61.5t34.5 -18.5
q55 0 112 92t77 194l14 75q-24 11 -62 19l8 40q8 2 23 5t61.5 7t93.5 3zM525 678l-190 -105l-24 42l163 146z" />
    <glyph glyph-name="ucircumflex" unicode="&#xfb;" horiz-adv-x="598" 
d="M551 503l-83 -432q24 -11 64 -20l-7 -40q-9 -2 -24 -5t-61 -7t-90 -3q13 79 51 195l-2 1q-34 -82 -94.5 -142t-127.5 -60q-58 0 -84 37.5t-26 98.5q0 96 55 302q-25 12 -64 20l8 41q9 2 24.5 4.5t62.5 6.5t94 3q-68 -272 -68 -355q0 -43 10.5 -61.5t34.5 -18.5
q55 0 112 92t77 194l14 75q-24 11 -62 19l8 40q8 2 23 5t61.5 7t93.5 3zM499 605l-36 -34l-99 87l-122 -87l-27 38l166 158z" />
    <glyph glyph-name="udieresis" unicode="&#xfc;" horiz-adv-x="598" 
d="M551 503l-83 -432q24 -11 64 -20l-7 -40q-9 -2 -24 -5t-61 -7t-90 -3q13 79 51 195l-2 1q-34 -82 -94.5 -142t-127.5 -60q-58 0 -84 37.5t-26 98.5q0 96 55 302q-25 12 -64 20l8 41q9 2 24.5 4.5t62.5 6.5t94 3q-68 -272 -68 -355q0 -43 10.5 -61.5t34.5 -18.5
q55 0 112 92t77 194l14 75q-24 11 -62 19l8 40q8 2 23 5t61.5 7t93.5 3zM523 658q0 -27 -18.5 -45t-44.5 -18t-42.5 16t-16.5 42q0 27 18.5 45t45.5 18q26 0 42 -16t16 -42zM330 658q0 -27 -18.5 -45t-45.5 -18q-26 0 -42 16t-16 42q0 27 18.5 45t45.5 18q26 0 42 -16
t16 -42z" />
    <glyph glyph-name="yacute" unicode="&#xfd;" horiz-adv-x="529" 
d="M530 490q-89 -208 -194 -391.5t-190 -267.5q-81 -82 -175 -82l-41 3l25 86q24 -8 55 -8q51 0 96.5 63.5t45.5 147.5q0 152 -53 387q-20 12 -56 20l8 40q7 2 20.5 4.5t54 7t79.5 3.5q50 -248 50 -385v-35h1q88 182 167 436zM506 678l-190 -105l-24 42l163 146z" />
    <glyph glyph-name="thorn" unicode="&#xfe;" horiz-adv-x="557" 
d="M525 350q0 -51 -11 -100.5t-36 -97t-62 -83t-93.5 -57.5t-124.5 -22q-15 0 -31 1.5t-25 3.5l-8 2l-32 -170q30 -9 68 -33l-7 -39h-257l7 39q47 24 80 33l158 833q-26 12 -67 20l8 41q9 2 25 4.5t64 6.5t94 3l-45 -240q-14 -71 -56 -187h3q34 83 94 142t130 59
q57 0 90.5 -42.5t33.5 -116.5zM409 332q0 99 -56 99t-112.5 -91t-76.5 -191l-15 -74q31 -23 81 -23q58 0 100.5 48t60.5 109.5t18 122.5z" />
    <glyph glyph-name="ydieresis" unicode="&#xff;" horiz-adv-x="529" 
d="M530 490q-89 -208 -194 -391.5t-190 -267.5q-81 -82 -175 -82l-41 3l25 86q24 -8 55 -8q51 0 96.5 63.5t45.5 147.5q0 152 -53 387q-20 12 -56 20l8 40q7 2 20.5 4.5t54 7t79.5 3.5q50 -248 50 -385v-35h1q88 182 167 436zM497 658q0 -27 -18.5 -45t-44.5 -18t-42.5 16
t-16.5 42q0 27 18.5 45t45.5 18q26 0 42 -16t16 -42zM304 658q0 -27 -18.5 -45t-45.5 -18q-26 0 -42 16t-16 42q0 27 18.5 45t45.5 18q26 0 42 -16t16 -42z" />
    <glyph glyph-name="Amacron" unicode="&#x100;" horiz-adv-x="658" 
d="M595 0h-243l7 38q33 21 77 34l-17 104h-241l-52 -104q29 -11 57 -34l-7 -38h-215l7 39q23 18 60 33l333 608h91l101 -609q32 -16 49 -33zM410 235l-50 316h-1l-155 -316h206zM553 763h-269l13 65h269z" />
    <glyph glyph-name="amacron" unicode="&#x101;" horiz-adv-x="572" 
d="M521 483l-80 -412q28 -12 65 -19l-7 -41q-9 -2 -24.5 -5t-61.5 -7t-89 -3q20 102 51 195l-2 1q-34 -83 -94.5 -142.5t-130.5 -59.5q-57 0 -90.5 42.5t-33.5 117.5q0 65 18.5 126t55.5 114.5t102.5 86t150.5 32.5q39 0 81.5 -6.5t65.5 -12.5zM385 350l15 75q-31 22 -80 22
q-58 0 -101 -47.5t-61 -109.5t-18 -123q0 -99 56 -99q57 0 113.5 91.5t75.5 190.5zM489 675l-13 -68h-265l12 68h266z" />
    <glyph glyph-name="Abreve" unicode="&#x102;" horiz-adv-x="658" 
d="M595 0h-243l7 38q33 21 77 34l-17 104h-241l-52 -104q29 -11 57 -34l-7 -38h-215l7 39q23 18 60 33l333 608h91l101 -609q32 -16 49 -33zM410 235l-50 316h-1l-155 -316h206zM559 863q-11 -58 -49 -96t-101 -38t-87 38.5t-13 95.5h55q-5 -28 10 -46t47 -18q31 0 54 16.5
t29 47.5h55z" />
    <glyph glyph-name="abreve" unicode="&#x103;" horiz-adv-x="572" 
d="M521 483l-80 -412q28 -12 65 -19l-7 -41q-9 -2 -24.5 -5t-61.5 -7t-89 -3q20 102 51 195l-2 1q-34 -83 -94.5 -142.5t-130.5 -59.5q-57 0 -90.5 42.5t-33.5 117.5q0 65 18.5 126t55.5 114.5t102.5 86t150.5 32.5q39 0 81.5 -6.5t65.5 -12.5zM385 350l15 75q-31 22 -80 22
q-58 0 -101 -47.5t-61 -109.5t-18 -123q0 -99 56 -99q57 0 113.5 91.5t75.5 190.5zM485 724q-10 -59 -47.5 -99t-98.5 -40q-62 0 -84.5 40.5t-11.5 98.5h55q-5 -28 9 -47t44 -19q29 0 50 17t28 49h56z" />
    <glyph glyph-name="Aogonek" unicode="&#x104;" horiz-adv-x="658" 
d="M595 0h-75q-53 -35 -79.5 -74.5t-26.5 -71.5q0 -30 31 -30q33 0 72 30l23 -40q-70 -64 -138 -64q-87 0 -87 74q0 93 130 176h-93l7 38q33 21 77 34l-17 104h-241l-52 -104q29 -11 57 -34l-7 -38h-215l7 39q23 18 60 33l333 608h91l101 -609q32 -16 49 -33zM410 235
l-50 316h-1l-155 -316h206z" />
    <glyph glyph-name="aogonek" unicode="&#x105;" horiz-adv-x="572" 
d="M521 483l-80 -412q27 -12 65 -19l-7 -41q-57 -8 -104.5 -58.5t-47.5 -98.5q0 -30 31 -30q33 0 72 30l23 -40q-70 -64 -138 -64q-87 0 -87 74q0 93 127 173l-51 -1q20 102 51 195l-2 1q-34 -83 -94.5 -142.5t-130.5 -59.5q-57 0 -90.5 42.5t-33.5 117.5q0 65 18.5 126
t55.5 114.5t102.5 86t150.5 32.5q39 0 81.5 -6.5t65.5 -12.5zM385 350l15 75q-31 22 -80 22q-58 0 -101 -47.5t-61 -109.5t-18 -123q0 -99 56 -99q57 0 113.5 91.5t75.5 190.5z" />
    <glyph glyph-name="Cacute" unicode="&#x106;" horiz-adv-x="593" 
d="M497 114l12 -57q-93 -67 -211 -67q-135 0 -197 66t-62 177q0 85 26.5 164.5t75.5 143.5t126.5 103t171.5 39q91 0 168 -20l-34 -174h-51q-13 46 -13 102q-38 19 -96 19q-63 0 -113 -35.5t-78.5 -91.5t-43 -116t-14.5 -117q0 -82 42.5 -129.5t129.5 -47.5q85 0 161 41z
M588 796l-204 -63l-16 44l188 102z" />
    <glyph glyph-name="cacute" unicode="&#x107;" horiz-adv-x="451" 
d="M454 492l-29 -152h-46q-15 47 -15 91q-22 15 -63 15q-48 0 -85.5 -45t-54 -101.5t-16.5 -107.5q0 -124 114 -124q60 0 119 28l9 -50q-82 -54 -171 -54q-86 0 -137.5 43.5t-51.5 132.5q0 40 8 82.5t29.5 90t53.5 84t85.5 60.5t120.5 24q70 0 130 -17zM477 678l-190 -105
l-24 42l163 146z" />
    <glyph glyph-name="Ccircumflex" unicode="&#x108;" horiz-adv-x="593" 
d="M497 114l12 -57q-93 -67 -211 -67q-135 0 -197 66t-62 177q0 85 26.5 164.5t75.5 143.5t126.5 103t171.5 39q91 0 168 -20l-34 -174h-51q-13 46 -13 102q-38 19 -96 19q-63 0 -113 -35.5t-78.5 -91.5t-43 -116t-14.5 -117q0 -82 42.5 -129.5t129.5 -47.5q85 0 161 41z
M584 774l-31 -40l-115 64l-134 -64l-22 42l167 113z" />
    <glyph glyph-name="ccircumflex" unicode="&#x109;" horiz-adv-x="451" 
d="M454 492l-29 -152h-46q-15 47 -15 91q-22 15 -63 15q-48 0 -85.5 -45t-54 -101.5t-16.5 -107.5q0 -124 114 -124q60 0 119 28l9 -50q-82 -54 -171 -54q-86 0 -137.5 43.5t-51.5 132.5q0 40 8 82.5t29.5 90t53.5 84t85.5 60.5t120.5 24q70 0 130 -17zM458 604l-36 -34
l-99 87l-122 -87l-27 38l166 158z" />
    <glyph glyph-name="Cdotaccent" unicode="&#x10a;" horiz-adv-x="593" 
d="M497 114l12 -57q-93 -67 -211 -67q-135 0 -197 66t-62 177q0 85 26.5 164.5t75.5 143.5t126.5 103t171.5 39q91 0 168 -20l-34 -174h-51q-13 46 -13 102q-38 19 -96 19q-63 0 -113 -35.5t-78.5 -91.5t-43 -116t-14.5 -117q0 -82 42.5 -129.5t129.5 -47.5q85 0 161 41z
M504 800q0 -30 -20 -50t-49 -20q-27 0 -45 18.5t-18 45.5q0 30 20.5 50t48.5 20q26 0 44.5 -19t18.5 -45z" />
    <glyph glyph-name="cdotaccent" unicode="&#x10b;" horiz-adv-x="451" 
d="M454 492l-29 -152h-46q-15 47 -15 91q-22 15 -63 15q-48 0 -85.5 -45t-54 -101.5t-16.5 -107.5q0 -124 114 -124q60 0 119 28l9 -50q-82 -54 -171 -54q-86 0 -137.5 43.5t-51.5 132.5q0 40 8 82.5t29.5 90t53.5 84t85.5 60.5t120.5 24q70 0 130 -17zM398 661
q0 -31 -20 -50.5t-49 -19.5q-27 0 -45 18.5t-18 45.5q0 32 20 51.5t49 19.5q27 0 45 -19t18 -46z" />
    <glyph glyph-name="Ccaron" unicode="&#x10c;" horiz-adv-x="593" 
d="M497 114l12 -57q-93 -67 -211 -67q-135 0 -197 66t-62 177q0 85 26.5 164.5t75.5 143.5t126.5 103t171.5 39q91 0 168 -20l-34 -174h-51q-13 46 -13 102q-38 19 -96 19q-63 0 -113 -35.5t-78.5 -91.5t-43 -116t-14.5 -117q0 -82 42.5 -129.5t129.5 -47.5q85 0 161 41z
M300 842l31 40l115 -64l134 64l22 -42l-167 -113z" />
    <glyph glyph-name="ccaron" unicode="&#x10d;" horiz-adv-x="451" 
d="M454 492l-29 -152h-46q-15 47 -15 91q-22 15 -63 15q-48 0 -85.5 -45t-54 -101.5t-16.5 -107.5q0 -124 114 -124q60 0 119 28l9 -50q-82 -54 -171 -54q-86 0 -137.5 43.5t-51.5 132.5q0 40 8 82.5t29.5 90t53.5 84t85.5 60.5t120.5 24q70 0 130 -17zM205 733l36 33
l100 -87l122 87l26 -38l-166 -158z" />
    <glyph glyph-name="Dcaron" unicode="&#x10e;" horiz-adv-x="709" 
d="M696 444q0 -66 -16 -128.5t-51.5 -121t-86.5 -102.5t-126 -70t-165 -26q-45 0 -108 2t-83 2h-78l6 39q48 24 84 34l101 529q-36 11 -71 35l8 38h78q23 0 97 2t113 2q298 0 298 -235zM577 438q0 87 -50.5 134t-151.5 47q-31 0 -88 -5l-102 -537q44 -14 105 -14
q126 0 206.5 111.5t80.5 263.5zM268 842l31 40l115 -64l134 64l22 -42l-167 -113z" />
    <glyph glyph-name="dcaron" unicode="&#x10f;" horiz-adv-x="607" 
d="M569 735l-128 -664q28 -12 65 -19l-7 -41q-9 -2 -24.5 -5t-61.5 -7t-89 -3q20 102 51 195l-2 1q-34 -83 -94.5 -142.5t-130.5 -59.5q-57 0 -90.5 42.5t-33.5 117.5q0 93 33.5 172t108 132.5t178.5 53.5q17 0 34.5 -2t26.5 -4l9 -1l31 159q-27 12 -71 20l8 41
q9 2 24.5 4.5t64.5 6.5t98 3zM385 350l15 75q-31 22 -80 22q-58 0 -101 -47.5t-61 -109.5t-18 -123q0 -99 56 -99q57 0 113.5 91.5t75.5 190.5zM736 774l-121 -196l-41 14l82 208z" />
    <glyph glyph-name="Dcroat" unicode="&#x110;" horiz-adv-x="726" 
d="M714 444q0 -83 -27 -160.5t-79 -143t-140 -105t-199 -39.5q-45 0 -107.5 2t-83.5 2h-79l7 39q48 24 84 34l46 246h-107l12 60h107l43 223q-34 11 -71 35l7 38h79q23 0 97 2t113 2q298 0 298 -235zM594 438q0 87 -50 134t-152 47q-30 0 -87 -5l-45 -235h158l-12 -60h-158
l-46 -242q45 -14 106 -14q126 0 206 111.5t80 263.5z" />
    <glyph glyph-name="dcroat" unicode="&#x111;" horiz-adv-x="572" 
d="M537 569l-96 -498q28 -12 65 -19l-7 -41q-9 -2 -24.5 -5t-61.5 -7t-89 -3q20 102 51 195l-2 1q-34 -83 -94.5 -142.5t-130.5 -59.5q-57 0 -90.5 42.5t-33.5 117.5q0 67 19 129t56.5 113.5t100 82t141.5 30.5q17 0 35 -1.5t28 -3.5l9 -2l14 71h-162l10 53h162l10 51
q-27 10 -71 18l8 38q9 2 24.5 4.5t64 6.5t97.5 3l-23 -121h78l-9 -53h-79zM385 350l14 72q-31 22 -80 22q-58 0 -100.5 -47t-60.5 -108t-18 -122q0 -99 56 -99q57 0 113.5 91.5t75.5 190.5z" />
    <glyph glyph-name="Emacron" unicode="&#x112;" horiz-adv-x="533" 
d="M421 0h-439l6 39q46 24 84 34l101 529q-32 10 -71 35l8 38h437l-30 -155h-50q-15 56 -15 94h-165l-46 -238h133q19 36 42 64h43l-35 -184h-43q-14 27 -17 63h-133l-49 -256h167q17 46 52 99h50zM491 763h-269l13 65h269z" />
    <glyph glyph-name="emacron" unicode="&#x113;" horiz-adv-x="489" 
d="M470 400q0 -167 -324 -170q-4 -22 -4 -54q0 -108 102 -108q73 0 153 41l11 -54q-101 -64 -201 -64q-180 0 -180 168q0 48 9 95.5t31 94t53.5 82t81.5 57.5t111 22q82 0 119.5 -32t37.5 -78zM358 388q0 27 -15.5 44.5t-46.5 17.5q-56 0 -91 -49t-50 -116q203 0 203 103z
M452 675l-13 -68h-265l12 68h266z" />
    <glyph glyph-name="Ebreve" unicode="&#x114;" horiz-adv-x="533" 
d="M421 0h-439l6 39q46 24 84 34l101 529q-32 10 -71 35l8 38h437l-30 -155h-50q-15 56 -15 94h-165l-46 -238h133q19 36 42 64h43l-35 -184h-43q-14 27 -17 63h-133l-49 -256h167q17 46 52 99h50zM519 863q-11 -58 -49 -96t-101 -38t-87 38.5t-13 95.5h55q-5 -28 10 -46
t47 -18q31 0 54 16.5t29 47.5h55z" />
    <glyph glyph-name="ebreve" unicode="&#x115;" horiz-adv-x="489" 
d="M470 400q0 -167 -324 -170q-4 -22 -4 -54q0 -108 102 -108q73 0 153 41l11 -54q-101 -64 -201 -64q-180 0 -180 168q0 48 9 95.5t31 94t53.5 82t81.5 57.5t111 22q82 0 119.5 -32t37.5 -78zM358 388q0 27 -15.5 44.5t-46.5 17.5q-56 0 -91 -49t-50 -116q203 0 203 103z
M455 724q-10 -59 -47.5 -99t-98.5 -40q-62 0 -84.5 40.5t-11.5 98.5h55q-5 -28 9 -47t44 -19q29 0 50 17t28 49h56z" />
    <glyph glyph-name="Edotaccent" unicode="&#x116;" horiz-adv-x="533" 
d="M421 0h-439l6 39q46 24 84 34l101 529q-32 10 -71 35l8 38h437l-30 -155h-50q-15 56 -15 94h-165l-46 -238h133q19 36 42 64h43l-35 -184h-43q-14 27 -17 63h-133l-49 -256h167q17 46 52 99h50zM431 800q0 -30 -20 -50t-49 -20q-27 0 -45 18.5t-18 45.5q0 30 20.5 50
t48.5 20q26 0 44.5 -19t18.5 -45z" />
    <glyph glyph-name="edotaccent" unicode="&#x117;" horiz-adv-x="489" 
d="M470 400q0 -167 -324 -170q-4 -22 -4 -54q0 -108 102 -108q73 0 153 41l11 -54q-101 -64 -201 -64q-180 0 -180 168q0 48 9 95.5t31 94t53.5 82t81.5 57.5t111 22q82 0 119.5 -32t37.5 -78zM358 388q0 27 -15.5 44.5t-46.5 17.5q-56 0 -91 -49t-50 -116q203 0 203 103z
M384 661q0 -31 -20 -50.5t-49 -19.5q-27 0 -45 18.5t-18 45.5q0 32 20 51.5t49 19.5q27 0 45 -19t18 -46z" />
    <glyph glyph-name="Eogonek" unicode="&#x118;" horiz-adv-x="533" 
d="M372 -146l23 -40q-70 -64 -138 -64q-87 0 -87 74q0 49 41.5 98.5t97.5 77.5h-327l6 39q45 23 84 34l101 529q-30 10 -71 35l8 38h437l-30 -155h-50q-15 49 -15 94h-165l-46 -238h133q15 32 42 64h43l-35 -184h-43q-14 31 -17 63h-133l-49 -256h167q19 50 52 99h50
l-30 -162h-7q-52 0 -98 -50.5t-46 -95.5q0 -30 30 -30q32 0 72 30z" />
    <glyph glyph-name="eogonek" unicode="&#x119;" horiz-adv-x="489" 
d="M397 109l11 -54q-103 -57 -141 -92q-60 -53 -60 -109q0 -30 31 -30q33 0 72 30l23 -40q-70 -64 -138 -64q-87 0 -87 74q0 43 31.5 88t91.5 83q-17 -3 -35 -3q-78 0 -123.5 41.5t-45.5 125.5q0 48 9 95.5t31 94t53.5 82t81.5 57.5t111 22q82 0 119.5 -32t37.5 -78
q0 -167 -324 -170q-4 -22 -4 -55q0 -107 102 -107q73 0 153 41zM358 388q0 27 -15.5 44.5t-46.5 17.5q-56 0 -91 -49t-50 -116q203 0 203 103z" />
    <glyph glyph-name="Ecaron" unicode="&#x11a;" horiz-adv-x="533" 
d="M421 0h-439l6 39q46 24 84 34l101 529q-32 10 -71 35l8 38h437l-30 -155h-50q-15 56 -15 94h-165l-46 -238h133q19 36 42 64h43l-35 -184h-43q-14 27 -17 63h-133l-49 -256h167q17 46 52 99h50zM222 842l31 40l115 -64l134 64l22 -42l-167 -113z" />
    <glyph glyph-name="ecaron" unicode="&#x11b;" horiz-adv-x="489" 
d="M470 400q0 -167 -324 -170q-4 -22 -4 -54q0 -108 102 -108q73 0 153 41l11 -54q-101 -64 -201 -64q-180 0 -180 168q0 48 9 95.5t31 94t53.5 82t81.5 57.5t111 22q82 0 119.5 -32t37.5 -78zM358 388q0 27 -15.5 44.5t-46.5 17.5q-56 0 -91 -49t-50 -116q203 0 203 103z
M179 733l36 33l100 -87l122 87l26 -38l-166 -158z" />
    <glyph glyph-name="Gcircumflex" unicode="&#x11c;" horiz-adv-x="692" 
d="M676 344l-7 -41q-33 -23 -64 -34l-41 -220q-128 -59 -254 -59q-131 0 -200 64.5t-69 191.5q0 59 13.5 117.5t46 117t80.5 103.5t122 73t164 28q109 0 200 -25l-33 -171h-51q-13 46 -15 99q-55 26 -131 26q-72 0 -127 -34t-85.5 -89t-45.5 -115t-15 -121q0 -92 47.5 -140
t140.5 -48q57 0 106 17l35 184q-36 12 -67 36l7 40h243zM615 774l-31 -40l-115 64l-134 -64l-22 42l167 113z" />
    <glyph glyph-name="gcircumflex" unicode="&#x11d;" horiz-adv-x="557" 
d="M521 483l-93 -479q-22 -118 -108 -186.5t-205 -68.5q-31 0 -63.5 4t-49.5 8l-17 4l32 93q62 -23 130 -23q80 0 116 31t51 104q23 118 61 221l-2 1q-34 -83 -94.5 -142.5t-130.5 -59.5q-57 0 -90.5 42.5t-33.5 117.5q0 65 18.5 126t55.5 114.5t102.5 86t150.5 32.5
q39 0 81.5 -6.5t65.5 -12.5zM385 350l15 75q-31 22 -80 22q-58 0 -101 -47.5t-61 -109.5t-18 -123q0 -99 56 -99q57 0 113.5 91.5t75.5 190.5zM480 605l-36 -34l-99 87l-122 -87l-27 38l166 158z" />
    <glyph glyph-name="Gbreve" unicode="&#x11e;" horiz-adv-x="692" 
d="M676 344l-7 -41q-33 -23 -64 -34l-41 -220q-128 -59 -254 -59q-131 0 -200 64.5t-69 191.5q0 59 13.5 117.5t46 117t80.5 103.5t122 73t164 28q109 0 200 -25l-33 -171h-51q-13 46 -15 99q-55 26 -131 26q-72 0 -127 -34t-85.5 -89t-45.5 -115t-15 -121q0 -92 47.5 -140
t140.5 -48q57 0 106 17l35 184q-36 12 -67 36l7 40h243zM603 863q-11 -58 -49 -96t-101 -38t-87 38.5t-13 95.5h55q-5 -28 10 -46t47 -18q31 0 54 16.5t29 47.5h55z" />
    <glyph glyph-name="gbreve" unicode="&#x11f;" horiz-adv-x="557" 
d="M521 483l-93 -479q-22 -118 -108 -186.5t-205 -68.5q-31 0 -63.5 4t-49.5 8l-17 4l32 93q62 -23 130 -23q80 0 116 31t51 104q23 118 61 221l-2 1q-34 -83 -94.5 -142.5t-130.5 -59.5q-57 0 -90.5 42.5t-33.5 117.5q0 65 18.5 126t55.5 114.5t102.5 86t150.5 32.5
q39 0 81.5 -6.5t65.5 -12.5zM385 350l15 75q-31 22 -80 22q-58 0 -101 -47.5t-61 -109.5t-18 -123q0 -99 56 -99q57 0 113.5 91.5t75.5 190.5zM485 724q-10 -59 -47.5 -99t-98.5 -40q-62 0 -84.5 40.5t-11.5 98.5h55q-5 -28 9 -47t44 -19q29 0 50 17t28 49h56z" />
    <glyph glyph-name="Gdotaccent" unicode="&#x120;" horiz-adv-x="692" 
d="M676 344l-7 -41q-33 -23 -64 -34l-41 -220q-128 -59 -254 -59q-131 0 -200 64.5t-69 191.5q0 59 13.5 117.5t46 117t80.5 103.5t122 73t164 28q109 0 200 -25l-33 -171h-51q-13 46 -15 99q-55 26 -131 26q-72 0 -127 -34t-85.5 -89t-45.5 -115t-15 -121q0 -92 47.5 -140
t140.5 -48q57 0 106 17l35 184q-36 12 -67 36l7 40h243zM529 800q0 -30 -20 -50t-49 -20q-27 0 -45 18.5t-18 45.5q0 30 20.5 50t48.5 20q26 0 44.5 -19t18.5 -45z" />
    <glyph glyph-name="gdotaccent" unicode="&#x121;" horiz-adv-x="557" 
d="M521 483l-93 -479q-22 -118 -108 -186.5t-205 -68.5q-31 0 -63.5 4t-49.5 8l-17 4l32 93q62 -23 130 -23q80 0 116 31t51 104q23 118 61 221l-2 1q-34 -83 -94.5 -142.5t-130.5 -59.5q-57 0 -90.5 42.5t-33.5 117.5q0 65 18.5 126t55.5 114.5t102.5 86t150.5 32.5
q39 0 81.5 -6.5t65.5 -12.5zM385 350l15 75q-31 22 -80 22q-58 0 -101 -47.5t-61 -109.5t-18 -123q0 -99 56 -99q57 0 113.5 91.5t75.5 190.5zM414 661q0 -31 -20 -50.5t-49 -19.5q-27 0 -45 18.5t-18 45.5q0 32 20 51.5t49 19.5q27 0 45 -19t18 -46z" />
    <glyph glyph-name="Gcommaaccent" unicode="&#x122;" horiz-adv-x="692" 
d="M676 344l-7 -41q-33 -23 -64 -34l-41 -220q-128 -59 -254 -59q-131 0 -200 64.5t-69 191.5q0 59 13.5 117.5t46 117t80.5 103.5t122 73t164 28q109 0 200 -25l-33 -171h-51q-13 46 -15 99q-55 26 -131 26q-72 0 -127 -34t-85.5 -89t-45.5 -115t-15 -121q0 -92 47.5 -140
t140.5 -48q57 0 106 17l35 184q-36 12 -67 36l7 40h243zM351 -100q0 -47 -44 -88.5t-126 -67.5l-13 42q89 45 78 112q-5 23 9.5 40.5t39.5 17.5q26 0 41 -15.5t15 -40.5z" />
    <glyph glyph-name="gcommaaccent" unicode="&#x123;" horiz-adv-x="557" 
d="M521 483l-93 -479q-22 -118 -108 -186.5t-205 -68.5q-31 0 -63.5 4t-49.5 8l-17 4l32 93q62 -23 130 -23q80 0 116 31t51 104q23 118 61 221l-2 1q-34 -83 -94.5 -142.5t-130.5 -59.5q-57 0 -90.5 42.5t-33.5 117.5q0 65 18.5 126t55.5 114.5t102.5 86t150.5 32.5
q39 0 81.5 -6.5t65.5 -12.5zM385 350l15 75q-31 22 -80 22q-58 0 -101 -47.5t-61 -109.5t-18 -123q0 -99 56 -99q57 0 113.5 91.5t75.5 190.5zM465 734q-88 -46 -77 -111q5 -24 -9 -41.5t-40 -17.5t-40.5 16t-14.5 41q0 46 44 88t127 68z" />
    <glyph glyph-name="Hcircumflex" unicode="&#x124;" horiz-adv-x="764" 
d="M681 0h-261l8 39q43 24 76 34l47 243h-321l-47 -243q26 -8 66 -34l-8 -39h-259l6 39q54 26 84 34l101 529q-26 8 -71 35l8 38h260l-8 -38q-48 -26 -77 -35l-42 -218h321l42 218q-23 8 -65 35l8 38h260l-8 -38q-56 -27 -83 -35l-102 -529q29 -9 72 -34zM626 774l-31 -40
l-115 64l-134 -64l-22 42l167 113z" />
    <glyph glyph-name="hcircumflex" unicode="&#x125;" horiz-adv-x="583" 
d="M517 52l-7 -41q-9 -2 -24.5 -5t-63 -7t-94.5 -2q68 268 68 355q0 42 -10 60.5t-35 18.5q-55 0 -112 -92t-76 -193l-28 -146h-109l125 660q-26 12 -67 20l8 41q9 2 25 4.5t64.5 6.5t94.5 3l-44 -229q-12 -66 -57 -198h2q34 82 94.5 141.5t127.5 59.5q110 0 110 -135
q0 -90 -56 -303q25 -12 64 -19zM387 797l-31 -40l-115 64l-134 -64l-22 42l167 113z" />
    <glyph glyph-name="Hbar" unicode="&#x126;" horiz-adv-x="764" 
d="M576 446h-322l-16 -89h321zM687 446l-71 -373q29 -9 72 -34l-7 -39h-261l8 39q43 24 76 34l42 219h-320l-43 -219q26 -8 66 -34l-8 -39h-259l6 39q54 26 84 34l71 373h-78l14 65h77l18 94q-33 9 -72 32l8 38h260l-8 -38q-36 -19 -77 -32l-18 -94h322l17 94q-34 12 -65 32
l8 38h260l-8 -38q-45 -23 -83 -32l-18 -94h78l-13 -65h-78z" />
    <glyph glyph-name="hbar" unicode="&#x127;" horiz-adv-x="586" 
d="M520 52l-7 -41q-9 -2 -24.5 -5t-63 -7t-94.5 -2q68 268 68 352q0 42 -10 60.5t-35 18.5q-55 0 -112 -92t-76 -193l-28 -143h-109l109 571h-79l10 52h78l11 52q-27 10 -68 17l7 37q9 2 25 4.5t64 6.5t94 3l-23 -120h162l-9 -52h-163l-16 -81q-12 -63 -54 -185h2
q34 82 94.5 142t127.5 60q58 0 84.5 -37.5t26.5 -98.5q0 -87 -56 -300q26 -12 64 -19z" />
    <glyph glyph-name="Itilde" unicode="&#x128;" horiz-adv-x="332" 
d="M248 0h-266l6 39q41 22 84 34l101 529q-17 6 -34.5 14.5t-26.5 14.5l-10 6l8 38h266l-8 -38q-40 -22 -83 -35l-102 -529q17 -5 35 -13.5t28 -14.5l9 -6zM413 847l22 -39q-50 -63 -118 -63q-31 0 -68.5 21t-60.5 21q-33 0 -67 -30l-23 38q54 64 118 64q31 0 68.5 -21
t61.5 -21q37 0 67 30z" />
    <glyph glyph-name="itilde" unicode="&#x129;" horiz-adv-x="293" 
d="M246 503l-82 -432q24 -11 64 -20l-7 -40q-8 -2 -23.5 -5t-62.5 -7t-94 -3l82 432q-24 12 -65 20l8 40q8 2 23.5 5t62.5 7t94 3zM356 696l23 -38q-55 -65 -119 -65q-33 0 -67.5 22t-55.5 22q-34 0 -68 -30l-23 38q55 64 119 64q32 0 66.5 -21.5t55.5 -21.5q34 0 69 30z
" />
    <glyph glyph-name="Imacron" unicode="&#x12a;" horiz-adv-x="332" 
d="M248 0h-266l6 39q41 22 84 34l101 529q-17 6 -34.5 14.5t-26.5 14.5l-10 6l8 38h266l-8 -38q-40 -22 -83 -35l-102 -529q17 -5 35 -13.5t28 -14.5l9 -6zM393 763h-269l13 65h269z" />
    <glyph glyph-name="imacron" unicode="&#x12b;" horiz-adv-x="293" 
d="M246 503l-82 -432q24 -11 64 -20l-7 -40q-8 -2 -23.5 -5t-62.5 -7t-94 -3l82 432q-24 12 -65 20l8 40q8 2 23.5 5t62.5 7t94 3zM348 675l-13 -68h-265l12 68h266z" />
    <glyph glyph-name="Ibreve" unicode="&#x12c;" horiz-adv-x="332" 
d="M248 0h-266l6 39q41 22 84 34l101 529q-17 6 -34.5 14.5t-26.5 14.5l-10 6l8 38h266l-8 -38q-40 -22 -83 -35l-102 -529q17 -5 35 -13.5t28 -14.5l9 -6zM399 863q-11 -58 -49 -96t-101 -38t-87 38.5t-13 95.5h55q-5 -28 10 -46t47 -18q31 0 54 16.5t29 47.5h55z" />
    <glyph glyph-name="ibreve" unicode="&#x12d;" horiz-adv-x="293" 
d="M246 503l-82 -432q24 -11 64 -20l-7 -40q-8 -2 -23.5 -5t-62.5 -7t-94 -3l82 432q-24 12 -65 20l8 40q8 2 23.5 5t62.5 7t94 3zM346 724q-10 -59 -47.5 -99t-98.5 -40q-62 0 -84.5 40.5t-11.5 98.5h55q-5 -28 9 -47t44 -19q64 0 78 66h56z" />
    <glyph glyph-name="Iogonek" unicode="&#x12e;" horiz-adv-x="332" 
d="M164 -146l23 -40q-70 -64 -137 -64q-89 0 -89 75q0 44 34.5 90.5t96.5 84.5h-110l6 39q41 22 84 34l101 529q-17 6 -34.5 14.5t-26.5 14.5l-10 6l8 38h266l-8 -38q-40 -22 -83 -35l-102 -529q17 -5 35 -13.5t28 -14.5l9 -6l-7 -39h-81q-53 -35 -79.5 -74.5t-26.5 -71.5
q0 -30 31 -30q33 0 72 30z" />
    <glyph glyph-name="iogonek" unicode="&#x12f;" horiz-adv-x="293" 
d="M228 51l-7 -40q-53 -8 -101 -59t-48 -98q0 -30 31 -30q32 0 71 30l23 -40q-69 -64 -137 -64q-46 0 -67.5 21t-21.5 54q0 44 34 89.5t93 82.5q-24 -1 -57 -1l82 432q-24 12 -65 20l8 40q8 2 23.5 5t62.5 7t94 3l-82 -432q24 -11 64 -20zM293 658q0 -32 -21.5 -52.5
t-53.5 -20.5q-30 0 -49.5 19t-19.5 48q0 33 21.5 53.5t53.5 20.5q30 0 49.5 -19.5t19.5 -48.5z" />
    <glyph glyph-name="Idotaccent" unicode="&#x130;" horiz-adv-x="332" 
d="M248 0h-266l6 39q41 22 84 34l101 529q-17 6 -34.5 14.5t-26.5 14.5l-10 6l8 38h266l-8 -38q-40 -22 -83 -35l-102 -529q17 -5 35 -13.5t28 -14.5l9 -6zM326 800q0 -30 -20 -50t-49 -20q-27 0 -45 18.5t-18 45.5q0 30 20.5 50t48.5 20q26 0 44.5 -19t18.5 -45z" />
    <glyph glyph-name="dotlessi" unicode="&#x131;" horiz-adv-x="293" 
d="M246 503l-82 -432q24 -11 64 -20l-7 -40q-8 -2 -23.5 -5t-62.5 -7t-94 -3l82 432q-24 12 -65 20l8 40q8 2 23.5 5t62.5 7t94 3z" />
    <glyph glyph-name="IJ" unicode="&#x132;" horiz-adv-x="646" 
d="M248 0h-266l6 39q41 22 84 34l101 529q-17 6 -34.5 14.5t-26.5 14.5l-10 6l8 38h266l-8 -38q-40 -22 -83 -35l-102 -529q17 -5 35 -13.5t28 -14.5l9 -6zM690 675l-8 -38q-38 -25 -71 -35l-98 -515q-18 -98 -64.5 -150.5t-138.5 -97.5l-30 55q54 31 79.5 70t43.5 134
l96 504q-29 9 -70 35l8 38h253z" />
    <glyph glyph-name="ij" unicode="&#x133;" horiz-adv-x="564" 
d="M531 503l-105 -549q-17 -89 -70 -137t-139 -67l-9 49q52 17 73.5 48t36.5 111l90 470q-24 12 -65 20l8 40q8 2 23.5 5t62.5 7t94 3zM578 658q0 -32 -21.5 -52.5t-53.5 -20.5q-30 0 -49.5 19t-19.5 48q0 33 21.5 53.5t53.5 20.5q30 0 49.5 -19.5t19.5 -48.5zM293 658
q0 -32 -21.5 -52.5t-53.5 -20.5q-30 0 -49.5 19t-19.5 48q0 33 21.5 53.5t53.5 20.5q30 0 49.5 -19.5t19.5 -48.5zM246 503l-82 -432q24 -11 64 -20l-7 -40q-8 -2 -23.5 -5t-62.5 -7t-94 -3l82 432q-24 12 -65 20l8 40q8 2 23.5 5t62.5 7t94 3z" />
    <glyph glyph-name="Jcircumflex" unicode="&#x134;" horiz-adv-x="314" 
d="M358 675l-8 -38q-38 -25 -71 -35l-98 -515q-18 -98 -64.5 -150.5t-138.5 -97.5l-30 55q54 31 79.5 70t43.5 134l96 504q-29 9 -70 35l8 38h253zM403 774l-31 -40l-115 64l-134 -64l-22 42l167 113z" />
    <glyph glyph-name="jcircumflex" unicode="&#x135;" horiz-adv-x="280" 
d="M246 503l-105 -549q-17 -89 -70 -137t-139 -67l-9 49q52 17 73.5 48t36.5 111l90 470q-24 12 -65 20l8 40q8 2 23.5 5t62.5 7t94 3zM343 605l-36 -34l-99 87l-122 -87l-27 38l166 158z" />
    <glyph glyph-name="Kcommaaccent" unicode="&#x136;" horiz-adv-x="675" 
d="M710 675l-8 -39q-37 -22 -70 -35l-287 -231l212 -296q35 -16 58 -35l-7 -39h-265l7 39q44 26 66 34l-182 262l-50 -262q27 -9 62 -34l-7 -39h-257l6 39q57 27 84 34l101 529q-26 8 -71 35l8 38h253l-8 -38q-27 -19 -70 -35l-46 -239l269 239q-26 13 -48 35l8 38h242z
M335 -100q0 -47 -44 -88.5t-126 -67.5l-13 42q89 45 78 112q-5 23 9.5 40.5t39.5 17.5q26 0 41 -15.5t15 -40.5z" />
    <glyph glyph-name="kcommaaccent" unicode="&#x137;" horiz-adv-x="540" 
d="M520 402q0 -64 -56.5 -105t-161.5 -57l94 -171q31 -9 65 -30l-9 -39h-147l-125 238l-45 -238h-109l125 660q-26 12 -67 20l8 41q9 2 25 4.5t64.5 6.5t94.5 3l-31 -157q-14 -76 -55 -199l2 -1q62 131 188 131q63 0 101.5 -29.5t38.5 -77.5zM404 388q0 25 -15 40.5
t-44 15.5q-49 0 -92 -52.5t-63 -120.5q214 28 214 117zM261 -100q0 -47 -44 -88.5t-126 -67.5l-13 42q89 45 78 112q-5 23 9.5 40.5t39.5 17.5q26 0 41 -15.5t15 -40.5z" />
    <glyph glyph-name="kgreenlandic" unicode="&#x138;" horiz-adv-x="531" 
d="M468 0h-146l-123 250l-48 -250h-109l81 428q-28 13 -65 20l8 40q9 2 24.5 5t62.5 7t93 3l-46 -241l199 238h149l-8 -40q-30 -14 -65 -25l-173 -154l112 -210q15 -5 30.5 -13t23.5 -14l7 -5z" />
    <glyph glyph-name="Lacute" unicode="&#x139;" horiz-adv-x="509" 
d="M432 0h-450l6 39q54 26 84 34l101 529q-26 8 -71 35l8 38h266l-7 -38q-51 -26 -84 -35l-103 -539l179 8q12 34 54 109h50zM483 796l-204 -63l-16 44l188 102z" />
    <glyph glyph-name="lacute" unicode="&#x13a;" horiz-adv-x="279" 
d="M275 735l-127 -664q28 -12 65 -19l-8 -41q-9 -2 -24.5 -5t-62.5 -7t-93 -2l126 663q-26 12 -67 20l8 41q8 2 23.5 4.5t63.5 6.5t96 3zM387 838l-204 -63l-16 44l188 102z" />
    <glyph glyph-name="Lcommaaccent" unicode="&#x13b;" horiz-adv-x="509" 
d="M432 0h-450l6 39q54 26 84 34l101 529q-26 8 -71 35l8 38h266l-7 -38q-51 -26 -84 -35l-103 -539l179 8q12 34 54 109h50zM263 -100q0 -47 -44 -88.5t-126 -67.5l-13 42q89 45 78 112q-5 23 9.5 40.5t39.5 17.5q26 0 41 -15.5t15 -40.5z" />
    <glyph glyph-name="lcommaaccent" unicode="&#x13c;" horiz-adv-x="279" 
d="M275 735l-127 -664q28 -12 65 -19l-8 -41q-9 -2 -24.5 -5t-62.5 -7t-93 -2l126 663q-26 12 -67 20l8 41q8 2 23.5 4.5t63.5 6.5t96 3zM127 -100q0 -47 -44 -88.5t-126 -67.5l-13 42q89 45 78 112q-5 23 9.5 40.5t39.5 17.5q26 0 41 -15.5t15 -40.5z" />
    <glyph glyph-name="Lcaron" unicode="&#x13d;" horiz-adv-x="512" 
d="M432 0h-450l6 39q54 26 84 34l101 529q-26 8 -71 35l8 38h266l-7 -38q-51 -26 -84 -35l-103 -539l179 8q12 34 54 109h50zM569 774l-121 -196l-41 14l82 208z" />
    <glyph glyph-name="lcaron" unicode="&#x13e;" horiz-adv-x="314" 
d="M275 735l-127 -664q28 -12 65 -19l-8 -41q-9 -2 -24.5 -5t-62.5 -7t-93 -2l126 663q-26 12 -67 20l8 41q8 2 23.5 4.5t63.5 6.5t96 3zM443 774l-121 -196l-41 14l82 208z" />
    <glyph glyph-name="Ldot" unicode="&#x13f;" horiz-adv-x="619" 
d="M432 0h-450l6 39q54 26 84 34l101 529q-26 8 -71 35l8 38h266l-7 -38q-51 -26 -84 -35l-103 -539l179 8q12 34 54 109h50zM625 360q0 -32 -20.5 -53t-51.5 -21q-30 0 -49 19.5t-19 48.5q0 31 21 52.5t52 21.5q30 0 48.5 -19.5t18.5 -48.5z" />
    <glyph glyph-name="ldot" unicode="&#x140;" horiz-adv-x="390" 
d="M275 735l-127 -664q28 -12 65 -19l-8 -41q-9 -2 -24.5 -5t-62.5 -7t-93 -2l126 663q-26 12 -67 20l8 41q8 2 23.5 4.5t63.5 6.5t96 3zM405 297q0 -32 -20.5 -53t-51.5 -21q-30 0 -49 19.5t-19 48.5q0 31 21 52.5t52 21.5q30 0 48.5 -19.5t18.5 -48.5z" />
    <glyph glyph-name="Lslash" unicode="&#x141;" horiz-adv-x="530" 
d="M452 0h-450l7 39q60 28 83 34l49 252l-81 -44l-16 54l110 59l40 208q-30 10 -71 35l8 38h265l-7 -38q-47 -24 -84 -35l-28 -147l124 68l16 -55l-153 -81l-61 -324l177 7q20 47 55 103h49z" />
    <glyph glyph-name="lslash" unicode="&#x142;" horiz-adv-x="320" 
d="M341 463l-108 -55l-65 -337q28 -12 65 -19l-8 -41q-9 -2 -24.5 -5t-63 -7t-92.5 -2l67 356l-71 -38l-23 52l107 54l46 239q-26 12 -67 20l8 41q9 2 24.5 4.5t63 6.5t95.5 3l-49 -258l73 38z" />
    <glyph glyph-name="Nacute" unicode="&#x143;" horiz-adv-x="711" 
d="M559 -6h-79l-253 556l-71 -474q34 -14 65 -37l-7 -39h-232l7 39q58 30 81 37l106 526q-34 9 -73 35l8 38h188l228 -496l65 420q-24 10 -60 38l8 38h210l-8 -38q-50 -31 -68 -38zM622 796l-204 -63l-16 44l188 102z" />
    <glyph glyph-name="nacute" unicode="&#x144;" horiz-adv-x="599" 
d="M533 52l-8 -41q-9 -2 -24.5 -5t-63 -7t-93.5 -2q68 277 68 355q0 42 -10.5 60.5t-34.5 18.5q-55 0 -112 -92t-77 -193l-28 -146h-109l82 428q-24 12 -65 20l8 40q8 2 23.5 5t61.5 7t90 3q-13 -77 -51 -195h2q34 82 94.5 141.5t127.5 59.5q110 0 110 -135q0 -90 -56 -303
q26 -12 65 -19zM533 678l-190 -105l-24 42l163 146z" />
    <glyph glyph-name="Ncommaaccent" unicode="&#x145;" horiz-adv-x="711" 
d="M559 -6h-79l-253 556l-71 -474q34 -14 65 -37l-7 -39h-232l7 39q58 30 81 37l106 526q-34 9 -73 35l8 38h188l228 -496l65 420q-24 10 -60 38l8 38h210l-8 -38q-50 -31 -68 -38zM362 -100q0 -47 -44 -88.5t-126 -67.5l-13 42q89 45 78 112q-5 23 9.5 40.5t39.5 17.5
q26 0 41 -15.5t15 -40.5z" />
    <glyph glyph-name="ncommaaccent" unicode="&#x146;" horiz-adv-x="599" 
d="M533 52l-8 -41q-9 -2 -24.5 -5t-63 -7t-93.5 -2q68 277 68 355q0 42 -10.5 60.5t-34.5 18.5q-55 0 -112 -92t-77 -193l-28 -146h-109l82 428q-24 12 -65 20l8 40q8 2 23.5 5t61.5 7t90 3q-13 -77 -51 -195h2q34 82 94.5 141.5t127.5 59.5q110 0 110 -135q0 -90 -56 -303
q26 -12 65 -19zM289 -100q0 -47 -44 -88.5t-126 -67.5l-13 42q89 45 78 112q-5 23 9.5 40.5t39.5 17.5q26 0 41 -15.5t15 -40.5z" />
    <glyph glyph-name="Ncaron" unicode="&#x147;" horiz-adv-x="711" 
d="M559 -6h-79l-253 556l-71 -474q34 -14 65 -37l-7 -39h-232l7 39q58 30 81 37l106 526q-34 9 -73 35l8 38h188l228 -496l65 420q-24 10 -60 38l8 38h210l-8 -38q-50 -31 -68 -38zM308 842l31 40l115 -64l134 64l22 -42l-167 -113z" />
    <glyph glyph-name="ncaron" unicode="&#x148;" horiz-adv-x="599" 
d="M533 52l-8 -41q-9 -2 -24.5 -5t-63 -7t-93.5 -2q68 277 68 355q0 42 -10.5 60.5t-34.5 18.5q-55 0 -112 -92t-77 -193l-28 -146h-109l82 428q-24 12 -65 20l8 40q8 2 23.5 5t61.5 7t90 3q-13 -77 -51 -195h2q34 82 94.5 141.5t127.5 59.5q110 0 110 -135q0 -90 -56 -303
q26 -12 65 -19zM243 733l36 33l100 -87l122 87l26 -38l-166 -158z" />
    <glyph glyph-name="napostrophe" unicode="&#x149;" horiz-adv-x="649" 
d="M583 52l-8 -41q-9 -2 -24.5 -5t-63 -7t-93.5 -2q68 277 68 355q0 42 -10.5 60.5t-34.5 18.5q-55 0 -112 -92t-77 -193l-28 -146h-109l82 428q-24 12 -65 20l8 40q8 2 23.5 5t61.5 7t90 3q-13 -77 -51 -195h2q34 82 94.5 141.5t127.5 59.5q110 0 110 -135q0 -90 -56 -303
q26 -12 65 -19zM188 769q28 0 44.5 -18.5t16.5 -48.5q0 -46 -40.5 -97t-113.5 -99l-25 32q72 56 72 109q0 11 -8 27t-8 31q0 25 18 44.5t44 19.5z" />
    <glyph glyph-name="Eng" unicode="&#x14a;" horiz-adv-x="711" 
d="M674 599l-122 -637q-18 -96 -66.5 -142.5t-142.5 -69.5l-13 48q51 17 74 48t36 97l19 97l-232 510l-71 -474q34 -14 65 -37l-7 -39h-232l7 39q58 30 81 37l106 526q-34 9 -73 35l8 38h188l228 -496l65 420q-24 10 -60 38l8 38h210l-8 -38q-50 -31 -68 -38z" />
    <glyph glyph-name="eng" unicode="&#x14b;" horiz-adv-x="589" 
d="M235 -250l-5 48q43 15 64.5 41.5t40.5 92.5t49 219q28 132 28 201q0 42 -10.5 60.5t-34.5 18.5q-55 0 -112 -92t-77 -193l-28 -146h-109l82 428q-24 12 -65 20l8 40q8 2 23.5 5t61.5 7t90 3q-13 -77 -51 -195h2q34 82 94.5 141.5t127.5 59.5q110 0 110 -135
q0 -78 -23 -203q-17 -87 -31.5 -146t-32.5 -104.5t-35 -72t-44 -46.5t-53.5 -30.5t-69.5 -21.5z" />
    <glyph glyph-name="Omacron" unicode="&#x14c;" horiz-adv-x="724" 
d="M710 435q0 -87 -28.5 -167t-80.5 -142t-130.5 -99t-171.5 -37q-127 0 -193.5 68t-66.5 182q0 87 28.5 167t80.5 142t130.5 99t171.5 37q128 0 194 -68t66 -182zM586 419q0 91 -44.5 143t-125.5 52q-64 0 -114.5 -35t-79 -90.5t-43.5 -115.5t-15 -117q0 -90 44.5 -142
t125.5 -52q64 0 114.5 35t79 90t43.5 115t15 117zM587 763h-269l13 65h269z" />
    <glyph glyph-name="omacron" unicode="&#x14d;" horiz-adv-x="577" 
d="M541 322q0 -137 -86 -234.5t-230 -97.5q-98 0 -147.5 53t-49.5 135q0 136 86.5 233.5t230.5 97.5q98 0 147 -52.5t49 -134.5zM424 310q0 62 -28 98t-84 36q-48 0 -83 -30t-52 -74.5t-24.5 -82.5t-7.5 -68q0 -61 28 -97t84 -36q48 0 83 30t52 74.5t24.5 82.5t7.5 67z
M498 675l-13 -68h-265l12 68h266z" />
    <glyph glyph-name="Obreve" unicode="&#x14e;" horiz-adv-x="724" 
d="M710 435q0 -87 -28.5 -167t-80.5 -142t-130.5 -99t-171.5 -37q-127 0 -193.5 68t-66.5 182q0 87 28.5 167t80.5 142t130.5 99t171.5 37q128 0 194 -68t66 -182zM586 419q0 91 -44.5 143t-125.5 52q-64 0 -114.5 -35t-79 -90.5t-43.5 -115.5t-15 -117q0 -90 44.5 -142
t125.5 -52q64 0 114.5 35t79 90t43.5 115t15 117zM595 863q-11 -58 -49 -96t-101 -38t-87 38.5t-13 95.5h55q-5 -28 10 -46t47 -18q31 0 54 16.5t29 47.5h55z" />
    <glyph glyph-name="obreve" unicode="&#x14f;" horiz-adv-x="577" 
d="M541 322q0 -137 -86 -234.5t-230 -97.5q-98 0 -147.5 53t-49.5 135q0 136 86.5 233.5t230.5 97.5q98 0 147 -52.5t49 -134.5zM424 310q0 62 -28 98t-84 36q-48 0 -83 -30t-52 -74.5t-24.5 -82.5t-7.5 -68q0 -61 28 -97t84 -36q48 0 83 30t52 74.5t24.5 82.5t7.5 67z
M494 724q-10 -59 -47.5 -99t-98.5 -40q-62 0 -84.5 40.5t-11.5 98.5h55q-5 -28 9 -47t44 -19q64 0 78 66h56z" />
    <glyph glyph-name="Ohungarumlaut" unicode="&#x150;" horiz-adv-x="724" 
d="M710 435q0 -87 -28.5 -167t-80.5 -142t-130.5 -99t-171.5 -37q-127 0 -193.5 68t-66.5 182q0 87 28.5 167t80.5 142t130.5 99t171.5 37q128 0 194 -68t66 -182zM586 419q0 91 -44.5 143t-125.5 52q-64 0 -114.5 -35t-79 -90.5t-43.5 -115.5t-15 -117q0 -90 44.5 -142
t125.5 -52q64 0 114.5 35t79 90t43.5 115t15 117zM741 815l-197 -91l-24 39l178 126zM545 835l-188 -108l-28 35l166 141z" />
    <glyph glyph-name="ohungarumlaut" unicode="&#x151;" horiz-adv-x="577" 
d="M541 322q0 -137 -86 -234.5t-230 -97.5q-98 0 -147.5 53t-49.5 135q0 136 86.5 233.5t230.5 97.5q98 0 147 -52.5t49 -134.5zM424 310q0 62 -28 98t-84 36q-48 0 -83 -30t-52 -74.5t-24.5 -82.5t-7.5 -68q0 -61 28 -97t84 -36q48 0 83 30t52 74.5t24.5 82.5t7.5 67z
M614 691l-182 -122l-31 37l155 158zM430 713l-168 -144l-35 32l135 176z" />
    <glyph glyph-name="OE" unicode="&#x152;" horiz-adv-x="869" 
d="M883 675l-29 -155h-51q-14 54 -14 94h-166l-45 -238h133q14 29 41 64h43l-35 -184h-43q-14 31 -17 63h-133l-49 -256h167q21 52 52 99h50l-30 -162h-357q-55 -10 -101 -10q-127 0 -193.5 68t-66.5 182q0 87 28.5 167t80.5 142t130.5 99t171.5 37q42 0 95 -10h338zM409 75
l99 519q-44 20 -92 20q-64 0 -114.5 -35t-79 -90.5t-43.5 -115.5t-15 -117q0 -90 44.5 -142t125.5 -52q40 0 75 13z" />
    <glyph glyph-name="oe" unicode="&#x153;" horiz-adv-x="870" 
d="M850 400q0 -167 -323 -170q-4 -22 -4 -54q0 -108 102 -108q71 0 153 42l11 -54q-100 -65 -202 -65q-126 0 -153 91q-84 -92 -209 -92q-98 0 -147.5 53t-49.5 135q0 136 86.5 233.5t230.5 97.5q119 0 162 -85q66 86 187 86q81 0 118.5 -32t37.5 -78zM424 310q0 62 -28 98
t-84 36q-48 0 -83 -30t-52 -74.5t-24.5 -82.5t-7.5 -68q0 -61 28 -97t84 -36q48 0 83 30t52 74.5t24.5 82.5t7.5 67zM739 388q0 27 -15.5 44.5t-46.5 17.5q-56 0 -91 -49t-50 -116q203 0 203 103z" />
    <glyph glyph-name="Racute" unicode="&#x154;" horiz-adv-x="614" 
d="M559 52l-1 -47q-49 -16 -93 -16q-34 0 -53.5 32t-27.5 78.5l-16 92.5t-27.5 78t-53.5 32h-60l-44 -229q15 -6 30.5 -14.5t22.5 -14.5l8 -5l-7 -39h-255l6 39q41 22 84 34l101 529q-17 6 -34.5 14.5t-26.5 14.5l-10 6l8 38h70q14 0 86 2t121 2q100 0 151.5 -37t51.5 -104
q0 -84 -51 -136t-134 -73q32 -6 50.5 -39.5t24.5 -75t12.5 -81.5t22 -63.5t44.5 -17.5zM471 527q0 45 -29.5 68.5t-85.5 23.5l-69 -6l-48 -251h67q80 0 122.5 49.5t42.5 115.5zM539 796l-204 -63l-16 44l188 102z" />
    <glyph glyph-name="racute" unicode="&#x155;" horiz-adv-x="396" 
d="M433 502l-31 -108q-26 15 -46 15q-36 0 -74 -50.5t-64 -115t-37 -122.5l-23 -121h-109l82 428q-32 14 -70 20l7 40q111 18 181 15q-19 -97 -51 -195h2q90 202 191 202q20 0 42 -8zM449 678l-190 -105l-24 42l163 146z" />
    <glyph glyph-name="Rcommaaccent" unicode="&#x156;" horiz-adv-x="614" 
d="M559 52l-1 -47q-49 -16 -93 -16q-34 0 -53.5 32t-27.5 78.5l-16 92.5t-27.5 78t-53.5 32h-60l-44 -229q15 -6 30.5 -14.5t22.5 -14.5l8 -5l-7 -39h-255l6 39q41 22 84 34l101 529q-17 6 -34.5 14.5t-26.5 14.5l-10 6l8 38h70q14 0 86 2t121 2q100 0 151.5 -37t51.5 -104
q0 -84 -51 -136t-134 -73q32 -6 50.5 -39.5t24.5 -75t12.5 -81.5t22 -63.5t44.5 -17.5zM471 527q0 45 -29.5 68.5t-85.5 23.5l-69 -6l-48 -251h67q80 0 122.5 49.5t42.5 115.5zM334 -100q0 -47 -44 -88.5t-126 -67.5l-13 42q89 45 78 112q-5 23 9.5 40.5t39.5 17.5
q26 0 41 -15.5t15 -40.5z" />
    <glyph glyph-name="rcommaaccent" unicode="&#x157;" horiz-adv-x="396" 
d="M433 502l-31 -108q-26 15 -46 15q-36 0 -74 -50.5t-64 -115t-37 -122.5l-23 -121h-109l82 428q-32 14 -70 20l7 40q111 18 181 15q-19 -97 -51 -195h2q90 202 191 202q20 0 42 -8zM150 -100q0 -47 -44 -88.5t-126 -67.5l-13 42q89 45 78 112q-5 23 9.5 40.5t39.5 17.5
q26 0 41 -15.5t15 -40.5z" />
    <glyph glyph-name="Rcaron" unicode="&#x158;" horiz-adv-x="614" 
d="M559 52l-1 -47q-49 -16 -93 -16q-34 0 -53.5 32t-27.5 78.5l-16 92.5t-27.5 78t-53.5 32h-60l-44 -229q15 -6 30.5 -14.5t22.5 -14.5l8 -5l-7 -39h-255l6 39q41 22 84 34l101 529q-17 6 -34.5 14.5t-26.5 14.5l-10 6l8 38h70q14 0 86 2t121 2q100 0 151.5 -37t51.5 -104
q0 -84 -51 -136t-134 -73q32 -6 50.5 -39.5t24.5 -75t12.5 -81.5t22 -63.5t44.5 -17.5zM471 527q0 45 -29.5 68.5t-85.5 23.5l-69 -6l-48 -251h67q80 0 122.5 49.5t42.5 115.5zM240 842l31 40l115 -64l134 64l22 -42l-167 -113z" />
    <glyph glyph-name="rcaron" unicode="&#x159;" horiz-adv-x="396" 
d="M433 502l-31 -108q-26 15 -46 15q-36 0 -74 -50.5t-64 -115t-37 -122.5l-23 -121h-109l82 428q-32 14 -70 20l7 40q111 18 181 15q-19 -97 -51 -195h2q90 202 191 202q20 0 42 -8zM159 733l36 33l100 -87l122 87l26 -38l-166 -158z" />
    <glyph glyph-name="Sacute" unicode="&#x15a;" horiz-adv-x="495" 
d="M485 670l-31 -166h-50q-18 51 -16 98q-33 10 -69 10q-56 0 -83 -32t-27 -77q0 -33 23.5 -61t56.5 -49.5l66 -45t56.5 -59.5t23.5 -81q0 -96 -83.5 -156.5t-192.5 -60.5q-80 0 -153 19l35 183h51q13 -54 15 -103q38 -19 85 -19q61 0 92 32t31 79q0 34 -23.5 63t-56.5 50.5
l-66 45t-56.5 59t-23.5 79.5q0 93 76 150t184 57q68 0 136 -15zM509 796l-204 -63l-16 44l188 102z" />
    <glyph glyph-name="sacute" unicode="&#x15b;" horiz-adv-x="428" 
d="M390 496l-26 -138h-47q-13 38 -13 79q-24 13 -54 13q-33 0 -52 -19.5t-19 -50.5q0 -23 18.5 -43t44.5 -36l52.5 -33.5t45 -45t18.5 -62.5q0 -74 -64.5 -121t-156.5 -47q-31 0 -63.5 4t-49.5 8l-17 3l28 147h47q11 -40 13 -79q35 -18 70 -18q38 0 60.5 19.5t22.5 53.5
q0 25 -18 45.5t-44 36.5l-52.5 33.5t-44.5 44.5t-18 62q0 71 58.5 114t145.5 43q28 0 57 -3.5t44 -6.5zM434 678l-190 -105l-24 42l163 146z" />
    <glyph glyph-name="Scircumflex" unicode="&#x15c;" horiz-adv-x="495" 
d="M485 670l-31 -166h-50q-18 51 -16 98q-33 10 -69 10q-56 0 -83 -32t-27 -77q0 -33 23.5 -61t56.5 -49.5l66 -45t56.5 -59.5t23.5 -81q0 -96 -83.5 -156.5t-192.5 -60.5q-80 0 -153 19l35 183h51q13 -54 15 -103q38 -19 85 -19q61 0 92 32t31 79q0 34 -23.5 63t-56.5 50.5
l-66 45t-56.5 59t-23.5 79.5q0 93 76 150t184 57q68 0 136 -15zM494 774l-31 -40l-115 64l-134 -64l-22 42l167 113z" />
    <glyph glyph-name="scircumflex" unicode="&#x15d;" horiz-adv-x="428" 
d="M390 496l-26 -138h-47q-13 38 -13 79q-24 13 -54 13q-33 0 -52 -19.5t-19 -50.5q0 -23 18.5 -43t44.5 -36l52.5 -33.5t45 -45t18.5 -62.5q0 -74 -64.5 -121t-156.5 -47q-31 0 -63.5 4t-49.5 8l-17 3l28 147h47q11 -40 13 -79q35 -18 70 -18q38 0 60.5 19.5t22.5 53.5
q0 25 -18 45.5t-44 36.5l-52.5 33.5t-44.5 44.5t-18 62q0 71 58.5 114t145.5 43q28 0 57 -3.5t44 -6.5zM417 605l-36 -34l-99 87l-122 -87l-27 38l166 158z" />
    <glyph glyph-name="Scedilla" unicode="&#x15e;" horiz-adv-x="495" 
d="M485 670l-31 -166h-50q-18 51 -16 98q-33 10 -69 10q-56 0 -83 -32t-27 -77q0 -33 23.5 -61t56.5 -49.5l66 -45t56.5 -59.5t23.5 -81q0 -84 -64.5 -140.5t-154.5 -71.5l-45 -49q62 -37 33.5 -93t-129.5 -104l-38 29q129 76 31 126l80 86q-75 1 -142 19l35 183h51
q13 -54 15 -103q38 -19 85 -19q61 0 92 32t31 79q0 34 -23.5 63t-56.5 50.5l-66 45t-56.5 59t-23.5 79.5q0 93 76 150t184 57q68 0 136 -15z" />
    <glyph glyph-name="scedilla" unicode="&#x15f;" horiz-adv-x="428" 
d="M390 496l-26 -138h-47q-13 38 -13 79q-24 13 -54 13q-33 0 -52 -19.5t-19 -50.5q0 -23 18.5 -43t44.5 -36l52.5 -33.5t45 -45t18.5 -62.5q0 -64 -49.5 -108.5t-125.5 -56.5l-45 -49q62 -37 33.5 -93t-129.5 -104l-38 29q129 75 32 126l81 89q-26 1 -53.5 4.5t-41.5 6.5
l-15 3l28 147h47q11 -40 13 -79q35 -18 70 -18q38 0 60.5 19.5t22.5 53.5q0 25 -18 45.5t-44 36.5l-52.5 33.5t-44.5 44.5t-18 62q0 71 58.5 114t145.5 43q28 0 57 -3.5t44 -6.5z" />
    <glyph glyph-name="Scaron" unicode="&#x160;" horiz-adv-x="495" 
d="M485 670l-31 -166h-50q-18 51 -16 98q-33 10 -69 10q-56 0 -83 -32t-27 -77q0 -33 23.5 -61t56.5 -49.5l66 -45t56.5 -59.5t23.5 -81q0 -96 -83.5 -156.5t-192.5 -60.5q-80 0 -153 19l35 183h51q13 -54 15 -103q38 -19 85 -19q61 0 92 32t31 79q0 34 -23.5 63t-56.5 50.5
l-66 45t-56.5 59t-23.5 79.5q0 93 76 150t184 57q68 0 136 -15zM203 842l31 40l115 -64l134 64l22 -42l-167 -113z" />
    <glyph glyph-name="scaron" unicode="&#x161;" horiz-adv-x="428" 
d="M390 496l-26 -138h-47q-13 38 -13 79q-24 13 -54 13q-33 0 -52 -19.5t-19 -50.5q0 -23 18.5 -43t44.5 -36l52.5 -33.5t45 -45t18.5 -62.5q0 -74 -64.5 -121t-156.5 -47q-31 0 -63.5 4t-49.5 8l-17 3l28 147h47q11 -40 13 -79q35 -18 70 -18q38 0 60.5 19.5t22.5 53.5
q0 25 -18 45.5t-44 36.5l-52.5 33.5t-44.5 44.5t-18 62q0 71 58.5 114t145.5 43q28 0 57 -3.5t44 -6.5zM145 733l36 33l100 -87l122 87l26 -38l-166 -158z" />
    <glyph glyph-name="uni0162" unicode="&#x162;" horiz-adv-x="567" 
d="M595 505h-46q-17 52 -19 109h-126l-102 -541q19 -6 38.5 -14.5t29.5 -14.5l9 -5l-7 -39h-97l-50 -54q62 -37 33.5 -93t-129.5 -104l-37 29q129 76 31 126l88 96h-118l7 39q42 22 90 35l103 540h-125q-10 -25 -25 -52t-25 -42l-10 -15h-46l32 170h534z" />
    <glyph glyph-name="uni0163" unicode="&#x163;" horiz-adv-x="365" 
d="M373 500l-12 -60h-130l-54 -286q-10 -45 -4 -65t32 -20q41 0 80 24l11 -50q-62 -44 -116 -50l-43 -47q62 -37 33.5 -93t-129.5 -104l-37 29q129 76 31 126l85 92q-80 17 -54 152l56 292h-77l12 60h77l71 146h65l-27 -146h130z" />
    <glyph glyph-name="Tcaron" unicode="&#x164;" horiz-adv-x="567" 
d="M595 505h-46q-17 52 -19 109h-126l-102 -541q19 -6 38.5 -14.5t29.5 -14.5l9 -5l-7 -39h-279l7 39q42 22 90 35l103 540h-125q-10 -25 -25 -52t-25 -42l-10 -15h-46l32 170h534zM228 842l31 40l115 -64l134 64l22 -42l-167 -113z" />
    <glyph glyph-name="tcaron" unicode="&#x165;" horiz-adv-x="378" 
d="M373 500l-12 -60h-130l-54 -286q-10 -45 -4 -65t32 -20q41 0 80 24l11 -50q-72 -52 -138 -52q-123 0 -92 157l56 292h-77l12 60h77l71 146h65l-27 -146h130zM470 774l-121 -196l-41 14l82 208z" />
    <glyph glyph-name="Tbar" unicode="&#x166;" horiz-adv-x="567" 
d="M595 505h-46q-17 56 -19 109h-126l-45 -239h141l-11 -60h-141l-46 -242q28 -8 70 -34l-6 -39h-266l7 39q45 24 83 34l47 242h-142l11 60h142l45 239h-125q-19 -49 -60 -109h-46l32 170h534z" />
    <glyph glyph-name="tbar" unicode="&#x167;" horiz-adv-x="365" 
d="M373 500l-12 -60h-130l-24 -126h111l-11 -59h-111l-19 -101q-10 -45 -4 -65t32 -20q41 0 80 24l11 -50q-72 -52 -138 -52q-64 0 -85.5 39.5t-6.5 117.5l20 107h-58l11 59h59l24 126h-77l12 60h77l71 146h65l-27 -146h130z" />
    <glyph glyph-name="Utilde" unicode="&#x168;" horiz-adv-x="710" 
d="M756 675l-8 -38q-38 -27 -69 -37l-67 -341q-24 -129 -106 -199.5t-207 -70.5q-135 0 -184 71t-28 183l68 359q-32 12 -53 35l8 38h244l-8 -38q-44 -25 -79 -35l-68 -357q-34 -182 128 -182q85 0 136 51t67 146l61 340q-28 8 -65 37l8 38h222zM612 847l22 -39
q-50 -63 -118 -63q-31 0 -68.5 21t-60.5 21q-33 0 -67 -30l-23 38q54 64 118 64q31 0 68.5 -21t61.5 -21q37 0 67 30z" />
    <glyph glyph-name="utilde" unicode="&#x169;" horiz-adv-x="598" 
d="M551 503l-83 -432q24 -11 64 -20l-7 -40q-9 -2 -24 -5t-61 -7t-90 -3q13 79 51 195l-2 1q-34 -82 -94.5 -142t-127.5 -60q-58 0 -84 37.5t-26 98.5q0 96 55 302q-25 12 -64 20l8 41q9 2 24.5 4.5t62.5 6.5t94 3q-68 -272 -68 -355q0 -43 10.5 -61.5t34.5 -18.5
q55 0 112 92t77 194l14 75q-24 11 -62 19l8 40q8 2 23 5t61.5 7t93.5 3zM515 696l23 -38q-55 -65 -119 -65q-33 0 -68 22t-55 22q-34 0 -68 -30l-23 38q55 64 119 64q32 0 67 -21.5t55 -21.5q34 0 69 30z" />
    <glyph glyph-name="Umacron" unicode="&#x16a;" horiz-adv-x="710" 
d="M756 675l-8 -38q-38 -27 -69 -37l-67 -341q-24 -129 -106 -199.5t-207 -70.5q-135 0 -184 71t-28 183l68 359q-32 12 -53 35l8 38h244l-8 -38q-44 -25 -79 -35l-68 -357q-34 -182 128 -182q85 0 136 51t67 146l61 340q-28 8 -65 37l8 38h222zM584 763h-269l13 65h269z
" />
    <glyph glyph-name="umacron" unicode="&#x16b;" horiz-adv-x="598" 
d="M551 503l-83 -432q24 -11 64 -20l-7 -40q-9 -2 -24 -5t-61 -7t-90 -3q13 79 51 195l-2 1q-34 -82 -94.5 -142t-127.5 -60q-58 0 -84 37.5t-26 98.5q0 96 55 302q-25 12 -64 20l8 41q9 2 24.5 4.5t62.5 6.5t94 3q-68 -272 -68 -355q0 -43 10.5 -61.5t34.5 -18.5
q55 0 112 92t77 194l14 75q-24 11 -62 19l8 40q8 2 23 5t61.5 7t93.5 3zM507 675l-13 -68h-265l12 68h266z" />
    <glyph glyph-name="Ubreve" unicode="&#x16c;" horiz-adv-x="710" 
d="M756 675l-8 -38q-38 -27 -69 -37l-67 -341q-24 -129 -106 -199.5t-207 -70.5q-135 0 -184 71t-28 183l68 359q-32 12 -53 35l8 38h244l-8 -38q-44 -25 -79 -35l-68 -357q-34 -182 128 -182q85 0 136 51t67 146l61 340q-28 8 -65 37l8 38h222zM597 863q-11 -58 -49 -96
t-101 -38t-87 38.5t-13 95.5h55q-5 -28 10 -46t47 -18q31 0 54 16.5t29 47.5h55z" />
    <glyph glyph-name="ubreve" unicode="&#x16d;" horiz-adv-x="598" 
d="M551 503l-83 -432q24 -11 64 -20l-7 -40q-9 -2 -24 -5t-61 -7t-90 -3q13 79 51 195l-2 1q-34 -82 -94.5 -142t-127.5 -60q-58 0 -84 37.5t-26 98.5q0 96 55 302q-25 12 -64 20l8 41q9 2 24.5 4.5t62.5 6.5t94 3q-68 -272 -68 -355q0 -43 10.5 -61.5t34.5 -18.5
q55 0 112 92t77 194l14 75q-24 11 -62 19l8 40q8 2 23 5t61.5 7t93.5 3zM503 724q-10 -59 -47.5 -99t-98.5 -40q-62 0 -84.5 40.5t-11.5 98.5h55q-5 -28 9 -47t44 -19q29 0 50 17t28 49h56z" />
    <glyph glyph-name="Uring" unicode="&#x16e;" horiz-adv-x="710" 
d="M756 675l-8 -38q-38 -27 -69 -37l-67 -341q-24 -129 -106 -199.5t-207 -70.5q-135 0 -184 71t-28 183l68 359q-32 12 -53 35l8 38h244l-8 -38q-44 -25 -79 -35l-68 -357q-34 -182 128 -182q85 0 136 51t67 146l61 340q-28 8 -65 37l8 38h222zM575 829q0 -57 -38.5 -91
t-97.5 -34q-45 0 -70 22.5t-25 57.5q0 54 37 89t98 35q45 0 70.5 -22.5t25.5 -56.5zM514 818q0 21 -12.5 34.5t-34.5 13.5q-27 0 -45 -20t-18 -52q0 -21 12.5 -34.5t34.5 -13.5q27 0 45 21t18 51z" />
    <glyph glyph-name="uring" unicode="&#x16f;" horiz-adv-x="598" 
d="M551 503l-83 -432q24 -11 64 -20l-7 -40q-9 -2 -24 -5t-61 -7t-90 -3q13 79 51 195l-2 1q-34 -82 -94.5 -142t-127.5 -60q-58 0 -84 37.5t-26 98.5q0 96 55 302q-25 12 -64 20l8 41q9 2 24.5 4.5t62.5 6.5t94 3q-68 -272 -68 -355q0 -43 10.5 -61.5t34.5 -18.5
q55 0 112 92t77 194l14 75q-24 11 -62 19l8 40q8 2 23 5t61.5 7t93.5 3zM496 689q0 -60 -41 -97t-104 -37q-49 0 -76 24.5t-27 62.5q0 58 40 95.5t104 37.5q50 0 77 -24.5t27 -61.5zM429 678q0 22 -13 36t-36 14q-29 0 -47 -21t-18 -55q0 -22 12.5 -36t35.5 -14
q29 0 47.5 22t18.5 54z" />
    <glyph glyph-name="Uhungarumlaut" unicode="&#x170;" horiz-adv-x="710" 
d="M756 675l-8 -38q-38 -27 -69 -37l-67 -341q-24 -129 -106 -199.5t-207 -70.5q-135 0 -184 71t-28 183l68 359q-32 12 -53 35l8 38h244l-8 -38q-44 -25 -79 -35l-68 -357q-34 -182 128 -182q85 0 136 51t67 146l61 340q-28 8 -65 37l8 38h222zM731 815l-197 -91l-24 39
l178 126zM535 835l-188 -108l-28 35l166 141z" />
    <glyph glyph-name="uhungarumlaut" unicode="&#x171;" horiz-adv-x="598" 
d="M551 503l-83 -432q24 -11 64 -20l-7 -40q-9 -2 -24 -5t-61 -7t-90 -3q13 79 51 195l-2 1q-34 -82 -94.5 -142t-127.5 -60q-58 0 -84 37.5t-26 98.5q0 96 55 302q-25 12 -64 20l8 41q9 2 24.5 4.5t62.5 6.5t94 3q-68 -272 -68 -355q0 -43 10.5 -61.5t34.5 -18.5
q55 0 112 92t77 194l14 75q-24 11 -62 19l8 40q8 2 23 5t61.5 7t93.5 3zM617 691l-182 -122l-31 37l155 158zM433 713l-168 -144l-35 32l135 176z" />
    <glyph glyph-name="Uogonek" unicode="&#x172;" horiz-adv-x="710" 
d="M755 675l-7 -38q-39 -28 -69 -37l-67 -341q-22 -116 -92 -186q-21 -21 -76 -56t-80 -60q-52 -52 -52 -103q0 -30 31 -30q33 0 72 30l23 -40q-70 -64 -137 -64q-89 0 -89 75q0 45 34.5 90.5t94.5 79.5q-19 -5 -46 -5q-132 0 -180.5 70.5t-27.5 181.5l68 360q-29 11 -53 35
l8 38h243l-7 -38q-40 -24 -79 -35l-68 -356q-34 -183 128 -183q85 0 136 51t67 146l61 340q-26 8 -65 37l8 38h221z" />
    <glyph glyph-name="uogonek" unicode="&#x173;" horiz-adv-x="598" 
d="M532 51l-7 -40q-59 -9 -106 -59.5t-47 -97.5q0 -30 31 -30q34 0 71 30l24 -40q-70 -64 -137 -64q-89 0 -89 75q0 44 34 89.5t94 83.5l-50 -2q13 79 51 195l-2 1q-34 -82 -94.5 -142t-127.5 -60q-58 0 -84 37.5t-26 98.5q0 96 55 302q-25 12 -64 20l8 41q9 2 24.5 4.5
t62.5 6.5t94 3q-68 -272 -68 -355q0 -43 10.5 -61.5t34.5 -18.5q55 0 112 92t77 194l14 75q-24 11 -62 19l8 40q8 2 23 5t61.5 7t93.5 3l-83 -432q24 -11 64 -20z" />
    <glyph glyph-name="Wcircumflex" unicode="&#x174;" horiz-adv-x="930" 
d="M998 675l-8 -38q-26 -23 -59 -36l-271 -606h-97l-54 520h-1l-231 -520h-104l-46 607q-21 10 -46 35l8 38h238l-8 -38q-31 -21 -76 -35l30 -456h1l235 532h94l57 -532h1l174 455q-35 12 -62 36l8 38h217zM717 774l-31 -40l-115 64l-134 -64l-22 42l167 113z" />
    <glyph glyph-name="wcircumflex" unicode="&#x175;" horiz-adv-x="785" 
d="M793 489l-248 -492h-108l-30 304l-151 -304h-106l-49 431q-22 12 -58 20l8 40q8 2 21.5 4.5t54 7t79.5 3.5l37 -399h2l144 298l-2 26q-25 12 -62 21l8 39q8 2 22 4.5t56 7t82 3.5l34 -399h1l163 415zM611 605l-36 -34l-99 87l-122 -87l-27 38l166 158z" />
    <glyph glyph-name="Ycircumflex" unicode="&#x176;" horiz-adv-x="584" 
d="M384 39l-7 -39h-267l8 39q50 25 83 34l40 205l-121 326q-24 12 -42 33l8 38h232l-8 -38q-30 -22 -67 -33l89 -251h1l161 249q-30 12 -55 35l8 38h205l-7 -38q-24 -21 -54 -35l-239 -324l-39 -205q27 -8 71 -34zM549 774l-31 -40l-115 64l-134 -64l-22 42l167 113z" />
    <glyph glyph-name="ycircumflex" unicode="&#x177;" horiz-adv-x="529" 
d="M530 490q-89 -208 -194 -391.5t-190 -267.5q-81 -82 -175 -82l-41 3l25 86q24 -8 55 -8q51 0 96.5 63.5t45.5 147.5q0 152 -53 387q-20 12 -56 20l8 40q7 2 20.5 4.5t54 7t79.5 3.5q50 -248 50 -385v-35h1q88 182 167 436zM472 605l-36 -34l-99 87l-122 -87l-27 38
l166 158z" />
    <glyph glyph-name="Ydieresis" unicode="&#x178;" horiz-adv-x="584" 
d="M384 39l-7 -39h-267l8 39q50 25 83 34l40 205l-121 326q-24 12 -42 33l8 38h232l-8 -38q-30 -22 -67 -33l89 -251h1l161 249q-30 12 -55 35l8 38h205l-7 -38q-24 -21 -54 -35l-239 -324l-39 -205q27 -8 71 -34zM551 793q0 -26 -18 -44t-43 -18q-26 0 -41.5 15.5
t-15.5 41.5q0 25 18 43t44 18q25 0 40.5 -15.5t15.5 -40.5zM349 793q0 -26 -18 -44t-43 -18q-26 0 -41.5 15.5t-15.5 41.5q0 25 18 43t44 18q25 0 40.5 -15.5t15.5 -40.5z" />
    <glyph glyph-name="Zacute" unicode="&#x179;" horiz-adv-x="542" 
d="M579 675l-12 -61l-437 -551l253 8q24 55 59 105h49l-32 -176h-473l11 61l437 551l-235 -6q-26 -59 -60 -102h-48l38 171h450zM535 796l-204 -63l-16 44l188 102z" />
    <glyph glyph-name="zacute" unicode="&#x17a;" horiz-adv-x="464" 
d="M455 500l-12 -63l-313 -378h173q23 47 49 86h43l-26 -145h-376l11 63l316 380h-160q-21 -45 -51 -82h-45l32 139h359zM459 678l-190 -105l-24 42l163 146z" />
    <glyph glyph-name="Zdotaccent" unicode="&#x17b;" horiz-adv-x="542" 
d="M579 675l-12 -61l-437 -551l253 8q24 55 59 105h49l-32 -176h-473l11 61l437 551l-235 -6q-26 -59 -60 -102h-48l38 171h450zM433 800q0 -30 -20 -50t-49 -20q-27 0 -45 18.5t-18 45.5q0 30 20.5 50t48.5 20q26 0 44.5 -19t18.5 -45z" />
    <glyph glyph-name="zdotaccent" unicode="&#x17c;" horiz-adv-x="464" 
d="M455 500l-12 -63l-313 -378h173q23 47 49 86h43l-26 -145h-376l11 63l316 380h-160q-21 -45 -51 -82h-45l32 139h359zM368 658q0 -31 -20 -50.5t-49 -19.5q-27 0 -45 18.5t-18 45.5q0 32 20 51.5t49 19.5q27 0 45 -19t18 -46z" />
    <glyph glyph-name="Zcaron" unicode="&#x17d;" horiz-adv-x="542" 
d="M579 675l-12 -61l-437 -551l253 8q24 55 59 105h49l-32 -176h-473l11 61l437 551l-235 -6q-26 -59 -60 -102h-48l38 171h450zM223 842l31 40l115 -64l134 64l22 -42l-167 -113z" />
    <glyph glyph-name="zcaron" unicode="&#x17e;" horiz-adv-x="464" 
d="M455 500l-12 -63l-313 -378h173q23 47 49 86h43l-26 -145h-376l11 63l316 380h-160q-21 -45 -51 -82h-45l32 139h359zM171 733l36 33l100 -87l122 87l26 -38l-166 -158z" />
    <glyph glyph-name="longs" unicode="&#x17f;" horiz-adv-x="318" 
d="M450 588h-44q-14 38 -14 83q-17 9 -39 9q-38 0 -58 -27.5t-31 -86.5l-116 -601q-41 -216 -232 -216q-56 0 -103 18l26 131h44q14 -47 14 -83q17 -10 38 -10q39 0 63.5 34.5t40.5 119.5l90 469q-49 16 -72 20l9 42q39 11 77 14l9 49q17 88 72.5 135.5t148.5 47.5
q58 0 103 -15z" />
    <glyph glyph-name="uni0181" unicode="&#x181;" horiz-adv-x="702" 
d="M690 543q0 -65 -45.5 -113.5t-108.5 -62.5v-1q56 -8 88.5 -43t32.5 -90q0 -98 -85.5 -167t-224.5 -69q-20 0 -86.5 1.5t-102.5 1.5h-89l7 39q37 17 93 34l102 536q-62 -13 -91.5 -56.5t-29.5 -96.5q0 -18 3 -38l-95 -22q-4 17 -4 38q0 113 84 179.5t267 66.5h43
q242 0 242 -137zM571 527q0 92 -140 92q-29 0 -46 -1l-46 -238q14 -1 64 -1q76 0 122 42t46 106zM536 225q0 98 -146 98q-48 0 -62 -1l-48 -250q47 -13 79 -13q87 0 132 50t45 116z" />
    <glyph glyph-name="uni018A" unicode="&#x18a;" horiz-adv-x="805" 
d="M444 680h27q168 0 245 -60t77 -176q0 -83 -27 -160.5t-79 -143t-140 -105t-199 -39.5q-44 0 -107 2t-84 2h-87l6 39q60 25 93 34l101 529q-51 -12 -85.5 -53t-34.5 -93q0 -18 3 -38l-95 -22q-4 17 -4 38q0 112 95.5 179t294.5 67zM673 438q0 181 -232 181q-37 0 -56 -3
l-104 -539q47 -14 106 -14q126 0 206 111.5t80 263.5z" />
    <glyph glyph-name="uni018F" unicode="&#x18f;" horiz-adv-x="628" 
d="M254 -9q-99 0 -152.5 59.5t-53.5 163.5q0 67 23 156h417q5 33 5 65q0 83 -43 129.5t-122 46.5q-23 0 -46 -3.5t-34 -6.5l-11 -3q-9 -24 -22.5 -49.5t-22.5 -38.5l-9 -14h-52l30 157q101 32 194 32q130 0 195.5 -65.5t65.5 -173.5q0 -191 -102.5 -323t-259.5 -132z
M172 299q-10 -46 -10 -87q0 -73 29.5 -113t83.5 -40q73 0 126 67t75 173h-304z" />
    <glyph glyph-name="florin" unicode="&#x192;" horiz-adv-x="550" 
d="M556 582h-45q-14 37 -14 86q-11 11 -40 11q-25 0 -43.5 -23.5t-37.5 -85.5l-47 -166h143l-12 -60h-147l-88 -302q-55 -196 -217 -196q-63 0 -105 12l27 140h45q13 -35 13 -86q13 -11 41 -11q25 0 43.5 23.5t37.5 85.5l95 334h-118l12 60h122l39 134q57 196 218 196
q63 0 105 -12z" />
    <glyph glyph-name="uni0198" unicode="&#x198;" horiz-adv-x="675" 
d="M608 0h-265l7 39q35 22 66 34l-182 262l-51 -262q23 -7 63 -34l-7 -39h-257l6 39q54 26 84 34l101 529q-26 8 -71 35l8 38h255l-7 -38q-33 -20 -73 -35l-46 -240l233 225q50 53 93 74.5t90 21.5q32 0 51 -8l-28 -102q-18 6 -34 6q-62 0 -121 -53l-180 -153l214 -299
q33 -14 58 -35z" />
    <glyph glyph-name="uni0199" unicode="&#x199;" horiz-adv-x="553" 
d="M243 569l-3 -14q-12 -68 -50 -176l2 -1q62 131 188 131q63 0 101.5 -29.5t38.5 -77.5q0 -64 -56.5 -105t-161.5 -57l94 -171q31 -9 65 -30l-9 -39h-147l-125 238l-45 -238h-109l106 558q34 180 219 180q51 0 101 -12l-25 -133h-45q-14 40 -14 83q-15 6 -32 6
q-39 0 -60 -27.5t-33 -85.5zM404 388q0 25 -15 40.5t-44 15.5q-49 0 -92 -52.5t-63 -120.5q214 28 214 117z" />
    <glyph glyph-name="Ohorn" unicode="&#x1a0;" horiz-adv-x="724" 
d="M710 435q0 -87 -28.5 -167t-80.5 -142t-130.5 -99t-171.5 -37q-127 0 -193.5 68t-66.5 182q0 87 28.5 167t80.5 142t130.5 99t171.5 37q45 0 93 -11t62 -11q103 0 103 104q0 27 -9 68h86q3 -19 3 -47q0 -77 -42.5 -118t-106.5 -50q71 -61 71 -185zM586 419
q0 91 -44.5 143t-126.5 52q-63 0 -113.5 -35t-79 -90.5t-43.5 -115.5t-15 -117q0 -90 44.5 -142t125.5 -52q64 0 114.5 35t79 90t43.5 115t15 117z" />
    <glyph glyph-name="ohorn" unicode="&#x1a1;" horiz-adv-x="601" 
d="M548 675h86q3 -16 3 -46q0 -73 -39.5 -117.5t-107.5 -55.5q51 -44 51 -134q0 -137 -86 -234.5t-230 -97.5q-98 0 -147.5 53t-49.5 135q0 136 86.5 233.5t230.5 97.5q28 0 59.5 -4.5t46.5 -4.5q55 0 80.5 26.5t25.5 80.5q0 30 -9 68zM424 310q0 62 -28 98t-84 36
q-48 0 -83 -30t-52 -74.5t-24.5 -82.5t-7.5 -68q0 -61 28 -97t84 -36q48 0 83 30t52 74.5t24.5 82.5t7.5 67z" />
    <glyph glyph-name="Uhorn" unicode="&#x1af;" horiz-adv-x="758" 
d="M758 835h86q3 -17 3 -46q0 -72 -38.5 -115t-128.5 -70l-68 -345q-24 -129 -106 -199.5t-207 -70.5q-135 0 -184 71t-28 183l68 359q-15 6 -28 14.5t-19 14.5l-6 6l8 38h244l-8 -38q-34 -22 -79 -35l-68 -357q-34 -182 128 -182q85 0 136 51t67 146l61 340
q-15 4 -31.5 13.5t-25.5 16.5l-8 7l8 38h140q51 0 72 20.5t21 70.5q0 31 -9 69z" />
    <glyph glyph-name="uhorn" unicode="&#x1b0;" horiz-adv-x="656" 
d="M499 502q53 0 77.5 25.5t24.5 81.5q0 30 -9 66h86q3 -18 3 -44q0 -74 -37.5 -119t-101.5 -55l-74 -386q24 -11 64 -20l-7 -40q-9 -2 -24 -5t-61 -7t-90 -3q13 79 51 195l-2 1q-34 -82 -94.5 -142t-127.5 -60q-58 0 -84 37.5t-26 98.5q0 96 55 302q-25 12 -64 20l8 41
q9 2 24.5 4.5t62.5 6.5t94 3q-68 -272 -68 -355q0 -43 10.5 -61.5t34.5 -18.5q55 0 112 92t77 194l14 75q-24 11 -62 19l8 40q52 13 126 14z" />
    <glyph glyph-name="uni01B3" unicode="&#x1b3;" horiz-adv-x="587" 
d="M384 39l-7 -39h-267l8 39q24 18 83 34l40 205l-121 326q-15 6 -27 16.5t-15 16.5l8 38h232l-8 -38q-11 -16 -67 -33l89 -251h1l95 157q59 100 102 136.5t94 36.5q21 0 36 -5l-28 -105q-8 2 -15 2q-27 0 -56 -24t-80 -95l-129 -178l-39 -205q49 -15 71 -34z" />
    <glyph glyph-name="uni01B4" unicode="&#x1b4;" horiz-adv-x="546" 
d="M146 -169q-81 -82 -175 -82l-41 3l25 86q24 -8 55 -8q51 0 96.5 63.5t45.5 147.5q0 152 -53 387q-20 12 -56 20l8 40q7 2 20.5 4.5t54 7t79.5 3.5q50 -248 50 -385v-34h1q45 106 112 285q27 74 67.5 105.5t96.5 31.5q22 0 37 -5l-34 -103q-8 2 -15 2q-23 0 -40 -15
t-34 -55q-154 -351 -300 -499z" />
    <glyph glyph-name="uni01CD" unicode="&#x1cd;" horiz-adv-x="658" 
d="M595 0h-243l7 38q33 21 77 34l-17 104h-241l-52 -104q29 -11 57 -34l-7 -38h-215l7 39q23 18 60 33l333 608h91l101 -609q32 -16 49 -33zM410 235l-50 316h-1l-155 -316h206zM280 842l31 40l115 -64l134 64l22 -42l-167 -113z" />
    <glyph glyph-name="uni01CE" unicode="&#x1ce;" horiz-adv-x="572" 
d="M521 483l-80 -412q28 -12 65 -19l-7 -41q-9 -2 -24.5 -5t-61.5 -7t-89 -3q20 102 51 195l-2 1q-34 -83 -94.5 -142.5t-130.5 -59.5q-57 0 -90.5 42.5t-33.5 117.5q0 65 18.5 126t55.5 114.5t102.5 86t150.5 32.5q39 0 81.5 -6.5t65.5 -12.5zM385 350l15 75q-31 22 -80 22
q-58 0 -101 -47.5t-61 -109.5t-18 -123q0 -99 56 -99q57 0 113.5 91.5t75.5 190.5zM236 733l36 33l100 -87l122 87l26 -38l-166 -158z" />
    <glyph glyph-name="uni01CF" unicode="&#x1cf;" horiz-adv-x="332" 
d="M248 0h-266l6 39q41 22 84 34l101 529q-17 6 -34.5 14.5t-26.5 14.5l-10 6l8 38h266l-8 -38q-40 -22 -83 -35l-102 -529q17 -5 35 -13.5t28 -14.5l9 -6zM116 842l31 40l115 -64l134 64l22 -42l-167 -113z" />
    <glyph glyph-name="uni01D0" unicode="&#x1d0;" horiz-adv-x="293" 
d="M246 503l-82 -432q24 -11 64 -20l-7 -40q-8 -2 -23.5 -5t-62.5 -7t-94 -3l82 432q-24 12 -65 20l8 40q8 2 23.5 5t62.5 7t94 3zM77 733l36 33l100 -87l122 87l26 -38l-166 -158z" />
    <glyph glyph-name="uni01D1" unicode="&#x1d1;" horiz-adv-x="724" 
d="M710 435q0 -87 -28.5 -167t-80.5 -142t-130.5 -99t-171.5 -37q-127 0 -193.5 68t-66.5 182q0 87 28.5 167t80.5 142t130.5 99t171.5 37q128 0 194 -68t66 -182zM586 419q0 91 -44.5 143t-125.5 52q-64 0 -114.5 -35t-79 -90.5t-43.5 -115.5t-15 -117q0 -90 44.5 -142
t125.5 -52q64 0 114.5 35t79 90t43.5 115t15 117zM315 842l31 40l115 -64l134 64l22 -42l-167 -113z" />
    <glyph glyph-name="uni01D2" unicode="&#x1d2;" horiz-adv-x="577" 
d="M541 322q0 -137 -86 -234.5t-230 -97.5q-98 0 -147.5 53t-49.5 135q0 136 86.5 233.5t230.5 97.5q98 0 147 -52.5t49 -134.5zM424 310q0 62 -28 98t-84 36q-48 0 -83 -30t-52 -74.5t-24.5 -82.5t-7.5 -68q0 -61 28 -97t84 -36q48 0 83 30t52 74.5t24.5 82.5t7.5 67z
M220 733l36 33l100 -87l122 87l26 -38l-166 -158z" />
    <glyph glyph-name="uni01D3" unicode="&#x1d3;" horiz-adv-x="710" 
d="M756 675l-8 -38q-38 -27 -69 -37l-67 -341q-24 -129 -106 -199.5t-207 -70.5q-135 0 -184 71t-28 183l68 359q-32 12 -53 35l8 38h244l-8 -38q-44 -25 -79 -35l-68 -357q-34 -182 128 -182q85 0 136 51t67 146l61 340q-28 8 -65 37l8 38h222zM316 842l31 40l115 -64
l134 64l22 -42l-167 -113z" />
    <glyph glyph-name="uni01D4" unicode="&#x1d4;" horiz-adv-x="598" 
d="M551 503l-83 -432q24 -11 64 -20l-7 -40q-9 -2 -24 -5t-61 -7t-90 -3q13 79 51 195l-2 1q-34 -82 -94.5 -142t-127.5 -60q-58 0 -84 37.5t-26 98.5q0 96 55 302q-25 12 -64 20l8 41q9 2 24.5 4.5t62.5 6.5t94 3q-68 -272 -68 -355q0 -43 10.5 -61.5t34.5 -18.5
q55 0 112 92t77 194l14 75q-24 11 -62 19l8 40q8 2 23 5t61.5 7t93.5 3zM219 733l36 33l100 -87l122 87l26 -38l-166 -158z" />
    <glyph glyph-name="uni01D5" unicode="&#x1d5;" horiz-adv-x="710" 
d="M756 675l-8 -38q-38 -27 -69 -37l-67 -341q-24 -129 -106 -199.5t-207 -70.5q-135 0 -184 71t-28 183l68 359q-32 12 -53 35l8 38h244l-8 -38q-44 -25 -79 -35l-68 -357q-34 -182 128 -182q85 0 136 51t67 146l61 340q-28 8 -65 37l8 38h222zM422 785q0 -22 -15.5 -37.5
t-38.5 -15.5q-22 0 -35 13t-13 35t15.5 38t37.5 16t35.5 -13.5t13.5 -35.5zM620 880h-269l11 55h269zM614 785q0 -22 -15.5 -37.5t-38.5 -15.5q-22 0 -35 13t-13 35q0 23 15.5 38.5t37.5 15.5t35.5 -13.5t13.5 -35.5z" />
    <glyph glyph-name="uni01D6" unicode="&#x1d6;" horiz-adv-x="598" 
d="M551 503l-83 -432q24 -11 64 -20l-7 -40q-9 -2 -24 -5t-61 -7t-90 -3q13 79 51 195l-2 1q-34 -82 -94.5 -142t-127.5 -60q-58 0 -84 37.5t-26 98.5q0 96 55 302q-25 12 -64 20l8 41q9 2 24.5 4.5t62.5 6.5t94 3q-68 -272 -68 -355q0 -43 10.5 -61.5t34.5 -18.5
q55 0 112 92t77 194l14 75q-24 11 -62 19l8 40q8 2 23 5t61.5 7t93.5 3zM328 639q0 -25 -17.5 -42.5t-42.5 -17.5q-24 0 -39 15.5t-15 39.5q0 25 17.5 42t42.5 17q24 0 39 -15.5t15 -38.5zM533 821l-11 -61h-265l11 61h265zM517 639q0 -25 -17 -42.5t-42 -17.5t-40 15.5
t-15 39.5q0 25 17.5 42t42.5 17q24 0 39 -15t15 -39z" />
    <glyph glyph-name="uni01D7" unicode="&#x1d7;" horiz-adv-x="710" 
d="M756 675l-8 -38q-38 -27 -69 -37l-67 -341q-24 -129 -106 -199.5t-207 -70.5q-135 0 -184 71t-28 183l68 359q-32 12 -53 35l8 38h244l-8 -38q-44 -25 -79 -35l-68 -357q-34 -182 128 -182q85 0 136 51t67 146l61 340q-28 8 -65 37l8 38h222zM417 785q0 -22 -15.5 -37.5
t-37.5 -15.5t-35.5 13t-13.5 35t15.5 38t37.5 16t35.5 -13.5t13.5 -35.5zM612 785q0 -23 -15 -38t-38 -15q-22 0 -35.5 13t-13.5 35t16 38t38 16t35 -13.5t13 -35.5zM634 913l-189 -47l-13 38l182 75z" />
    <glyph glyph-name="uni01D8" unicode="&#x1d8;" horiz-adv-x="598" 
d="M551 503l-83 -432q24 -11 64 -20l-7 -40q-9 -2 -24 -5t-61 -7t-90 -3q13 79 51 195l-2 1q-34 -82 -94.5 -142t-127.5 -60q-58 0 -84 37.5t-26 98.5q0 96 55 302q-25 12 -64 20l8 41q9 2 24.5 4.5t62.5 6.5t94 3q-68 -272 -68 -355q0 -43 10.5 -61.5t34.5 -18.5
q55 0 112 92t77 194l14 75q-24 11 -62 19l8 40q8 2 23 5t61.5 7t93.5 3zM553 802l-198 -66l-16 40l185 100zM329 639q0 -25 -17.5 -42.5t-42.5 -17.5q-24 0 -39 15.5t-15 39.5q0 25 17.5 42t42.5 17q24 0 39 -15.5t15 -38.5zM518 639q0 -25 -17 -42.5t-42 -17.5t-40 15.5
t-15 39.5q0 25 17.5 42t42.5 17q24 0 39 -15t15 -39z" />
    <glyph glyph-name="uni01D9" unicode="&#x1d9;" horiz-adv-x="710" 
d="M756 675l-8 -38q-38 -27 -69 -37l-67 -341q-24 -129 -106 -199.5t-207 -70.5q-135 0 -184 71t-28 183l68 359q-32 12 -53 35l8 38h244l-8 -38q-44 -25 -79 -35l-68 -357q-34 -182 128 -182q85 0 136 51t67 146l61 340q-28 8 -65 37l8 38h222zM414 785q0 -22 -15.5 -37.5
t-37.5 -15.5t-35.5 13t-13.5 35t15.5 38t37.5 16t35.5 -13.5t13.5 -35.5zM609 785q0 -23 -15.5 -38t-37.5 -15t-35.5 13t-13.5 35t15.5 38t38.5 16q22 0 35 -13.5t13 -35.5zM343 939l23 36l111 -55l132 55l16 -36l-157 -95z" />
    <glyph glyph-name="uni01DA" unicode="&#x1da;" horiz-adv-x="598" 
d="M551 503l-83 -432q24 -11 64 -20l-7 -40q-9 -2 -24 -5t-61 -7t-90 -3q13 79 51 195l-2 1q-34 -82 -94.5 -142t-127.5 -60q-58 0 -84 37.5t-26 98.5q0 96 55 302q-25 12 -64 20l8 41q9 2 24.5 4.5t62.5 6.5t94 3q-68 -272 -68 -355q0 -43 10.5 -61.5t34.5 -18.5
q55 0 112 92t77 194l14 75q-24 11 -62 19l8 40q8 2 23 5t61.5 7t93.5 3zM257 838l31 35l101 -75l132 76l24 -38l-166 -125zM331 639q0 -25 -17.5 -42.5t-42.5 -17.5q-24 0 -39 15.5t-15 39.5q0 25 17.5 42t42.5 17q24 0 39 -15.5t15 -38.5zM520 639q0 -25 -17 -42.5
t-42 -17.5t-40 15.5t-15 39.5q0 25 17.5 42t42.5 17q24 0 39 -15t15 -39z" />
    <glyph glyph-name="uni01DB" unicode="&#x1db;" horiz-adv-x="710" 
d="M756 675l-8 -38q-38 -27 -69 -37l-67 -341q-24 -129 -106 -199.5t-207 -70.5q-135 0 -184 71t-28 183l68 359q-32 12 -53 35l8 38h244l-8 -38q-44 -25 -79 -35l-68 -357q-34 -182 128 -182q85 0 136 51t67 146l61 340q-28 8 -65 37l8 38h222zM416 785q0 -22 -15.5 -37.5
t-37.5 -15.5t-35.5 13t-13.5 35t15.5 38t37.5 16t35.5 -13.5t13.5 -35.5zM611 785q0 -23 -15.5 -38t-37.5 -15t-35.5 13t-13.5 35t15.5 38t38.5 16q22 0 35 -13.5t13 -35.5zM529 903l-16 -38l-179 48l30 67z" />
    <glyph glyph-name="uni01DC" unicode="&#x1dc;" horiz-adv-x="598" 
d="M551 503l-83 -432q24 -11 64 -20l-7 -40q-9 -2 -24 -5t-61 -7t-90 -3q13 79 51 195l-2 1q-34 -82 -94.5 -142t-127.5 -60q-58 0 -84 37.5t-26 98.5q0 96 55 302q-25 12 -64 20l8 41q9 2 24.5 4.5t62.5 6.5t94 3q-68 -272 -68 -355q0 -43 10.5 -61.5t34.5 -18.5
q55 0 112 92t77 194l14 75q-24 11 -62 19l8 40q8 2 23 5t61.5 7t93.5 3zM434 776l-23 -40l-178 68l41 74zM330 639q0 -25 -17.5 -42.5t-42.5 -17.5q-24 0 -39 15.5t-15 39.5q0 25 17.5 42t42.5 17q24 0 39 -15.5t15 -38.5zM519 639q0 -25 -17 -42.5t-42 -17.5t-40 15.5
t-15 39.5q0 25 17.5 42t42.5 17q24 0 39 -15t15 -39z" />
    <glyph glyph-name="Gcaron" unicode="&#x1e6;" horiz-adv-x="692" 
d="M676 344l-7 -41q-33 -23 -64 -34l-41 -220q-128 -59 -254 -59q-131 0 -200 64.5t-69 191.5q0 59 13.5 117.5t46 117t80.5 103.5t122 73t164 28q109 0 200 -25l-33 -171h-51q-13 46 -15 99q-55 26 -131 26q-72 0 -127 -34t-85.5 -89t-45.5 -115t-15 -121q0 -92 47.5 -140
t140.5 -48q57 0 106 17l35 184q-36 12 -67 36l7 40h243zM317 842l31 40l115 -64l134 64l22 -42l-167 -113z" />
    <glyph glyph-name="gcaron" unicode="&#x1e7;" horiz-adv-x="557" 
d="M521 483l-93 -479q-22 -118 -108 -186.5t-205 -68.5q-31 0 -63.5 4t-49.5 8l-17 4l32 93q62 -23 130 -23q80 0 116 31t51 104q23 118 61 221l-2 1q-34 -83 -94.5 -142.5t-130.5 -59.5q-57 0 -90.5 42.5t-33.5 117.5q0 65 18.5 126t55.5 114.5t102.5 86t150.5 32.5
q39 0 81.5 -6.5t65.5 -12.5zM385 350l15 75q-31 22 -80 22q-58 0 -101 -47.5t-61 -109.5t-18 -123q0 -99 56 -99q57 0 113.5 91.5t75.5 190.5zM214 733l36 33l100 -87l122 87l26 -38l-166 -158z" />
    <glyph glyph-name="Aringacute" unicode="&#x1fa;" horiz-adv-x="658" 
d="M595 0h-243l7 38q33 21 77 34l-17 104h-241l-52 -104q29 -11 57 -34l-7 -38h-215l7 39q23 18 60 33l333 608h91l101 -609q32 -16 49 -33zM410 235l-50 316h-1l-155 -316h206zM529 807q0 -46 -34.5 -75.5t-89.5 -29.5q-43 0 -66.5 19t-23.5 47q0 44 34 74.5t90 30.5
q44 0 67 -19t23 -47zM473 798q0 17 -11.5 28.5t-32.5 11.5q-25 0 -41 -16.5t-16 -45.5q0 -17 11 -28t32 -11q25 0 41.5 17t16.5 44zM549 915l-188 -35l-9 34l182 66z" />
    <glyph glyph-name="aringacute" unicode="&#x1fb;" horiz-adv-x="572" 
d="M521 483l-80 -412q28 -12 65 -19l-7 -41q-9 -2 -24.5 -5t-61.5 -7t-89 -3q20 102 51 195l-2 1q-34 -83 -94.5 -142.5t-130.5 -59.5q-57 0 -90.5 42.5t-33.5 117.5q0 65 18.5 126t55.5 114.5t102.5 86t150.5 32.5q39 0 81.5 -6.5t65.5 -12.5zM385 350l15 75q-31 22 -80 22
q-58 0 -101 -47.5t-61 -109.5t-18 -123q0 -99 56 -99q57 0 113.5 91.5t75.5 190.5zM475 685q0 -58 -39.5 -94t-101.5 -36q-46 0 -73 24t-27 61q0 58 40 94t102 36q45 0 72 -24t27 -61zM411 675q0 22 -13 35.5t-35 13.5q-27 0 -46 -20t-19 -54q0 -22 13 -35.5t35 -13.5
q28 0 46.5 20t18.5 54zM526 842l-214 -48l-13 40l204 87z" />
    <glyph glyph-name="AEacute" unicode="&#x1fc;" horiz-adv-x="820" 
d="M832 675l-31 -155h-49q-13 43 -15 94h-164l-45 -238h133q8 15 18 31t17 25l6 8h43l-35 -184h-42q-14 29 -18 63h-133l-49 -256h169q9 21 22 46t21 39l9 14h51l-31 -162h-433l7 38q3 1 30 14t46 19l20 105h-205l-71 -104q13 -6 26 -14t19 -14l7 -5l-8 -39h-208l8 39
q26 21 54 34l389 533q-17 5 -34.5 13t-26.5 13l-9 6l7 37h505zM390 235l70 369h-1l-247 -369h178zM754 796l-204 -63l-16 44l188 102z" />
    <glyph glyph-name="aeacute" unicode="&#x1fd;" horiz-adv-x="753" 
d="M731 400q0 -167 -323 -170q-5 -22 -5 -54q0 -52 26 -80t77 -28q72 0 152 41l11 -54q-101 -64 -201 -64q-133 0 -160 101q-36 -47 -88 -74.5t-99 -27.5q-55 0 -85 33t-30 83q0 84 88.5 137t217.5 53l10 51q18 104 -70 104q-18 0 -36 -4.5t-26 -8.5l-9 -4q-10 -23 -23 -45
l-20 -33l-8 -10h-46l26 133q82 31 168 31q101 0 134 -60q57 60 163 60q81 0 118.5 -32t37.5 -78zM619 388q0 27 -15 44.5t-46 17.5q-56 0 -91 -49t-50 -116q202 0 202 103zM298 220l4 20q-182 3 -182 -115q0 -26 12.5 -42t33.5 -16q39 0 78.5 43t53.5 110zM627 678
l-190 -105l-24 42l163 146z" />
    <glyph glyph-name="Oslashacute" unicode="&#x1fe;" horiz-adv-x="724" 
d="M710 435q0 -69 -18 -134.5t-53.5 -121.5t-84 -98.5t-114 -66.5t-140.5 -24q-69 0 -120 22l-85 -116l-56 35l82 114q-82 65 -82 195q0 87 28.5 167t80.5 142t130.5 99t171.5 37q69 0 119 -22l85 116l56 -35l-82 -113q82 -66 82 -196zM589 420q0 68 -29 117l-327 -450
q41 -27 100 -27q52 0 96 23.5t73 61t49 85.5t29 96t9 94zM190 140l326 448q-40 28 -99 28q-65 0 -116.5 -35.5t-81 -91t-44.5 -116t-15 -118.5q0 -67 30 -115zM588 796l-204 -63l-16 44l188 102z" />
    <glyph glyph-name="oslashacute" unicode="&#x1ff;" horiz-adv-x="577" 
d="M555 569l-74 -102q60 -52 60 -145q0 -137 -86 -234.5t-230 -97.5q-40 0 -79 13l-80 -110l-52 33l76 106q-62 49 -62 146q0 136 86.5 233.5t230.5 97.5q46 0 80 -14l77 108zM415 376l-220 -305q25 -18 62 -18q49 0 85 30t53 74.5t24.5 81.5t7.5 63q0 36 -12 74zM156 123
l221 305q-28 19 -65 19q-39 0 -70.5 -21t-49.5 -51t-30 -66.5t-16 -64t-4 -47.5q0 -43 14 -74zM499 684l-190 -105l-24 42l163 146z" />
    <glyph glyph-name="Scommaaccent" unicode="&#x218;" horiz-adv-x="495" 
d="M485 670l-31 -166h-50q-18 51 -16 98q-33 10 -69 10q-56 0 -83 -32t-27 -77q0 -33 23.5 -61t56.5 -49.5l66 -45t56.5 -59.5t23.5 -81q0 -96 -83.5 -156.5t-192.5 -60.5q-80 0 -153 19l35 183h51q13 -54 15 -103q38 -19 85 -19q61 0 92 32t31 79q0 34 -23.5 63t-56.5 50.5
l-66 45t-56.5 59t-23.5 79.5q0 93 76 150t184 57q68 0 136 -15zM246 -100q0 -47 -44 -88.5t-126 -67.5l-13 42q89 45 78 112q-5 23 9.5 40.5t39.5 17.5q26 0 41 -15.5t15 -40.5z" />
    <glyph glyph-name="scommaaccent" unicode="&#x219;" horiz-adv-x="428" 
d="M390 496l-26 -138h-47q-13 38 -13 79q-24 13 -54 13q-33 0 -52 -19.5t-19 -50.5q0 -23 18.5 -43t44.5 -36l52.5 -33.5t45 -45t18.5 -62.5q0 -74 -64.5 -121t-156.5 -47q-31 0 -63.5 4t-49.5 8l-17 3l28 147h47q11 -40 13 -79q35 -18 70 -18q38 0 60.5 19.5t22.5 53.5
q0 25 -18 45.5t-44 36.5l-52.5 33.5t-44.5 44.5t-18 62q0 71 58.5 114t145.5 43q28 0 57 -3.5t44 -6.5zM202 -100q0 -47 -44 -88.5t-126 -67.5l-13 42q89 45 78 112q-5 23 9.5 40.5t39.5 17.5q26 0 41 -15.5t15 -40.5z" />
    <glyph glyph-name="Tcommaaccent" unicode="&#x21a;" horiz-adv-x="567" 
d="M595 505h-46q-17 52 -19 109h-126l-102 -541q19 -6 38.5 -14.5t29.5 -14.5l9 -5l-7 -39h-279l7 39q42 22 90 35l103 540h-125q-10 -25 -25 -52t-25 -42l-10 -15h-46l32 170h534zM274 -100q0 -47 -44 -88.5t-126 -67.5l-13 42q89 45 78 112q-5 23 9.5 40.5t39.5 17.5
q26 0 41 -15.5t15 -40.5z" />
    <glyph glyph-name="tcommaaccent" unicode="&#x21b;" horiz-adv-x="365" 
d="M373 500l-12 -60h-130l-54 -286q-10 -45 -4 -65t32 -20q41 0 80 24l11 -50q-72 -52 -138 -52q-123 0 -92 157l56 292h-77l12 60h77l71 146h65l-27 -146h130zM185 -100q0 -47 -44 -88.5t-126 -67.5l-13 42q89 45 78 112q-5 23 9.5 40.5t39.5 17.5q26 0 41 -15.5t15 -40.5z
" />
    <glyph glyph-name="uni0228" unicode="&#x228;" horiz-adv-x="533" 
d="M421 0h-144l-50 -54q62 -37 34 -93t-129 -104l-38 29q129 76 31 126l89 96h-232l6 39q46 24 84 34l101 529q-32 10 -71 35l8 38h437l-30 -155h-50q-15 56 -15 94h-165l-46 -238h133q19 36 42 64h43l-35 -184h-43q-14 27 -17 63h-133l-49 -256h167q17 46 52 99h50z" />
    <glyph glyph-name="uni0229" unicode="&#x229;" horiz-adv-x="489" 
d="M470 400q0 -167 -324 -170q-4 -22 -4 -54q0 -108 102 -108q73 0 153 41l11 -54q-85 -54 -169 -62l-43 -47q62 -37 34 -93t-129 -104l-38 29q129 76 31 126l82 89q-149 14 -149 166q0 48 9 95.5t31 94t53.5 82t81.5 57.5t111 22q82 0 119.5 -32t37.5 -78zM358 388
q0 27 -15.5 44.5t-46.5 17.5q-56 0 -91 -49t-50 -116q203 0 203 103z" />
    <glyph glyph-name="dotlessj" unicode="&#x237;" horiz-adv-x="280" 
d="M246 503l-105 -549q-17 -89 -70 -137t-139 -67l-9 49q52 17 73.5 48t36.5 111l90 470q-24 12 -65 20l8 40q8 2 23.5 5t62.5 7t94 3z" />
    <glyph glyph-name="uni0253" unicode="&#x253;" horiz-adv-x="564" 
d="M29 16l103 542q34 180 219 180q53 0 101 -12l-25 -133h-45q-14 40 -14 83q-15 6 -32 6q-39 0 -60 -27t-33 -86l-16 -83q-14 -72 -53 -178h3q34 83 94 142t130 59q57 0 90.5 -42.5t33.5 -116.5q0 -51 -11 -100.5t-36 -97t-62 -83t-93.5 -57.5t-124.5 -22q-39 0 -81 6.5
t-65 13.5zM164 149l-15 -74q31 -23 80 -23q44 0 80 27.5t57 71t32 90.5t11 91q0 99 -56 99t-112.5 -91t-76.5 -191z" />
    <glyph glyph-name="uni0257" unicode="&#x257;" horiz-adv-x="579" 
d="M414 501v2l8 38q20 94 69 138.5t143 66.5l8 -48q-50 -17 -73 -50t-36 -102l-92 -475q28 -12 65 -19l-7 -41q-9 -2 -24.5 -5t-61.5 -7t-89 -3q20 102 51 195l-2 1q-34 -83 -94.5 -142.5t-130.5 -59.5q-57 0 -90.5 42.5t-33.5 117.5q0 93 33.5 172t108 132.5t178.5 53.5
q17 0 34.5 -2t26.5 -4zM385 350l15 75q-31 22 -80 22q-58 0 -101 -47.5t-61 -109.5t-18 -123q0 -99 56 -99q57 0 113.5 91.5t75.5 190.5z" />
    <glyph glyph-name="uni0259" unicode="&#x259;" horiz-adv-x="504" 
d="M188 -9q-82 0 -124 41.5t-42 116.5q0 50 18 119h309q5 27 5 56q0 51 -28.5 80t-83.5 29q-78 0 -140 -32l-13 51q97 57 191 57q90 0 138.5 -48t48.5 -137q0 -137 -76 -235t-203 -98zM139 214q-9 -32 -9 -67q0 -96 72 -96q53 0 89 49t48 114h-200z" />
    <glyph glyph-name="circumflex" unicode="&#x2c6;" horiz-adv-x="412" 
d="M413 605l-36 -34l-99 87l-122 -87l-27 38l166 158z" />
    <glyph glyph-name="caron" unicode="&#x2c7;" horiz-adv-x="412" 
d="M147 733l36 33l100 -87l122 87l26 -38l-166 -158z" />
    <glyph glyph-name="breve" unicode="&#x2d8;" horiz-adv-x="388" 
d="M397 724q-10 -59 -47.5 -99t-98.5 -40q-62 0 -84.5 40.5t-11.5 98.5h55q-5 -28 9 -47t44 -19q29 0 50 17t28 49h56z" />
    <glyph glyph-name="dotaccent" unicode="&#x2d9;" horiz-adv-x="282" 
d="M281 658q0 -31 -20 -50.5t-49 -19.5q-27 0 -45 18.5t-18 45.5q0 32 20 51.5t49 19.5q27 0 45 -19t18 -46z" />
    <glyph glyph-name="ring" unicode="&#x2da;" horiz-adv-x="375" 
d="M387 689q0 -60 -41 -97t-104 -37q-49 0 -76 24.5t-27 62.5q0 58 40 95.5t104 37.5q50 0 77 -24.5t27 -61.5zM320 678q0 22 -13 36t-36 14q-29 0 -47 -21t-18 -55q0 -22 12.5 -36t35.5 -14q29 0 47.5 22t18.5 54z" />
    <glyph glyph-name="ogonek" unicode="&#x2db;" horiz-adv-x="365" 
d="M189 -146l23 -40q-70 -64 -137 -64q-89 0 -89 75q0 44 34.5 90.5t96.5 84.5h75q-53 -35 -79.5 -74.5t-26.5 -71.5q0 -30 31 -30q33 0 72 30z" />
    <glyph glyph-name="tilde" unicode="&#x2dc;" horiz-adv-x="478" 
d="M455 696l23 -38q-55 -65 -119 -65q-33 0 -68 22t-55 22q-34 0 -68 -30l-23 38q55 64 119 64q32 0 67 -21.5t55 -21.5q34 0 69 30z" />
    <glyph glyph-name="hungarumlaut" unicode="&#x2dd;" horiz-adv-x="502" 
d="M516 691l-182 -122l-31 37l155 158zM332 713l-168 -144l-35 32l135 176z" />
    <glyph glyph-name="gravecomb" unicode="&#x300;" 
d="M-79 608l-31 -37l-163 121l68 78z" />
    <glyph glyph-name="acutecomb" unicode="&#x301;" 
d="M-67 678l-190 -105l-24 42l163 146z" />
    <glyph glyph-name="uni0302" unicode="&#x302;" 
d="M-78 605l-36 -34l-99 87l-122 -87l-27 38l166 158z" />
    <glyph glyph-name="tildecomb" unicode="&#x303;" 
d="M-93 696l23 -38q-55 -65 -119 -65q-33 0 -68 22t-55 22q-34 0 -68 -30l-23 38q55 64 119 64q32 0 67 -21.5t55 -21.5q34 0 69 30z" />
    <glyph glyph-name="uni0304" unicode="&#x304;" 
d="M-66 675l-13 -68h-265l12 68h266z" />
    <glyph glyph-name="uni0305" unicode="&#x305;" 
d="M107 832l-13 -67h-587l13 67h587z" />
    <glyph glyph-name="uni0306" unicode="&#x306;" 
d="M-59 724q-10 -59 -47.5 -99t-98.5 -40q-62 0 -84.5 40.5t-11.5 98.5h55q-5 -28 9 -47t44 -19q29 0 50 17t28 49h56z" />
    <glyph glyph-name="uni0307" unicode="&#x307;" 
d="M-73 658q0 -31 -20 -50.5t-49 -19.5q-27 0 -45 18.5t-18 45.5q0 32 20 51.5t49 19.5q27 0 45 -19t18 -46z" />
    <glyph glyph-name="uni0308" unicode="&#x308;" 
d="M-66 658q0 -27 -18.5 -45t-44.5 -18t-42.5 16t-16.5 42q0 27 18.5 45t45.5 18q26 0 42 -16t16 -42zM-259 658q0 -27 -18.5 -45t-45.5 -18q-26 0 -42 16t-16 42q0 27 18.5 45t45.5 18q25 0 41.5 -16t16.5 -42z" />
    <glyph glyph-name="uni0309" unicode="&#x309;" 
d="M-213 567l-8 37q70 25 70 72q0 32 -43 32q-35 0 -74 -13l-8 37q60 28 121 28q44 0 66.5 -17.5t22.5 -47.5q0 -46 -44 -79.5t-103 -48.5z" />
    <glyph glyph-name="uni030A" unicode="&#x30a;" 
d="M-65 689q0 -60 -41 -97t-104 -37q-49 0 -76 24.5t-27 62.5q0 58 40 95.5t104 37.5q50 0 77 -24.5t27 -61.5zM-132 678q0 22 -13 36t-36 14q-29 0 -47 -21t-18 -55q0 -22 12.5 -36t35.5 -14q29 0 47.5 22t18.5 54z" />
    <glyph glyph-name="uni030B" unicode="&#x30b;" 
d="M-62 691l-182 -122l-31 37l155 158zM-246 713l-168 -144l-35 32l135 176z" />
    <glyph glyph-name="uni030C" unicode="&#x30c;" 
d="M-343 733l36 33l100 -87l122 87l26 -38l-166 -158z" />
    <glyph glyph-name="uni030D" unicode="&#x30d;" 
d="M-159 582l39 206h72l-38 -206h-73z" />
    <glyph glyph-name="uni030E" unicode="&#x30e;" 
d="M-159 582l39 206h72l-38 -206h-73zM-328 582l39 206h72l-39 -206h-72z" />
    <glyph glyph-name="uni030F" unicode="&#x30f;" 
d="M-240 605l-32 -33l-159 132l59 62zM-72 601l-36 -29l-148 148l68 55z" />
    <glyph glyph-name="uni0310" unicode="&#x310;" 
d="M-144 781q0 -24 -17 -40.5t-39 -16.5q-21 0 -36 15.5t-15 36.5q0 24 17 40.5t39 16.5t36.5 -15t14.5 -37zM-58 734q-13 -68 -57.5 -113t-120.5 -45q-75 0 -104 45.5t-16 112.5h53q-5 -38 15.5 -63.5t63.5 -25.5t73.5 24t40.5 65h52z" />
    <glyph glyph-name="uni0311" unicode="&#x311;" 
d="M-84 591h-56q5 28 -10 47t-45 19q-29 0 -49.5 -17.5t-26.5 -48.5h-56q12 60 48 99.5t97 39.5q62 0 85.5 -40.5t12.5 -98.5z" />
    <glyph glyph-name="uni0312" unicode="&#x312;" 
d="M-55 734q-88 -46 -77 -111q5 -24 -9 -41.5t-40 -17.5t-40.5 16t-14.5 41q0 46 44 88t127 68z" />
    <glyph glyph-name="uni0313" unicode="&#x313;" 
d="M-218 564l-11 37q74 49 63 112q-8 22 6.5 41.5t40.5 19.5q23 0 37 -16.5t14 -41.5q0 -44 -37.5 -84.5t-112.5 -67.5z" />
    <glyph glyph-name="uni0314" unicode="&#x314;" 
d="M-72 601l-17 -37q-135 51 -135 141q0 31 17 50t41 19q25 0 38.5 -19t3.5 -42q-20 -62 52 -112z" />
    <glyph glyph-name="uni0315" unicode="&#x315;" 
d="M174 774l-121 -196l-41 14l82 208z" />
    <glyph glyph-name="uni0316" unicode="&#x316;" 
d="M-229 -219l-28 -39l-175 112l65 83z" />
    <glyph glyph-name="uni0317" unicode="&#x317;" 
d="M-223 -146l-185 -112l-25 39l154 156z" />
    <glyph glyph-name="uni0318" unicode="&#x318;" 
d="M-416 -222l11 55h115l19 94h59l-46 -244h-60l18 95h-116z" />
    <glyph glyph-name="uni0319" unicode="&#x319;" 
d="M-434 -317l47 244h60l-18 -94h116l-11 -55h-116l-18 -95h-60z" />
    <glyph glyph-name="uni031A" unicode="&#x31a;" 
d="M-104 491h-57l31 165h-171l10 54h229z" />
    <glyph glyph-name="uni031B" unicode="&#x31b;" 
d="M-33 675h86q3 -27 3 -35q0 -97 -51 -143.5t-139 -46.5h-21l10 50h17q51 0 77 24.5t26 83.5q0 37 -8 67z" />
    <glyph glyph-name="uni031C" unicode="&#x31c;" 
d="M-213 -78l-7 -38q-36 1 -53.5 -23.5t-17.5 -61.5q0 -42 47 -41l-7 -38q-52 1 -78 22.5t-26 58.5q0 54 39.5 89t102.5 32z" />
    <glyph glyph-name="uni031D" unicode="&#x31d;" 
d="M-499 -259l11 55h96l17 95h61l-18 -95h96l-11 -55h-252z" />
    <glyph glyph-name="uni031E" unicode="&#x31e;" 
d="M-480 -164l10 55h251l-9 -55h-96l-19 -95h-60l18 95h-95z" />
    <glyph glyph-name="uni031F" unicode="&#x31f;" 
d="M-492 -222l11 55h96l18 94h60l-18 -94h96l-11 -55h-96l-18 -95h-60l18 95h-96z" />
    <glyph glyph-name="uni0320" unicode="&#x320;" 
d="M-492 -222l11 55h252l-11 -55h-252z" />
    <glyph glyph-name="uni0321" unicode="&#x321;" 
d="M-359 -257l-7 50q51 17 73 47.5t34 97.5l13 72h98l-12 -65q-17 -89 -62.5 -134.5t-136.5 -67.5z" />
    <glyph glyph-name="uni0322" unicode="&#x322;" 
d="M-95 -168l3 -51q-53 -34 -107 -34q-96 0 -68 151l21 112h98l-19 -101q-9 -52 -4.5 -69.5t26.5 -17.5q20 0 50 10z" />
    <glyph glyph-name="dotbelowcomb" unicode="&#x323;" 
d="M-220 -155q0 -31 -20.5 -51.5t-48.5 -20.5q-26 0 -44.5 18t-18.5 46q0 31 20.5 51t48.5 20q27 0 45 -18t18 -45z" />
    <glyph glyph-name="uni0324" unicode="&#x324;" 
d="M-225 -156q0 -27 -18.5 -45.5t-45.5 -18.5q-25 0 -41.5 16.5t-16.5 42.5q0 27 18.5 45t45.5 18q26 0 42 -16t16 -42zM-418 -156q0 -27 -19 -45.5t-45 -18.5t-42 16.5t-16 42.5q0 27 18.5 45t45.5 18q26 0 42 -16t16 -42z" />
    <glyph glyph-name="uni0325" unicode="&#x325;" 
d="M-271 -155q0 -57 -38 -91t-96 -34q-46 0 -71.5 22.5t-25.5 57.5q0 54 37 89t97 35q47 0 72 -22.5t25 -56.5zM-332 -166q0 21 -12 34.5t-34 13.5q-28 0 -45.5 -19.5t-17.5 -52.5q0 -21 12 -34t34 -13q27 0 45 20.5t18 50.5z" />
    <glyph glyph-name="uni0326" unicode="&#x326;" 
d="M-214 -100q0 -47 -44 -88.5t-126 -67.5l-13 42q89 45 78 112q-5 23 9.5 40.5t39.5 17.5q26 0 41 -15.5t15 -40.5z" />
    <glyph glyph-name="uni0327" unicode="&#x327;" 
d="M-213 0l-49 -54q62 -37 33.5 -93t-129.5 -104l-37 29q129 76 31 126l88 96h63z" />
    <glyph glyph-name="uni0328" unicode="&#x328;" 
d="M-253 -146l23 -40q-70 -64 -137 -64q-89 0 -89 75q0 44 34.5 90.5t96.5 84.5h75q-53 -35 -79.5 -74.5t-26.5 -71.5q0 -30 31 -30q33 0 72 30z" />
    <glyph glyph-name="uni0329" unicode="&#x329;" 
d="M-332 -320l39 206h73l-39 -206h-73z" />
    <glyph glyph-name="uni032A" unicode="&#x32a;" 
d="M-246 -257h-60l17 95h-203l-18 -95h-60l28 150h323z" />
    <glyph glyph-name="uni032B" unicode="&#x32b;" 
d="M-275 -133h52q-11 -57 -44.5 -90.5t-89.5 -33.5q-61 0 -74 43q-31 -43 -94 -43q-55 0 -76 34.5t-11 89.5h52q-5 -29 7.5 -47t41.5 -18q57 0 68 65h52q-5 -28 7 -46.5t41 -18.5q57 0 68 65z" />
    <glyph glyph-name="uni032C" unicode="&#x32c;" 
d="M-212 -94l-170 -160l-112 163l36 35l98 -87l124 87z" />
    <glyph glyph-name="uni032D" unicode="&#x32d;" 
d="M-253 -228l-35 -35l-98 87l-125 -87l-24 38l170 159z" />
    <glyph glyph-name="uni032E" unicode="&#x32e;" 
d="M-249 -86q-12 -59 -48 -98.5t-97 -39.5q-62 0 -85.5 40.5t-11.5 97.5h56q-5 -28 9.5 -46.5t45.5 -18.5q29 0 49 17t27 48h55z" />
    <glyph glyph-name="uni032F" unicode="&#x32f;" 
d="M-259 -246h-56q5 29 -10 47.5t-45 18.5q-29 0 -49.5 -17.5t-26.5 -48.5h-56q12 60 48 99.5t97 39.5q62 0 85.5 -40.5t12.5 -98.5z" />
    <glyph glyph-name="uni0330" unicode="&#x330;" 
d="M-239 -99l24 -35q-48 -67 -110 -67q-33 0 -71 21.5t-58 21.5q-37 0 -62 -30l-25 35q49 68 111 68q32 0 70.5 -21.5t59.5 -21.5q35 0 61 29z" />
    <glyph glyph-name="uni0331" unicode="&#x331;" 
d="M-255 -181h-266l13 67h265z" />
    <glyph glyph-name="uni0332" unicode="&#x332;" 
d="M-85 -177l-12 -68h-588l12 68h588z" />
    <glyph glyph-name="uni0333" unicode="&#x333;" 
d="M-100 -261l-12 -59h-588l12 59h588zM-74 -123l-11 -59h-588l11 59h588z" />
    <glyph glyph-name="uni0334" unicode="&#x334;" 
d="M-146 291l23 -33q-49 -57 -110 -57q-34 0 -76.5 20.5t-67.5 20.5q-38 0 -67 -29l-23 33q48 58 110 58q33 0 75.5 -20.5t67.5 -20.5q38 0 68 28z" />
    <glyph glyph-name="uni0335" unicode="&#x335;" 
d="M-126 224h-344l11 55h343z" />
    <glyph glyph-name="uni0336" unicode="&#x336;" 
d="M-9 224h-618l10 55h618z" />
    <glyph glyph-name="uni0337" unicode="&#x337;" 
d="M-93 409l-356 -356l-40 38l355 356z" />
    <glyph glyph-name="uni0338" unicode="&#x338;" 
d="M0 609l-538 -745l-46 27l540 744z" />
    <glyph glyph-name="uni0339" unicode="&#x339;" 
d="M-372 -280l8 38q36 -1 53 23.5t17 61.5q0 42 -47 41l8 38q52 -1 78 -22.5t26 -58.5q0 -54 -40 -89t-103 -32z" />
    <glyph glyph-name="uni033A" unicode="&#x33a;" 
d="M-542 -107h60l-18 -95h204l18 95h59l-27 -150h-324z" />
    <glyph glyph-name="uni033B" unicode="&#x33b;" 
d="M-259 -320h-266l47 240h265zM-457 -266h152l25 132h-152z" />
    <glyph glyph-name="uni033C" unicode="&#x33c;" 
d="M-630 -208l-6 27q75 48 133 48q54 0 70 -45q31 45 86 45q57 0 116 -48l-17 -27q-34 15 -81 15q-66 0 -96 -53h-43q-12 53 -74 53q-21 0 -43 -3.5t-33 -7.5z" />
    <glyph glyph-name="uni033D" unicode="&#x33d;" 
d="M-90 603h-140l5 29q18 9 33 14l-54 65l-76 -65q6 -2 12 -5.5t9 -6.5l3 -2l-5 -29h-112l5 29l140 101l-95 110l5 28h138l-5 -28q-18 -10 -34 -14l50 -64l76 64l-24 14l5 28h109l-5 -28l-136 -101l101 -110z" />
    <glyph glyph-name="uni033E" unicode="&#x33e;" 
d="M-151 566l-34 18q38 27 38 59q0 14 -10.5 39t-10.5 42q0 59 78 97l33 -19q-38 -25 -38 -59q0 -14 11 -38.5t11 -42.5q0 -57 -78 -96z" />
    <glyph glyph-name="uni033F" unicode="&#x33f;" 
d="M376 842l-12 -59h-720l12 59h720zM401 980l-10 -59h-721l11 59h720z" />
    <glyph glyph-name="uni0346" unicode="&#x346;" 
d="M-86 583h-61l18 95h-203l-19 -95h-59l28 150h324z" />
    <glyph glyph-name="uni0347" unicode="&#x347;" 
d="M-247 -261l-12 -59h-411l11 59h412zM-221 -123l-11 -59h-412l12 59h411z" />
    <glyph glyph-name="uni0348" unicode="&#x348;" 
d="M-332 -320l39 206h73l-39 -206h-73zM-501 -320l39 206h73l-39 -206h-73z" />
    <glyph glyph-name="uni0349" unicode="&#x349;" 
d="M-406 -128l10 55h184l-35 -187h-60l25 132h-124z" />
    <glyph glyph-name="uni034A" unicode="&#x34a;" 
d="M-259 577h-61l38 74q-27 12 -45 12q-35 0 -62 -29l-22 30q46 64 107 64q23 0 54 -11l29 57h62l-39 -76q27 -11 45 -11q36 0 63 29l21 -30q-44 -64 -107 -64q-21 0 -54 11z" />
    <glyph glyph-name="uni034B" unicode="&#x34b;" 
d="M-87 736l22 -30q-45 -62 -104 -62q-32 0 -78.5 24.5t-71.5 24.5q-35 0 -63 -30l-22 30q42 62 104 62q31 0 78 -24.5t71 -24.5q36 0 64 30zM-132 796q0 -18 -12.5 -30.5t-29.5 -12.5t-28 11t-11 28q0 19 12 31.5t29 12.5q18 0 29 -11.5t11 -28.5zM-338 603q0 18 12.5 31
t29.5 13t28.5 -11.5t11.5 -28.5q0 -18 -12.5 -31t-29.5 -13t-28.5 11.5t-11.5 28.5z" />
    <glyph glyph-name="uni034C" unicode="&#x34c;" 
d="M-97 680l21 -30q-45 -65 -107 -65q-31 0 -79.5 20.5t-71.5 20.5q-36 0 -62 -29l-22 31q46 64 107 64q31 0 80 -20.5t72 -20.5q35 0 62 29zM-70 823l21 -31q-44 -64 -106 -64q-31 0 -80 20.5t-72 20.5q-35 0 -61 -29l-23 30q47 65 107 65q31 0 80 -20.5t72 -20.5
q36 0 62 29z" />
    <glyph glyph-name="uni034D" unicode="&#x34d;" 
d="M-293 -227l-146 -13l-140 13l29 -71l-34 -22l-92 117l138 118l24 -22l-56 -71l145 13l141 -13l-29 71l34 22l92 -118l-138 -117l-25 22z" />
    <glyph glyph-name="uni034E" unicode="&#x34e;" 
d="M-337 -320h-74l40 146l-78 -44l-15 30l138 117l93 -117l-28 -30l-61 44z" />
    <glyph glyph-name="uni034F" unicode="&#x34f;" 
 />
    <glyph glyph-name="uni035D" unicode="&#x35d;" 
d="M531 980l14 -46q-220 -130 -445 -130q-220 0 -391 129l31 47q159 -91 381 -91q221 0 410 91z" />
    <glyph glyph-name="uni035E" unicode="&#x35e;" 
d="M499 832l-13 -67h-783l13 67h783z" />
    <glyph glyph-name="uni035F" unicode="&#x35f;" 
d="M306 -177l-12 -68h-783l12 68h783z" />
    <glyph glyph-name="uni0360" unicode="&#x360;" 
d="M492 886l15 -45q-133 -78 -257 -78q-67 0 -164.5 29t-162.5 29q-94 0 -202 -53l-15 45q128 78 256 78q66 0 163.5 -29t164.5 -29q93 0 202 53z" />
    <glyph glyph-name="uni0361" unicode="&#x361;" 
d="M529 851l-32 -47q-157 91 -381 91q-220 0 -409 -91l-14 46q220 130 443 130q222 0 393 -129z" />
    <glyph glyph-name="uni0362" unicode="&#x362;" 
d="M219 -227l-114 -6h-592l11 61h592l112 -6l-29 71l33 22l92 -118l-137 -117l-26 22z" />
    <glyph glyph-name="uni037E" unicode="&#x37e;" horiz-adv-x="284" 
d="M250 361q0 -32 -21 -53t-52 -21q-30 0 -49 19.5t-19 49.5q0 31 21 52.5t52 21.5q30 0 49 -19.5t19 -49.5zM118 130q30 0 48 -19t18 -52q0 -53 -43.5 -107.5t-120.5 -104.5l-30 35q78 58 78 115q0 12 -8 29.5t-8 33.5q0 30 18.5 50t47.5 20z" />
    <glyph glyph-name="tonos" unicode="&#x384;" horiz-adv-x="376" 
d="M333 749l-85 -178l-47 9l41 188z" />
    <glyph glyph-name="dieresistonos" unicode="&#x385;" horiz-adv-x="535" 
d="M266 660q0 -25 -17.5 -42t-41.5 -17t-39 15.5t-15 39.5t17.5 41t40.5 17q24 0 39.5 -15.5t15.5 -38.5zM522 660q0 -25 -17.5 -42t-41.5 -17q-23 0 -38.5 16t-15.5 39q0 24 17.5 41t41.5 17t39 -15.5t15 -38.5zM414 749l-84 -178l-47 9l40 188z" />
    <glyph glyph-name="Alphatonos" unicode="&#x386;" horiz-adv-x="658" 
d="M595 0h-243l7 38q33 21 77 34l-17 104h-241l-52 -104q29 -11 57 -34l-7 -38h-215l7 39q23 18 60 33l333 608h91l101 -609q32 -16 49 -33zM410 235l-50 316h-1l-155 -316h206zM316 749l-85 -178l-47 9l41 188z" />
    <glyph glyph-name="anoteleia" unicode="&#x387;" horiz-adv-x="234" 
d="M236 503q0 -32 -20.5 -53t-51.5 -21q-30 0 -49 19.5t-19 48.5q0 31 21 52.5t52 21.5q30 0 48.5 -19.5t18.5 -48.5z" />
    <glyph glyph-name="Epsilontonos" unicode="&#x388;" horiz-adv-x="600" 
d="M488 0h-439l6 39q46 24 84 34l101 529q-32 10 -71 35l8 38h437l-30 -155h-50q-15 56 -15 94h-165l-46 -238h133q19 36 42 64h43l-35 -184h-43q-14 27 -17 63h-133l-49 -256h167q17 46 52 99h50zM182 749l-85 -178l-47 9l41 188z" />
    <glyph glyph-name="Etatonos" unicode="&#x389;" horiz-adv-x="832" 
d="M748 0h-261l8 39q43 24 76 34l47 243h-321l-47 -243q26 -8 66 -34l-8 -39h-259l6 39q54 26 84 34l101 529q-26 8 -71 35l8 38h260l-8 -38q-48 -26 -77 -35l-42 -218h321l42 218q-23 8 -65 35l8 38h260l-8 -38q-56 -27 -83 -35l-102 -529q29 -9 72 -34zM182 749l-85 -178
l-47 9l41 188z" />
    <glyph glyph-name="Iotatonos" unicode="&#x38a;" horiz-adv-x="399" 
d="M315 0h-266l6 39q41 22 84 34l101 529q-17 6 -34.5 14.5t-27.5 14.5l-9 6l8 38h266l-8 -38q-40 -22 -83 -35l-102 -529q17 -5 35 -13.5t27 -14.5l10 -6zM182 749l-85 -178l-47 9l41 188z" />
    <glyph glyph-name="Omicrontonos" unicode="&#x38c;" horiz-adv-x="734" 
d="M719 435q0 -87 -28.5 -167t-80.5 -142t-130.5 -99t-171.5 -37q-127 0 -193.5 68t-66.5 182q0 87 28.5 167t80.5 142t130.5 99t171.5 37q128 0 194 -68t66 -182zM595 419q0 91 -44.5 143t-125.5 52q-64 0 -114.5 -35t-79 -90.5t-43.5 -115.5t-15 -117q0 -90 44.5 -142
t125.5 -52q64 0 114.5 35t79 90t43.5 115t15 117zM182 749l-85 -178l-47 9l41 188z" />
    <glyph glyph-name="Upsilontonos" unicode="&#x38e;" horiz-adv-x="667" 
d="M466 39l-7 -39h-267l8 39q50 25 83 34l40 205l-121 326q-24 12 -42 33l8 38h232l-8 -38q-30 -22 -67 -33l89 -251h1l161 249q-30 12 -55 35l8 38h205l-7 -38q-24 -21 -54 -35l-239 -324l-39 -205q27 -8 71 -34zM182 749l-85 -178l-47 9l41 188z" />
    <glyph glyph-name="Omegatonos" unicode="&#x38f;" horiz-adv-x="771" 
d="M738 455q0 -219 -252 -371l-1 -6h123q16 41 40 74h47l-30 -152h-265l16 92q90 60 142.5 149t52.5 190q0 82 -42 132.5t-125 50.5q-104 0 -173 -91t-69 -225q0 -126 89 -206l-17 -92h-265l28 152h46q8 -30 10 -74h124l1 6q-60 35 -98.5 92.5t-38.5 136.5q0 150 115.5 261
t276.5 111q124 0 194.5 -63.5t70.5 -166.5zM199 749l-85 -178l-47 9l41 188z" />
    <glyph glyph-name="iotadieresistonos" unicode="&#x390;" horiz-adv-x="300" 
d="M244 503l-70 -365q-8 -46 -2 -59.5t31 -13.5q19 0 40 8l6 -44q-50 -37 -110 -37q-83 0 -83 73q0 21 8 63l57 301q-23 12 -63 19l8 40q8 2 23.5 5t62 7.5t92.5 2.5zM152 660q0 -25 -17.5 -42t-41.5 -17t-39 15.5t-15 39.5t17.5 41t40.5 17q24 0 39.5 -15.5t15.5 -38.5z
M408 660q0 -25 -17.5 -42t-41.5 -17q-23 0 -38.5 16t-15.5 39q0 24 17.5 41t41.5 17t39 -15.5t15 -38.5zM300 749l-84 -178l-47 9l40 188z" />
    <glyph glyph-name="Alpha" unicode="&#x391;" horiz-adv-x="658" 
d="M595 0h-243l7 38q33 21 77 34l-17 104h-241l-52 -104q29 -11 57 -34l-7 -38h-215l7 39q23 18 60 33l333 608h91l101 -609q32 -16 49 -33zM410 235l-50 316h-1l-155 -316h206z" />
    <glyph glyph-name="Beta" unicode="&#x392;" horiz-adv-x="605" 
d="M594 551q0 -68 -46 -119.5t-109 -64.5v-1q56 -8 88.5 -43t32.5 -90q0 -98 -85.5 -167t-224.5 -69q-19 0 -86 1.5t-103 1.5h-79l6 39q44 22 84 34l101 529q-41 15 -70 35l8 38h77q21 0 88 2t110 2q208 0 208 -128zM474 535q0 40 -25.5 62t-90.5 22q-40 0 -71 -5l-44 -234
q14 -1 63 -1q77 0 122.5 43.5t45.5 112.5zM440 225q0 50 -39 74t-107 24q-49 0 -63 -1l-47 -250q44 -13 79 -13q87 0 132 50t45 116z" />
    <glyph glyph-name="Gamma" unicode="&#x393;" horiz-adv-x="508" 
d="M526 495h-50q-13 57 -15 109l-174 8l-103 -539q33 -11 71 -35l-7 -38h-266l6 38q41 21 84 35l101 529q-32 10 -71 34l8 39h450z" />
    <glyph glyph-name="Delta" unicode="&#x394;" horiz-adv-x="610" 
d="M521 0h-531l11 61l343 619h90l99 -619zM411 74l-69 479l-244 -479h313z" />
    <glyph glyph-name="Delta" unicode="&#x2206;" horiz-adv-x="610" 
d="M521 0h-531l11 61l343 619h90l99 -619zM411 74l-69 479l-244 -479h313z" />
    <glyph glyph-name="Epsilon" unicode="&#x395;" horiz-adv-x="533" 
d="M421 0h-439l6 39q46 24 84 34l101 529q-32 10 -71 35l8 38h437l-30 -155h-50q-15 56 -15 94h-165l-46 -238h133q19 36 42 64h43l-35 -184h-43q-14 27 -17 63h-133l-49 -256h167q17 46 52 99h50z" />
    <glyph glyph-name="Zeta" unicode="&#x396;" horiz-adv-x="542" 
d="M579 675l-12 -61l-437 -551l253 8q24 55 59 105h49l-32 -176h-473l11 61l437 551l-235 -6q-26 -59 -60 -102h-48l38 171h450z" />
    <glyph glyph-name="Eta" unicode="&#x397;" horiz-adv-x="764" 
d="M681 0h-261l8 39q43 24 76 34l47 243h-321l-47 -243q26 -8 66 -34l-8 -39h-259l6 39q54 26 84 34l101 529q-26 8 -71 35l8 38h260l-8 -38q-48 -26 -77 -35l-42 -218h321l42 218q-23 8 -65 35l8 38h260l-8 -38q-56 -27 -83 -35l-102 -529q29 -9 72 -34z" />
    <glyph glyph-name="Theta" unicode="&#x398;" horiz-adv-x="747" 
d="M735 432q0 -120 -52.5 -221t-150.5 -161.5t-221 -60.5q-133 0 -203 69.5t-70 183.5q0 121 52 222t150 161.5t221 60.5q134 0 204 -69.5t70 -184.5zM614 412q0 95 -49 148.5t-140 53.5q-64 0 -116.5 -32t-84.5 -83.5t-49 -112.5t-17 -123q0 -95 49 -148t139 -53
q65 0 117.5 31.5t84.5 83t49 112t17 123.5zM291 301h177q0 -23 14 -63h38l39 207h-38q-17 -24 -39 -64h-176q0 19 -15 64h-38l-39 -207h39q30 44 38 63z" />
    <glyph glyph-name="Iota" unicode="&#x399;" horiz-adv-x="332" 
d="M248 0h-266l6 39q41 22 84 34l101 529q-17 6 -34.5 14.5t-26.5 14.5l-10 6l8 38h266l-8 -38q-40 -22 -83 -35l-102 -529q17 -5 35 -13.5t28 -14.5l9 -6z" />
    <glyph glyph-name="Kappa" unicode="&#x39a;" horiz-adv-x="675" 
d="M710 675l-8 -39q-37 -22 -70 -35l-287 -231l212 -296q35 -16 58 -35l-7 -39h-265l7 39q44 26 66 34l-182 262l-50 -262q27 -9 62 -34l-7 -39h-257l6 39q57 27 84 34l101 529q-26 8 -71 35l8 38h253l-8 -38q-27 -19 -70 -35l-46 -239l269 239q-26 13 -48 35l8 38h242z" />
    <glyph glyph-name="Lambda" unicode="&#x39b;" horiz-adv-x="657" 
d="M-39 0l6 38q29 21 61 34l333 608h91l101 -609q27 -12 48 -33l-7 -38h-245l7 38q39 23 78 34l-75 477h-1l-232 -477q27 -10 57 -34l-7 -38h-215z" />
    <glyph glyph-name="Mu" unicode="&#x39c;" horiz-adv-x="919" 
d="M843 0h-242l7 38q43 27 76 37l37 470h-1l-295 -545h-75l-96 540h-1l-123 -467q35 -12 61 -35l-7 -38h-209l7 39q34 23 58 34l167 527q-32 13 -67 37l8 38h197l90 -507l280 507h208l-8 -38q-48 -27 -81 -37l-30 -526q27 -16 46 -35z" />
    <glyph glyph-name="Nu" unicode="&#x39d;" horiz-adv-x="711" 
d="M559 -6h-79l-253 556l-71 -474q34 -14 65 -37l-7 -39h-232l7 39q58 30 81 37l106 526q-34 9 -73 35l8 38h188l228 -496l65 420q-24 10 -60 38l8 38h210l-8 -38q-50 -31 -68 -38z" />
    <glyph glyph-name="Xi" unicode="&#x39e;" horiz-adv-x="641" 
d="M142 675h512l-37 -195h-50q-16 64 -16 107h-339q-17 -44 -57 -107h-50zM534 0h-529l38 198h50q16 -60 16 -109h354q16 45 58 109h50zM241 303h169q1 -23 15 -65h39l40 212h-39q-23 -32 -39 -65h-171q0 20 -13 65h-40l-40 -212h39q31 44 40 65z" />
    <glyph glyph-name="Omicron" unicode="&#x39f;" horiz-adv-x="724" 
d="M710 435q0 -87 -28.5 -167t-80.5 -142t-130.5 -99t-171.5 -37q-127 0 -193.5 68t-66.5 182q0 87 28.5 167t80.5 142t130.5 99t171.5 37q128 0 194 -68t66 -182zM586 419q0 91 -44.5 143t-125.5 52q-64 0 -114.5 -35t-79 -90.5t-43.5 -115.5t-15 -117q0 -90 44.5 -142
t125.5 -52q64 0 114.5 35t79 90t43.5 115t15 117z" />
    <glyph glyph-name="Pi" unicode="&#x3a0;" horiz-adv-x="764" 
d="M681 0h-261l8 39q43 24 76 34l103 534h-321l-103 -534q26 -8 66 -34l-8 -39h-259l6 39q54 26 84 34l101 529q-26 8 -71 35l8 38h699l-8 -38q-56 -27 -83 -35l-102 -529q29 -9 72 -34z" />
    <glyph glyph-name="Rho" unicode="&#x3a1;" horiz-adv-x="580" 
d="M593 521q0 -86 -48.5 -150.5t-118 -94.5t-144.5 -30l-65 2l-34 -175q19 -6 37.5 -14.5t27.5 -14.5l9 -5l-7 -39h-269l7 39q41 22 84 34l101 529q-16 5 -34 14t-27 15l-10 6l8 38h68q16 0 88 2t114 2q106 0 159.5 -41.5t53.5 -116.5zM476 514q0 48 -31 76.5t-90 28.5
q-32 0 -68 -6l-55 -289q35 -13 72 -13q82 0 127 61t45 142z" />
    <glyph glyph-name="Sigma" unicode="&#x3a3;" horiz-adv-x="561" 
d="M573 675l-28 -170h-50q-17 61 -18 106l-247 4q10 -14 64 -101l97 -159l-263 -265l259 3q21 58 60 117h50l-40 -210h-470l9 47l282 283l-170 274l14 71h451z" />
    <glyph glyph-name="Tau" unicode="&#x3a4;" horiz-adv-x="567" 
d="M595 505h-46q-17 52 -19 109h-126l-102 -541q19 -6 38.5 -14.5t29.5 -14.5l9 -5l-7 -39h-279l7 39q42 22 90 35l103 540h-125q-10 -25 -25 -52t-25 -42l-10 -15h-46l32 170h534z" />
    <glyph glyph-name="Upsilon" unicode="&#x3a5;" horiz-adv-x="584" 
d="M384 39l-7 -39h-267l8 39q50 25 83 34l40 205l-121 326q-24 12 -42 33l8 38h232l-8 -38q-30 -22 -67 -33l89 -251h1l161 249q-30 12 -55 35l8 38h205l-7 -38q-24 -21 -54 -35l-239 -324l-39 -205q27 -8 71 -34z" />
    <glyph glyph-name="Phi" unicode="&#x3a6;" horiz-adv-x="809" 
d="M674 374q0 61 -41 98.5t-127 42.5l-68 -355q116 -2 176 59t60 155zM328 160l68 355q-117 3 -176.5 -58.5t-59.5 -154.5q0 -61 41.5 -98.5t126.5 -43.5zM526 620l-7 -38q278 1 278 -187q0 -142 -106 -219.5t-265 -82.5l-7 -38q41 -13 71 -29l-6 -38h-265l7 38q39 18 83 29
l7 37q-278 0 -278 188q0 141 106 220t265 82l7 38q-39 11 -70 29l7 38h262l-7 -38q-37 -18 -82 -29z" />
    <glyph glyph-name="Chi" unicode="&#x3a7;" horiz-adv-x="662" 
d="M598 0h-264l7 39q35 22 72 36l-95 210l-173 -210q18 -7 56 -36l-7 -39h-233l7 39q27 20 67 36l246 261l-130 265q-27 11 -56 36l8 38h265l-8 -38q-34 -23 -74 -37l89 -191l155 191q-28 13 -56 37l8 38h230l-8 -38q-28 -19 -66 -35l-228 -244l139 -284q23 -10 56 -35z" />
    <glyph glyph-name="Psi" unicode="&#x3a8;" horiz-adv-x="826" 
d="M101 347q0 57 43 255q-23 8 -54 35l8 38h229l-8 -37q-43 -27 -65 -33q-39 -202 -39 -233q0 -62 33.5 -96t117.5 -41l70 369q-27 10 -56 34l7 37h234l-8 -37q-35 -21 -68 -34l-72 -372q185 3 224 215q20 113 27 158q-33 14 -52 33l7 37h208l-8 -38q-39 -27 -69 -37
q-4 -17 -17 -83.5t-22 -102.5q-26 -109 -105 -178.5t-205 -74.5l-18 -93q31 -8 72 -31l-7 -37h-265l7 37q44 20 83 31l18 92q-250 14 -250 187z" />
    <glyph glyph-name="Omega" unicode="&#x3a9;" horiz-adv-x="768" 
d="M735 455q0 -219 -252 -371l-1 -6h123q15 41 40 74h47l-30 -152h-265l16 92q90 60 142.5 149t52.5 190q0 82 -42 132.5t-125 50.5q-104 0 -173 -91t-69 -225q0 -126 89 -206l-17 -92h-265l28 152h46q8 -30 10 -74h124l1 6q-60 35 -98.5 92.5t-38.5 136.5q0 150 115.5 261
t276.5 111q124 0 194.5 -63.5t70.5 -166.5z" />
    <glyph glyph-name="Omega" unicode="&#x2126;" horiz-adv-x="768" 
d="M735 455q0 -219 -252 -371l-1 -6h123q15 41 40 74h47l-30 -152h-265l16 92q90 60 142.5 149t52.5 190q0 82 -42 132.5t-125 50.5q-104 0 -173 -91t-69 -225q0 -126 89 -206l-17 -92h-265l28 152h46q8 -30 10 -74h124l1 6q-60 35 -98.5 92.5t-38.5 136.5q0 150 115.5 261
t276.5 111q124 0 194.5 -63.5t70.5 -166.5z" />
    <glyph glyph-name="Iotadieresis" unicode="&#x3aa;" horiz-adv-x="332" 
d="M248 0h-266l6 39q41 22 84 34l101 529q-17 6 -34.5 14.5t-26.5 14.5l-10 6l8 38h266l-8 -38q-40 -22 -83 -35l-102 -529q17 -5 35 -13.5t28 -14.5l9 -6zM425 793q0 -26 -18 -44t-43 -18q-26 0 -41.5 15.5t-15.5 41.5q0 25 18 43t44 18q25 0 40.5 -15.5t15.5 -40.5z
M223 793q0 -26 -18 -44t-43 -18q-26 0 -41.5 15.5t-15.5 41.5q0 25 18 43t44 18q25 0 40.5 -15.5t15.5 -40.5z" />
    <glyph glyph-name="Upsilondieresis" unicode="&#x3ab;" horiz-adv-x="584" 
d="M384 39l-7 -39h-267l8 39q50 25 83 34l40 205l-121 326q-24 12 -42 33l8 38h232l-8 -38q-30 -22 -67 -33l89 -251h1l161 249q-30 12 -55 35l8 38h205l-7 -38q-24 -21 -54 -35l-239 -324l-39 -205q27 -8 71 -34zM555 793q0 -26 -18 -44t-43 -18q-26 0 -41.5 15.5
t-15.5 41.5q0 25 18 43t44 18q25 0 40.5 -15.5t15.5 -40.5zM353 793q0 -26 -18 -44t-43 -18q-26 0 -41.5 15.5t-15.5 41.5q0 25 18 43t44 18q25 0 40.5 -15.5t15.5 -40.5z" />
    <glyph glyph-name="alphatonos" unicode="&#x3ac;" horiz-adv-x="624" 
d="M379 138q-105 -148 -211 -148q-69 0 -106.5 40t-37.5 120q0 155 84.5 257t219.5 102q74 0 104 -38.5t35 -137.5q28 68 53 167h93q-60 -141 -136 -265l3 -55q4 -73 14 -96t36 -23q12 0 30 5l1 -42q-42 -32 -99 -32q-45 0 -61.5 30t-21.5 116zM369 212l-2 47
q-6 108 -18.5 147t-48.5 39q-58 0 -109 -83t-51 -193q0 -105 66 -105q73 0 163 148zM460 749l-85 -178l-47 9l41 188z" />
    <glyph glyph-name="epsilontonos" unicode="&#x3ad;" horiz-adv-x="460" 
d="M373 100l11 -49q-88 -60 -190 -60q-94 0 -139.5 33.5t-45.5 90.5q0 49 39.5 86t94.5 53v1q-70 32 -70 100q0 62 65.5 109t183.5 47q69 0 137 -19l-35 -87q-60 45 -130 45q-50 0 -80 -24t-30 -57q0 -74 132 -74q29 0 65 4l-31 -78q-47 9 -94 9q-61 0 -93.5 -25t-32.5 -63
q0 -32 28.5 -52.5t85.5 -20.5q66 0 129 31zM404 749l-85 -178l-47 9l41 188z" />
    <glyph glyph-name="etatonos" unicode="&#x3ae;" horiz-adv-x="585" 
d="M41 0l82 428q-24 12 -65 20l8 40q8 2 23.5 5t61.5 7t90 3q-10 -72 -51 -195h2q34 82 94.5 141.5t127.5 59.5q110 0 110 -135q0 -63 -50.5 -289.5t-49.5 -329.5h-107q-1 104 47 323.5t48 273.5q0 42 -10.5 60.5t-34.5 18.5q-55 0 -112 -92t-77 -193l-28 -146h-109z
M452 749l-85 -178l-47 9l41 188z" />
    <glyph glyph-name="iotatonos" unicode="&#x3af;" horiz-adv-x="300" 
d="M244 503l-70 -365q-8 -46 -2 -59.5t31 -13.5q19 0 40 8l6 -44q-50 -37 -110 -37q-83 0 -83 73q0 21 8 63l57 301q-23 12 -63 19l8 40q8 2 23.5 5t62 7.5t92.5 2.5zM311 749l-85 -178l-47 9l41 188z" />
    <glyph glyph-name="upsilondieresistonos" unicode="&#x3b0;" horiz-adv-x="589" 
d="M67 132q0 87 55 297q-35 14 -64 19l8 40q81 18 180 15q-67 -289 -67 -348q0 -48 20 -68.5t67 -20.5t82 38t51.5 94.5t23.5 104t7 83.5q0 31 -14.5 46t-49.5 16l8 43q37 15 83 15q45 0 66 -23t21 -72q0 -68 -21.5 -141t-60.5 -136t-101 -103.5t-135 -40.5q-82 0 -120.5 35
t-38.5 107zM297 660q0 -25 -17.5 -42t-41.5 -17t-39 15.5t-15 39.5t17.5 41t40.5 17q24 0 39.5 -15.5t15.5 -38.5zM553 660q0 -25 -17.5 -42t-41.5 -17q-23 0 -38.5 16t-15.5 39q0 24 17.5 41t41.5 17t39 -15.5t15 -38.5zM445 749l-84 -178l-47 9l40 188z" />
    <glyph glyph-name="alpha" unicode="&#x3b1;" horiz-adv-x="624" 
d="M379 138q-105 -148 -211 -148q-69 0 -106.5 40t-37.5 120q0 155 84.5 257t219.5 102q74 0 104 -38.5t35 -137.5q28 68 53 167h93q-60 -141 -136 -265l3 -55q4 -73 14 -96t36 -23q12 0 30 5l1 -42q-42 -32 -99 -32q-45 0 -61.5 30t-21.5 116zM369 212l-2 47
q-6 108 -18.5 147t-48.5 39q-58 0 -109 -83t-51 -193q0 -105 66 -105q73 0 163 148z" />
    <glyph glyph-name="beta" unicode="&#x3b2;" horiz-adv-x="551" 
d="M533 629q0 -47 -31 -91t-74 -75q82 -49 82 -165q0 -120 -86.5 -213.5t-205.5 -93.5q-87 0 -129.5 43.5t-42.5 137.5q0 59 11.5 129.5t39 148.5t67.5 141t103 104.5t138 41.5q62 0 95 -29.5t33 -78.5zM420 615q0 58 -51 58q-58 0 -105.5 -75.5t-74.5 -195.5
q122 38 176.5 94t54.5 119zM394 279q0 88 -60 127q-84 -44 -158 -67q-18 -80 -18 -151q0 -133 86 -133q64 0 107 72t43 152z" />
    <glyph glyph-name="gamma" unicode="&#x3b3;" horiz-adv-x="543" 
d="M532 413q0 -35 -11 -71.5t-23 -62.5t-39.5 -62.5t-41 -52.5t-49 -54t-42.5 -46q-44 -47 -64.5 -81t-32.5 -91l-30 -137h-104q50 222 49 320q-2 221 -53 355q-22 13 -51 19l8 40q60 16 150 14q25 -79 38.5 -179.5t13.5 -170.5q0 -56 -4 -93h2q12 17 50.5 67.5t59 81
t40.5 79.5t20 93q0 35 -15.5 50.5t-48.5 17.5l8 43q45 15 87 15q40 0 61.5 -24t21.5 -70z" />
    <glyph glyph-name="delta" unicode="&#x3b4;" horiz-adv-x="541" 
d="M385 267q0 56 -26 97t-82 76q-65 -27 -98.5 -98.5t-33.5 -155.5q0 -65 26 -97.5t70 -32.5q58 0 101 57t43 154zM530 696l-68 -83q-79 76 -157 76q-32 0 -50.5 -16t-18.5 -42q0 -27 27.5 -53t66.5 -51t78 -55.5t66.5 -79.5t27.5 -110q0 -124 -83.5 -208t-205.5 -84
q-88 0 -137 48.5t-49 131.5q0 111 55.5 189.5t148.5 110.5q-81 53 -81 121q0 69 55 112t162 43q92 0 163 -50z" />
    <glyph glyph-name="epsilon" unicode="&#x3b5;" horiz-adv-x="460" 
d="M373 100l11 -49q-88 -60 -190 -60q-94 0 -139.5 33.5t-45.5 90.5q0 49 39.5 86t94.5 53v1q-70 32 -70 100q0 62 65.5 109t183.5 47q69 0 137 -19l-35 -87q-60 45 -130 45q-50 0 -80 -24t-30 -57q0 -74 132 -74q29 0 65 4l-31 -78q-47 9 -94 9q-61 0 -93.5 -25t-32.5 -63
q0 -32 28.5 -52.5t85.5 -20.5q66 0 129 31z" />
    <glyph glyph-name="zeta" unicode="&#x3b6;" horiz-adv-x="401" 
d="M353 -15q0 -54 -45.5 -108.5t-111.5 -96.5l-31 34q81 69 81 123q1 22 -17.5 36t-70.5 27q-75 22 -106 56.5t-31 103.5q0 124 96 256.5t251 235.5q-57 -8 -126 -8t-103 7l15 85q156 -15 318 -1l-15 -78q-154 -106 -235.5 -234t-81.5 -230q0 -47 22 -71t74 -38
q66 -17 91.5 -40.5t25.5 -58.5z" />
    <glyph glyph-name="eta" unicode="&#x3b7;" horiz-adv-x="589" 
d="M41 0l82 428q-24 12 -65 20l8 40q8 2 23.5 5t61.5 7t90 3q-10 -72 -51 -195h2q34 82 94.5 141.5t127.5 59.5q110 0 110 -135q0 -63 -50.5 -289.5t-49.5 -329.5h-107q-1 104 47 323.5t48 273.5q0 42 -10.5 60.5t-34.5 18.5q-55 0 -112 -92t-77 -193l-28 -146h-109z" />
    <glyph glyph-name="theta" unicode="&#x3b8;" horiz-adv-x="574" 
d="M31 360l9 42q34 12 85 12q69 0 69 -55q0 -26 -17.5 -98.5t-17.5 -105.5q0 -98 77 -98q45 0 81.5 39t58 100t34 122t15.5 118q-44 -4 -85 -4q-201 0 -201 120q0 68 67 128.5t153 60.5q81 0 130.5 -59.5t49.5 -169.5v-10q58 0 89 -7l-14 -66q-36 9 -78 8q-7 -85 -32 -163
t-65.5 -142.5t-102 -103t-135.5 -38.5q-77 0 -116.5 39.5t-39.5 107.5q0 35 15.5 100.5t15.5 85.5q0 18 -10.5 27t-34.5 10zM428 495q0 90 -29 133.5t-73 43.5q-39 0 -63.5 -26t-24.5 -71q0 -84 118 -84q34 0 72 4z" />
    <glyph glyph-name="iota" unicode="&#x3b9;" horiz-adv-x="300" 
d="M244 503l-70 -365q-8 -46 -2 -59.5t31 -13.5q19 0 40 8l6 -44q-50 -37 -110 -37q-83 0 -83 73q0 21 8 63l57 301q-23 12 -63 19l8 40q8 2 23.5 5t62 7.5t92.5 2.5z" />
    <glyph glyph-name="kappa" unicode="&#x3ba;" horiz-adv-x="531" 
d="M479 66v-42q-36 -32 -92 -32q-42 0 -61.5 21.5t-51.5 89.5l-75 147l-48 -250h-109l81 428q-32 13 -65 20l8 40q76 19 180 15l-46 -241l199 238h149l-8 -40q-32 -15 -65 -25l-173 -154l79 -147q24 -46 36.5 -59.5t31.5 -13.5q15 0 30 5z" />
    <glyph glyph-name="lambda" unicode="&#x3bb;" horiz-adv-x="506" 
d="M81 -14l-103 43l214 366q38 69 48.5 107t5.5 80q-7 55 -17.5 71.5t-34.5 16.5q-22 0 -44 -8l-1 44q49 32 109 34q45 1 66 -26.5t29 -101.5l52 -457q7 -57 16 -75.5t33 -18.5q15 0 28 5l1 -42q-40 -32 -95 -32q-46 0 -64.5 27.5t-26.5 98.5q-17 144 -27 304h-2
q-23 -104 -187 -436z" />
    <glyph glyph-name="mu" unicode="&#x3bc;" horiz-adv-x="600" 
d="M553 503l-71 -371q-8 -42 -1.5 -56.5t31.5 -14.5q16 0 29 5l1 -42q-43 -32 -104 -32q-67 0 -67 60q0 38 32 139l-2 1q-33 -81 -90 -141t-117 -60q-42 0 -61 36l-39 -272h-94q35 217 70 404q22 114 57 270q-33 13 -69 19l8 41q86 17 184 14q-69 -276 -69 -355
q0 -43 10.5 -61.5t34.5 -18.5q55 0 112.5 92t76.5 194l14 75q-22 10 -62 19l8 40q75 18 178 15z" />
    <glyph glyph-name="nu" unicode="&#x3bd;" horiz-adv-x="535" 
d="M529 428q0 -89 -67 -187t-205 -241h-103l-59 429q-20 12 -52 20l8 40q71 16 151 14l40 -334q2 -16 5.5 -49.5t4.5 -40.5h1q161 183 161 310q0 60 -63 60l8 43q41 15 90 15q38 0 59 -20.5t21 -58.5z" />
    <glyph glyph-name="xi" unicode="&#x3be;" horiz-adv-x="433" 
d="M359 -15q0 -54 -45.5 -108t-112.5 -96l-31 34q81 69 82 122q0 23 -19.5 37.5t-74.5 26.5q-72 19 -106.5 53.5t-34.5 98.5q0 77 54.5 142t119.5 86q-33 15 -55.5 45.5t-22.5 71.5q0 44 17 86.5t50 78t88.5 56.5t125.5 20q54 -2 87 -13l-31 -87q-41 33 -92 33
q-64 0 -99 -46.5t-35 -106.5q0 -42 27.5 -68t75.5 -26q26 0 66 4l-14 -79q-35 5 -64 5q-75 0 -128.5 -48t-53.5 -123q0 -41 24 -63.5t86 -37.5q63 -15 89.5 -39t26.5 -59z" />
    <glyph glyph-name="omicron" unicode="&#x3bf;" horiz-adv-x="577" 
d="M541 322q0 -137 -86 -234.5t-230 -97.5q-98 0 -147.5 53t-49.5 135q0 136 86.5 233.5t230.5 97.5q98 0 147 -52.5t49 -134.5zM424 310q0 62 -28 98t-84 36q-48 0 -83 -30t-52 -74.5t-24.5 -82.5t-7.5 -68q0 -61 28 -97t84 -36q48 0 83 30t52 74.5t24.5 82.5t7.5 67z" />
    <glyph glyph-name="pi" unicode="&#x3c0;" horiz-adv-x="650" 
d="M668 500l-16 -80h-117q-43 -230 -43 -304q0 -28 9 -38.5t31 -10.5q28 0 49 8l6 -43q-55 -40 -118 -40q-49 0 -70.5 22.5t-21.5 70.5q0 57 63 335h-178q-50 -273 -125 -431l-118 25q100 169 150 406h-22q-55 0 -96 -20l-4 48q64 52 147 52h474z" />
    <glyph glyph-name="rho" unicode="&#x3c1;" horiz-adv-x="560" 
d="M523 340q0 -157 -92 -252t-233 -95q-51 0 -77 8q-3 -29 -13 -76l-33 -170h-109l99 518q21 108 102.5 172.5t189.5 64.5q75 0 120.5 -45.5t45.5 -124.5zM406 319q0 122 -95 122q-43 0 -82 -39.5t-54 -121.5l-37 -200q34 -26 87 -26q76 0 128.5 74.5t52.5 190.5z" />
    <glyph glyph-name="sigma1" unicode="&#x3c2;" horiz-adv-x="453" 
d="M361 426q-30 16 -65 16q-49 0 -85.5 -45t-51.5 -99t-15 -101q0 -51 21.5 -75.5t74.5 -38.5q70 -20 96 -42.5t26 -58.5q0 -52 -45 -105t-112 -96l-31 34q81 69 81 122q0 20 -20.5 34t-74.5 29q-135 37 -135 167q0 54 16 110t49 109.5t95 87.5t143 34q74 0 123 -15
l-31 -161h-46q-14 52 -13 94z" />
    <glyph glyph-name="sigma" unicode="&#x3c3;" horiz-adv-x="591" 
d="M594 416q-55 -2 -109 10q49 -58 49 -131q0 -55 -21 -109t-58.5 -98t-97.5 -71t-132 -27q-98 0 -147.5 53t-49.5 135q0 137 87 234t235 97q36 0 124 -5t137 -5zM424 317q0 72 -29 118q-36 11 -76 11q-41 0 -73.5 -21t-50.5 -51t-30 -67.5t-16 -66t-4 -51.5q0 -61 28 -97
t84 -36q48 0 83 30t52 75t24.5 84.5t7.5 71.5z" />
    <glyph glyph-name="tau" unicode="&#x3c4;" horiz-adv-x="401" 
d="M176 420h-39q-54 0 -95 -20l-5 48q60 52 147 52h246l-15 -80h-143q-50 -231 -50 -300q0 -31 10.5 -42t40.5 -11q27 0 54 9l6 -44q-58 -40 -126 -40q-55 0 -77.5 23t-22.5 72q0 61 69 333z" />
    <glyph glyph-name="upsilon" unicode="&#x3c5;" horiz-adv-x="579" 
d="M67 132q0 87 55 297q-35 14 -64 19l8 40q81 18 180 15q-67 -289 -67 -348q0 -48 20 -68.5t67 -20.5t82 38t51.5 94.5t23.5 104t7 83.5q0 31 -14.5 46t-49.5 16l8 43q37 15 83 15q45 0 66 -23t21 -72q0 -68 -21.5 -141t-60.5 -136t-101 -103.5t-135 -40.5q-82 0 -120.5 35
t-38.5 107z" />
    <glyph glyph-name="phi" unicode="&#x3c6;" horiz-adv-x="693" 
d="M346 -8l-45 -237h-109l44 235q-99 6 -155 55t-56 131q0 103 67 197.5t169 137.5l29 -41q-63 -40 -105 -119.5t-42 -159.5q0 -114 106 -136l46 241q19 102 78.5 155.5t138.5 53.5q63 0 105.5 -49.5t42.5 -129.5q0 -126 -81 -219t-233 -115zM544 323q0 54 -19 87.5
t-46 33.5q-48 0 -72 -129l-50 -264q96 17 141.5 91t45.5 181z" />
    <glyph glyph-name="chi" unicode="&#x3c7;" horiz-adv-x="472" 
d="M400 -176l1 -41q-44 -33 -98 -33q-43 0 -61 23.5t-31 94.5l-39 204l-171 -325l-98 30l250 361l-40 200q-12 63 -21.5 80.5t-32.5 17.5q-15 0 -33 -5l-1 41q41 33 98 33q43 0 61.5 -24t31.5 -94l30 -173l157 299l100 -27l-236 -337l46 -231q13 -64 22.5 -81.5t31.5 -17.5
q15 0 33 5z" />
    <glyph glyph-name="psi" unicode="&#x3c8;" horiz-adv-x="785" 
d="M405 -3l-46 -242h-108l45 238q-120 4 -172 49.5t-52 129.5q0 63 49 256q-27 13 -63 20l8 40q77 18 180 15q-59 -252 -59 -310q0 -116 122 -132l114 599q-32 14 -69 20l7 41q80 17 186 14l-129 -674q65 6 113.5 46t71.5 95t33 102.5t10 85.5q0 30 -11.5 43.5t-42.5 14.5
l8 44q42 15 82 15q79 0 79 -91q0 -45 -11.5 -95t-39 -104.5t-67 -99.5t-101.5 -78t-137 -42z" />
    <glyph glyph-name="omega" unicode="&#x3c9;" horiz-adv-x="791" 
d="M751 317q0 -57 -20 -115t-55 -105t-88 -77t-113 -30q-58 0 -90.5 30t-35.5 84q-23 -53 -70 -83.5t-105 -30.5q-66 0 -106.5 43.5t-40.5 119.5q0 111 61 212t147 159l43 -33q-62 -60 -96.5 -146.5t-34.5 -164.5q0 -114 72 -114q37 0 66 32.5t42 101.5q29 158 35 212h120
q-22 -71 -42 -188q-16 -85 -0.5 -121.5t58.5 -36.5q59 0 99 80.5t40 195.5q0 83 -38 148l58 34q94 -83 94 -207z" />
    <glyph glyph-name="iotadieresis" unicode="&#x3ca;" horiz-adv-x="300" 
d="M244 503l-70 -365q-8 -46 -2 -59.5t31 -13.5q19 0 40 8l6 -44q-50 -37 -110 -37q-83 0 -83 73q0 21 8 63l57 301q-23 12 -63 19l8 40q8 2 23.5 5t62 7.5t92.5 2.5zM363 658q0 -27 -18.5 -45t-44.5 -18q-25 0 -41 16.5t-16 41.5q0 27 18.5 45t44.5 18q25 0 41 -16.5
t16 -41.5zM186 658q0 -27 -18.5 -45t-44.5 -18q-25 0 -41.5 16.5t-16.5 41.5q0 27 18.5 45t45.5 18q25 0 41 -16.5t16 -41.5z" />
    <glyph glyph-name="upsilondieresis" unicode="&#x3cb;" horiz-adv-x="579" 
d="M67 132q0 87 55 297q-35 14 -64 19l8 40q81 18 180 15q-67 -289 -67 -348q0 -48 20 -68.5t67 -20.5t82 38t51.5 94.5t23.5 104t7 83.5q0 31 -14.5 46t-49.5 16l8 43q37 15 83 15q45 0 66 -23t21 -72q0 -68 -21.5 -141t-60.5 -136t-101 -103.5t-135 -40.5q-82 0 -120.5 35
t-38.5 107zM521 658q0 -27 -18.5 -45t-44.5 -18t-42.5 16t-16.5 42q0 27 18.5 45t45.5 18q26 0 42 -16t16 -42zM328 658q0 -27 -18.5 -45t-45.5 -18q-26 0 -42 16t-16 42q0 27 18.5 45t45.5 18q26 0 42 -16t16 -42z" />
    <glyph glyph-name="omicrontonos" unicode="&#x3cc;" horiz-adv-x="577" 
d="M541 322q0 -137 -86 -234.5t-230 -97.5q-98 0 -147.5 53t-49.5 135q0 136 86.5 233.5t230.5 97.5q98 0 147 -52.5t49 -134.5zM424 310q0 62 -28 98t-84 36q-48 0 -83 -30t-52 -74.5t-24.5 -82.5t-7.5 -68q0 -61 28 -97t84 -36q48 0 83 30t52 74.5t24.5 82.5t7.5 67z
M447 749l-85 -178l-47 9l41 188z" />
    <glyph glyph-name="upsilontonos" unicode="&#x3cd;" horiz-adv-x="579" 
d="M67 132q0 87 55 297q-35 14 -64 19l8 40q81 18 180 15q-67 -289 -67 -348q0 -48 20 -68.5t67 -20.5t82 38t51.5 94.5t23.5 104t7 83.5q0 31 -14.5 46t-49.5 16l8 43q37 15 83 15q45 0 66 -23t21 -72q0 -68 -21.5 -141t-60.5 -136t-101 -103.5t-135 -40.5q-82 0 -120.5 35
t-38.5 107zM453 749l-85 -178l-47 9l41 188z" />
    <glyph glyph-name="omegatonos" unicode="&#x3ce;" horiz-adv-x="789" 
d="M751 317q0 -57 -20 -115t-55 -105t-88 -77t-113 -30q-58 0 -90.5 30t-35.5 84q-23 -53 -70 -83.5t-105 -30.5q-66 0 -106.5 43.5t-40.5 119.5q0 111 61 212t147 159l43 -33q-62 -60 -96.5 -146.5t-34.5 -164.5q0 -114 72 -114q37 0 66 32.5t42 101.5q29 158 35 212h120
q-22 -71 -42 -188q-16 -85 -0.5 -121.5t58.5 -36.5q59 0 99 80.5t40 195.5q0 83 -38 148l58 34q94 -83 94 -207zM530 749l-85 -178l-47 9l41 188z" />
    <glyph glyph-name="phi.alt" unicode="&#x3d5;" horiz-adv-x="699" 
d="M255 54l75 393q-83 -12 -134 -78.5t-51 -174.5q0 -120 110 -140zM546 306q0 121 -109 141l-75 -394q83 13 133.5 79t50.5 174zM492 735l-42 -224q103 -7 158.5 -56t55.5 -135q0 -139 -87 -226t-226 -102l-45 -237h-109l44 234q-103 8 -158.5 57t-55.5 134
q0 140 87.5 227.5t226.5 100.5l28 152q-29 12 -71 20l8 41q94 17 186 14z" />
    <glyph glyph-name="uni0400" unicode="&#x400;" horiz-adv-x="533" 
d="M421 0h-439l6 39q46 24 84 34l101 529q-32 10 -71 35l8 38h437l-30 -155h-50q-15 56 -15 94h-165l-46 -238h133q19 36 42 64h43l-35 -184h-43q-14 27 -17 63h-133l-49 -256h167q17 46 52 99h50zM415 777l-21 -44l-196 70l44 86z" />
    <glyph glyph-name="uni0401" unicode="&#x401;" horiz-adv-x="533" 
d="M421 0h-439l6 39q46 24 84 34l101 529q-32 10 -71 35l8 38h437l-30 -155h-50q-15 56 -15 94h-165l-46 -238h133q19 36 42 64h43l-35 -184h-43q-14 27 -17 63h-133l-49 -256h167q17 46 52 99h50zM525 793q0 -26 -18 -44t-43 -18q-26 0 -41.5 15.5t-15.5 41.5q0 25 18 43
t44 18q25 0 40.5 -15.5t15.5 -40.5zM323 793q0 -26 -18 -44t-43 -18q-26 0 -41.5 15.5t-15.5 41.5q0 25 18 43t44 18q25 0 40.5 -15.5t15.5 -40.5z" />
    <glyph glyph-name="uni0402" unicode="&#x402;" horiz-adv-x="771" 
d="M359 0h-259l7 39q59 28 83 34l103 541h-125q-23 -56 -60 -109h-46l32 170h534l-32 -169h-47q-17 56 -19 108h-126l-43 -227q84 33 172 33q107 0 157 -45t50 -114q0 -70 -33.5 -134t-102 -103.5t-154.5 -28.5l10 53q68 -1 113 54t45 141q0 47 -30 78t-95 31
q-33 0 -69 -6.5t-55 -13.5l-19 -6l-48 -253q27 -9 64 -34z" />
    <glyph glyph-name="uni0403" unicode="&#x403;" horiz-adv-x="508" 
d="M526 495h-50q-13 57 -15 109l-174 8l-103 -539q33 -11 71 -35l-7 -38h-266l6 38q41 21 84 35l101 529q-32 10 -71 34l8 39h450zM520 796l-204 -63l-16 44l188 102z" />
    <glyph glyph-name="uni0404" unicode="&#x404;" horiz-adv-x="593" 
d="M503 108l5 -58q-103 -60 -218 -60q-130 0 -190 68.5t-60 175.5q0 199 114 325t289 126q88 0 164 -21l-33 -168h-51q-13 46 -13 96q-39 20 -103 20q-84 0 -145 -64.5t-84 -177.5l294 9l-15 -80l-289 9q-5 -25 -5 -54q0 -83 43.5 -133t139.5 -50q80 0 157 37z" />
    <glyph glyph-name="uni0405" unicode="&#x405;" horiz-adv-x="495" 
d="M485 670l-31 -166h-50q-18 51 -16 98q-33 10 -69 10q-56 0 -83 -32t-27 -77q0 -33 23.5 -61t56.5 -49.5l66 -45t56.5 -59.5t23.5 -81q0 -96 -83.5 -156.5t-192.5 -60.5q-80 0 -153 19l35 183h51q13 -54 15 -103q38 -19 85 -19q61 0 92 32t31 79q0 34 -23.5 63t-56.5 50.5
l-66 45t-56.5 59t-23.5 79.5q0 93 76 150t184 57q68 0 136 -15z" />
    <glyph glyph-name="uni0406" unicode="&#x406;" horiz-adv-x="332" 
d="M248 0h-266l6 39q41 22 84 34l101 529q-17 6 -34.5 14.5t-26.5 14.5l-10 6l8 38h266l-8 -38q-40 -22 -83 -35l-102 -529q17 -5 35 -13.5t28 -14.5l9 -6z" />
    <glyph glyph-name="uni0407" unicode="&#x407;" horiz-adv-x="332" 
d="M248 0h-266l6 39q41 22 84 34l101 529q-17 6 -34.5 14.5t-26.5 14.5l-10 6l8 38h266l-8 -38q-40 -22 -83 -35l-102 -529q17 -5 35 -13.5t28 -14.5l9 -6zM425 793q0 -26 -18 -44t-43 -18q-26 0 -41.5 15.5t-15.5 41.5q0 25 18 43t44 18q25 0 40.5 -15.5t15.5 -40.5z
M223 793q0 -26 -18 -44t-43 -18q-26 0 -41.5 15.5t-15.5 41.5q0 25 18 43t44 18q25 0 40.5 -15.5t15.5 -40.5z" />
    <glyph glyph-name="uni0408" unicode="&#x408;" horiz-adv-x="314" 
d="M358 675l-8 -38q-38 -25 -71 -35l-98 -515q-18 -98 -64.5 -150.5t-138.5 -97.5l-30 55q54 31 79.5 70t43.5 134l96 504q-29 9 -70 35l8 38h253z" />
    <glyph glyph-name="uni0409" unicode="&#x409;" horiz-adv-x="920" 
d="M624 602l-40 -211q52 7 104 7q103 0 152 -40.5t49 -104.5q0 -47 -19.5 -91.5t-56.5 -82.5t-98 -61t-137 -23q-35 0 -93.5 2.5t-84.5 2.5h-73l6 39q48 25 79 34l101 535h-188l-47 -184q-69 -271 -110 -352.5t-118 -81.5q-57 0 -87 14l9 48q37 1 68 33.5t70 124.5t84 254
l40 138q-26 8 -71 35l7 38h545l-8 -38q-49 -24 -83 -35zM768 236q0 96 -116 96q-16 0 -36.5 -2t-32.5 -4l-12 -3l-48 -250q43 -15 84 -15q74 0 117.5 54.5t43.5 123.5z" />
    <glyph glyph-name="uni040A" unicode="&#x40a;" horiz-adv-x="980" 
d="M828 236q0 39 -25.5 67.5t-90.5 28.5q-16 0 -36 -2t-32 -4l-13 -3l-48 -250q40 -15 84 -15q75 0 118 55t43 123zM638 -5q-33 0 -91.5 2.5t-86.5 2.5h-74l7 39q50 26 78 34l46 243h-287l-47 -243q22 -7 66 -34l-8 -39h-259l6 39q55 26 84 34l101 529q-29 9 -71 35l8 38
h260l-8 -38q-52 -27 -77 -35l-42 -218h288l41 218q-21 7 -65 35l8 38h260l-8 -38q-43 -23 -83 -35l-40 -211q53 7 104 7q99 0 149.5 -40.5t50.5 -104.5q0 -44 -18.5 -88t-54 -83t-97.5 -63t-140 -24z" />
    </font>
</defs>
</svg>
